{
.formatVersion = 3;
date = "2012-03-27 09:23:50 +0000";
familyName = ChauPhilomeneOne;
featurePrefixes = (
{
code = "languagesystem latn dflt;";
name = LanguageSystems;
},
{
code = "lookup _smcp__Lowercase_to_Small_Capitals_in_Latin_lookup_1 {
    sub a by A_smcp;
    sub b by B_smcp;
    sub c by C_smcp;
    sub d by D_smcp;
    sub e by E_smcp;
    sub f by F_smcp;
    sub g by G_smcp;
    sub h by H_smcp;
    sub i by I_smcp;
    sub j by J_smcp;
    sub k by K_smcp;
    sub l by L_smcp;
    sub m by M_smcp;
    sub n by N_smcp;
    sub o by O_smcp;
    sub p by P_smcp;
    sub q by Q_smcp;
    sub r by R_smcp;
    sub s by S_smcp;
    sub t by T_smcp;
    sub u by U_smcp;
    sub v by V_smcp;
    sub w by W_smcp;
    sub x by X_smcp;
    sub y by Y_smcp;
    sub z by Z_smcp;
    sub agrave by A_smcpgrave;
    sub aacute by A_smcpacute;
    sub acircumflex by A_smcpcircunflex;
    sub atilde by A_smcptilde;
    sub adieresis by A_smcpdieresis;
    sub aring by A_smcpring;
    sub ae by AE_smcp;
    sub egrave by E_smcpgrave;
    sub eacute by E_smcpacute;
    sub ecircumflex by E_smcpcircunflex;
    sub edieresis by E_smcpdieresis;
    sub igrave by I_smcpgrave;
    sub iacute by I_smcpacute;
    sub icircumflex by I_smcpcircunflex;
    sub idieresis by I_smcpdieresis;
    sub ntilde by Ntilde_smcp;
    sub ograve by O_smcpgrave;
    sub oacute by O_smcpacute;
    sub ocircumflex by O_smcpcircunflex;
    sub otilde by O_smcptilde;
    sub odieresis by O_smcpdieresis;
    sub ugrave by U_smcpgrave;
    sub uacute by U_smcpacute;
    sub ucircumflex by U_smcpcircunflex;
    sub udieresis by U_smcpdieresis;
    sub yacute by Y_smcpacute;
    sub ydieresis by Y_smcpdieresis;
    sub oe by OE_smcp;
    sub fi by fi_smcp;
    sub fl by fl_smcp;
    sub t_i by t_i_smcp;
    sub t_iacute by t_iacute_smcp;
    sub t_igrave by t_igrave_smcp;
    sub t_t_i by t_t_i_smcp;
    sub t_t_iacute by t_t_iacute_smcp;
    sub t_t_igrave by t_t_igrave_smcp;

glyphs = (
{
category = Letter;
glyphname = exclam;
layers = (
{
layerId = "b692dbeb-fef6-4ff9-be0e-3d959b00990b";
name = Fore;
shapes = (
{
closed = 1;
nodes = (
(188,198,l),
(91,209,l),
(77,225,l),
(136,532,l),
(199,752,l),
(313,739,l),
(327,723,l)
);
},
{
closed = 1;
nodes = (
(174,128,o),
(174,72,q),
(174,65,o),
(173,56,q),
(164,-16,o),
(91,-16,q),
(28,-16,o),
(28,41,q),
(28,48,o),
(29,56,q),
(39,128,o),
(111,128,q)
);
}
);
width = 247;
}
);
unicode = 33;
},
{
category = Letter;
glyphname = quotedbl;
layers = (
{
layerId = "b692dbeb-fef6-4ff9-be0e-3d959b00990b";
name = Fore;
shapes = (
{
closed = 1;
nodes = (
(147,523,l),
(125,576,l),
(139,710,l),
(163,752,l),
(221,752,l),
(233,710,l),
(209,576,l),
(173,523,l)
);
},
{
closed = 1;
nodes = (
(296,523,l),
(274,576,l),
(288,710,l),
(312,752,l),
(370,752,l),
(382,710,l),
(358,576,l),
(322,523,l)
);
}
);
width = 323;
}
);
unicode = 34;
},
{
category = Letter;
glyphname = numbersign;
layers = (
{
layerId = "b692dbeb-fef6-4ff9-be0e-3d959b00990b";
name = Fore;
shapes = (
{
closed = 1;
nodes = (
(381,128,l),
(267,128,l),
(166,-146,l),
(41,-146,l),
(27,-130,l),
(127,128,l),
(59,128,l),
(46,144,l),
(61,252,l),
(176,252,l),
(222,372,l),
(149,372,l),
(135,388,l),
(150,496,l),
(270,496,l),
(357,720,l),
(468,720,l),
(481,704,l),
(403,496,l),
(524,496,l),
(611,720,l),
(720,720,l),
(733,704,l),
(657,496,l),
(756,496,l),
(770,480,l),
(755,372,l),
(612,372,l),
(567,252,l),
(667,252,l),
(681,236,l),
(665,128,l),
(521,128,l),
(420,-146,l),
(296,-146,l),
(282,-130,l)
);
},
{
closed = 1;
nodes = (
(313,252,l),
(430,252,l),
(476,372,l),
(358,372,l)
);
}
);
width = 723;
}
);
unicode = 35;
},
{
category = Letter;
glyphname = dollar;
layers = (
{
layerId = "b692dbeb-fef6-4ff9-be0e-3d959b00990b";
name = Fore;
shapes = (
{
closed = 1;
nodes = (
(377,512,l),
(342,531,l),
(300,548,o),
(271,548,q),
(226,546,o),
(219,505,q),
(217,489,o),
(233.5,479,q),
(250,469,o),
(260,463.5,q),
(270,458,o),
(290,448,q),
(322,432,l),
(365,409,o),
(391.5,376,q),
(418,343,o),
(418,311,q),
(418,306,o),
(417,300,q),
(408,238,o),
(375.5,192.5,q),
(343,147,o),
(294,128,q),
(277,-1,l),
(153,-1,l),
(140,15,l),
(155,122,l),
(83,136,o),
(48,193,q),
(45,198,o),
(45,200,q),
(45,210,o),
(73.5,239,q),
(102,268,o),
(115,268,q),
(118,268,o),
(122,264,q),
(168,222,o),
(219,222,q),
(248,222,o),
(265,239.5,q),
(282,257,o),
(282,275,q),
(282,293,o),
(269,305,q),
(249,321,o),
(200.5,346,q),
(152,371,o),
(124.5,405,q),
(97,439,o),
(97,475,q),
(97,483,o),
(98,492,q),
(107,558,o),
(139.5,593.5,q),
(172,629,o),
(233,639,q),
(253,768,l),
(364,768,l),
(378,752,l),
(362,634,l),
(399,623,o),
(412,610,q),
(413,610,l),
(421,605,o),
(421,594,q),
(421,583,o),
(415,568,q),
(398,510,o),
(383,510,q)
);
}
);
width = 393;
}
);
unicode = 36;
},
{
category = Letter;
glyphname = percent;
layers = (
{
layerId = "b692dbeb-fef6-4ff9-be0e-3d959b00990b";
name = Fore;
shapes = (
{
closed = 1;
nodes = (
(508,720,l),
(610,720,l),
(623,704,l),
(304,0,l),
(195,0,l),
(181,16,l)
);
},
{
closed = 1;
nodes = (
(178,690,o),
(240.5,690,q),
(303,690,o),
(327,656,q),
(343,634,o),
(343,600,q),
(343,566,o),
(339,538,q),
(327,453,o),
(294,419.5,q),
(261,386,o),
(198,386,q),
(135,386,o),
(111,420,q),
(95,442,o),
(95,476,q),
(95,510,o),
(99,538,q),
(111,623,o),
(144.5,656.5,q)
);
},
{
closed = 1;
nodes = (
(180,469,o),
(209,469,q),
(224,469,o),
(238,492,q),
(260,527,o),
(260,579,q),
(260,590,o),
(258,596,q),
(253,607,o),
(233,607,q),
(213,607,o),
(200,587,q),
(187,567,o),
(183.5,545.5,q),
(180,524,o),
(180,513,q)
);
},
{
closed = 1;
nodes = (
(534,320,o),
(596.5,320,q),
(659,320,o),
(683,286,q),
(699,264,o),
(699,230,q),
(699,196,o),
(695,168,q),
(683,83,o),
(650,49.5,q),
(617,16,o),
(554,16,q),
(491,16,o),
(467,50,q),
(451,72,o),
(451,106,q),
(451,140,o),
(455,168,q),
(467,253,o),
(500.5,286.5,q)
);
},
{
closed = 1;
nodes = (
(536,99,o),
(565,99,q),
(580,99,o),
(594,122,q),
(616,157,o),
(616,209,q),
(616,220,o),
(614,226,q),
(609,237,o),
(589,237,q),
(569,237,o),
(556,217,q),
(543,197,o),
(539.5,175.5,q),
(536,154,o),
(536,143,q)
);
}
);
width = 698;
}
);
unicode = 37;
},
{
category = Letter;
glyphname = ampersand;
layers = (
{
layerId = "b692dbeb-fef6-4ff9-be0e-3d959b00990b";
name = Fore;
shapes = (
{
closed = 1;
nodes = (
(826,512,o),
(826,486,q),
(826,455,o),
(811,433,q),
(796,411,o),
(768,411,q),
(640,411,l),
(552,-223,l),
(552,-224,l),
(551,-230,o),
(550,-232,q),
(545,-240,o),
(511,-240,q),
(477,-240,o),
(442,-235,q),
(407,-230,o),
(408,-224,q),
(498,411,l),
(277,411,l),
(245,411,o),
(228.5,387.5,q),
(212,364,o),
(202,307,q),
(347,307,l),
(365,307,o),
(367,296,q),
(368,289,o),
(367,278,q),
(355,206,o),
(335,206,q),
(186,206,l),
(183,178,o),
(183,150.5,q),
(183,123,o),
(190,107,q),
(202,82,o),
(234,82,q),
(266,82,o),
(310,88.5,q),
(354,95,o),
(356,94,q),
(367,90,o),
(362,59,q),
(357,28,o),
(352.5,14.5,q),
(348,1,o),
(338,-2,q),
(288,-16,o),
(229,-16,q),
(108,-16,o),
(72,40,q),
(48,76,o),
(48,134.5,q),
(48,193,o),
(58,261.5,q),
(68,330,o),
(84.5,380,q),
(101,430,o),
(130.5,460,q),
(160,490,o),
(199,501,q),
(238,512,o),
(301,512,q),
(782,512,l)
);
}
);
width = 777;
}
);
unicode = 38;
},
{
category = Letter;
glyphname = quotesingle;
layers = (
{
layerId = "b692dbeb-fef6-4ff9-be0e-3d959b00990b";
name = Fore;
shapes = (
{
closed = 1;
nodes = (
(141,523,l),
(119,576,l),
(133,710,l),
(157,752,l),
(215,752,l),
(227,710,l),
(203,576,l),
(167,523,l)
);
}
);
width = 162;
}
);
unicode = 39;
},
{
category = Letter;
glyphname = parenleft;
layers = (
{
layerId = "b692dbeb-fef6-4ff9-be0e-3d959b00990b";
name = Fore;
shapes = (
{
closed = 1;
nodes = (
(59,-176,o),
(59,154,q),
(59,242,o),
(75,355,q),
(110,602,o),
(185,719,q),
(260,836,o),
(405,836,q),
(388,701,l),
(316,701,o),
(282,594,q),
(240,464,o),
(212,193,q),
(207,143,o),
(207,117.5,q),
(207,92,o),
(208.5,65.5,q),
(210,39,o),
(217,23,q),
(224,7,o),
(234,-8,q),
(252,-37,o),
(299,-37,q),
(280,-176,l),
(279,-176,l)
);
}
);
width = 343;
}
);
unicode = 40;
},
{
category = Letter;
glyphname = parenright;
layers = (
{
layerId = "b692dbeb-fef6-4ff9-be0e-3d959b00990b";
name = Fore;
shapes = (
{
closed = 1;
nodes = (
(228,570,o),
(226.5,596.5,q),
(225,623,o),
(219.5,640.5,q),
(214,658,o),
(206,672,q),
(189,701,o),
(150,701,q),
(171,836,l),
(316,836,o),
(358,719,q),
(381,655,o),
(381,561,q),
(381,467,o),
(365,355,q),
(290,-176,o),
(13,-176,q),
(12,-176,l),
(31,-37,l),
(91,-37,o),
(122,12,q),
(139,39,o),
(151,67.5,q),
(163,96,o),
(174,148,q),
(205,294,o),
(224,486,q),
(228,521,o),
(228,545.5,q)
);
}
);
width = 342;
}
);
unicode = 41;
},
{
category = Letter;
glyphname = asterisk;
layers = (
{
layerId = "b692dbeb-fef6-4ff9-be0e-3d959b00990b";
name = Fore;
shapes = (
{
closed = 1;
nodes = (
(235,477,l),
(247,568,l),
(354,568,l),
(369,551,l),
(358,476,l),
(442,521,l),
(484,430,l),
(475,407,l),
(405,370,l),
(478,324,l),
(407,225,l),
(392,223,l),
(328,262,l),
(316,171,l),
(208,171,l),
(194,187,l),
(204,263,l),
(119,217,l),
(77,314,l),
(81,329,l),
(157,369,l),
(83,416,l),
(152,508,l),
(176,514,l)
);
}
);
width = 458;
}
);
unicode = 42;
},
{
category = Letter;
glyphname = plus;
layers = (
{
layerId = "b692dbeb-fef6-4ff9-be0e-3d959b00990b";
name = Fore;
shapes = (
{
closed = 1;
nodes = (
(335,432,l),
(456,432,l),
(470,416,l),
(455,308,l),
(318,308,l),
(299,171,l),
(191,171,l),
(177,187,l),
(194,308,l),
(74,308,l),
(60,324,l),
(75,432,l),
(211,432,l),
(230,567,l),
(337,568,l),
(352,551,l)
);
}
);
width = 427;
}
);
unicode = 43;
},
{
category = Letter;
glyphname = comma;
layers = (
{
layerId = "b692dbeb-fef6-4ff9-be0e-3d959b00990b";
name = Fore;
shapes = (
{
closed = 1;
nodes = (
(46,15,o),
(46,31.5,q),
(46,48,o),
(47,56,q),
(57,128,o),
(129,128,q),
(192,128,o),
(192,72,q),
(192,65,o),
(191,56,q),
(187,18,o),
(165,0,q),
(47,-128,l),
(23,-111,l),
(33,-42,l),
(57,3,l)
);
}
);
width = 197;
}
);
unicode = 44;
},
{
category = Letter;
glyphname = hyphen;
layers = (
{
layerId = "b692dbeb-fef6-4ff9-be0e-3d959b00990b";
name = Fore;
shapes = (
{
closed = 1;
nodes = (
(104,308,l),
(90,324,l),
(105,432,l),
(381,432,l),
(395,416,l),
(380,308,l)
);
}
);
width = 383;
}
);
unicode = 45;
},
{
category = Letter;
glyphname = period;
layers = (
{
layerId = "b692dbeb-fef6-4ff9-be0e-3d959b00990b";
name = Fore;
shapes = (
{
closed = 1;
nodes = (
(186,128,o),
(186,72,q),
(186,65,o),
(185,56,q),
(176,-16,o),
(103,-16,q),
(40,-16,o),
(40,41,q),
(40,48,o),
(41,56,q),
(51,128,o),
(123,128,q)
);
}
);
width = 214;
}
);
unicode = 46;
},
{
category = Letter;
glyphname = slash;
layers = (
{
layerId = "b692dbeb-fef6-4ff9-be0e-3d959b00990b";
name = Fore;
shapes = (
{
closed = 1;
nodes = (
(382,876,l),
(492,876,l),
(505,860,l),
(127,-146,l),
(3,-146,l),
(-10,-130,l)
);
}
);
width = 394;
}
);
unicode = 47;
},
{
category = Letter;
glyphname = zero;
layers = (
{
layerId = "b692dbeb-fef6-4ff9-be0e-3d959b00990b";
name = Fore;
shapes = (
{
closed = 1;
nodes = (
(418,752,o),
(452,742,q),
(527,722,o),
(543,641,q),
(549,605,o),
(549,574.5,q),
(549,544,o),
(548,505.5,q),
(547,467,o),
(534,371,q),
(503,152,o),
(443.5,68,q),
(384,-16,o),
(256.5,-16,q),
(129,-16,o),
(93,68,q),
(74,113,o),
(74,191.5,q),
(74,270,o),
(92,400,q),
(110,530,o),
(142.5,611,q),
(175,692,o),
(225,722,q),
(275,752,o),
(364,752,q)
);
},
{
closed = 1;
nodes = (
(356,607,o),
(337.5,605,q),
(319,603,o),
(302,592.5,q),
(285,582,o),
(276.5,570,q),
(268,558,o),
(259,526,q),
(249,491,o),
(233,383,q),
(214,253,o),
(214,209.5,q),
(214,166,o),
(218,152,q),
(222,138,o),
(235,138,q),
(268,138,o),
(285.5,139.5,q),
(303,141,o),
(321,150.5,q),
(339,160,o),
(347,172,q),
(355,184,o),
(365,214,q),
(376,251,o),
(392,359,q),
(411,497,o),
(411,552,q),
(411,607,o),
(388,607,q)
);
}
);
width = 520;
}
);
unicode = 48;
},
{
category = Letter;
glyphname = one;
layers = (
{
layerId = "b692dbeb-fef6-4ff9-be0e-3d959b00990b";
name = Fore;
shapes = (
{
closed = 1;
nodes = (
(129,690,l),
(373,752,l),
(387,736,l),
(360,432,l),
(318,124,l),
(399,124,l),
(413,108,l),
(398,0,l),
(59,0,l),
(45,16,l),
(60,124,l),
(174,124,l),
(239,589,l),
(148,571,l)
);
}
);
width = 422;
}
);
unicode = 49;
},
{
category = Letter;
glyphname = two;
layers = (
{
layerId = "b692dbeb-fef6-4ff9-be0e-3d959b00990b";
name = Fore;
shapes = (
{
closed = 1;
nodes = (
(167,616,l),
(153,717,l),
(212,752,o),
(313,752,q),
(414,752,o),
(454.5,732.5,q),
(495,713,o),
(501,669,q),
(503,654,o),
(503,627.5,q),
(503,601,o),
(499,576,q),
(495,551,o),
(493,536,q),
(491,521,o),
(490,516.5,q),
(489,512,o),
(485,495.5,q),
(481,479,o),
(475.5,468.5,q),
(470,458,o),
(460,436.5,q),
(450,415,o),
(436.5,396,q),
(423,377,o),
(403,348,q),
(383,319,o),
(358,288,q),
(294,206,o),
(227,131,q),
(437,131,l),
(451,115,l),
(435,0,l),
(39,0,l),
(56,124,l),
(246,351,o),
(294,420,q),
(342,489,o),
(351,554,q),
(359,586,o),
(359,597.5,q),
(359,609,o),
(358,614,q),
(354,629,o),
(306,629,q),
(258,629,o),
(243,624,q),
(228,619,o),
(216,616,q)
);
}
);
width = 475;
}
);
unicode = 50;
},
{
category = Letter;
glyphname = three;
layers = (
{
layerId = "b692dbeb-fef6-4ff9-be0e-3d959b00990b";
name = Fore;
shapes = (
{
closed = 1;
nodes = (
(511,471,o),
(443,395,q),
(484,357,o),
(484,275,q),
(484,246,o),
(478,202.5,q),
(472,159,o),
(455.5,120.5,q),
(439,82,o),
(408,50,q),
(344,-16,o),
(191,-16,q),
(145,-16,o),
(54,-6,q),
(71,118,l),
(166,112,o),
(222.5,112,q),
(279,112,o),
(298,130.5,q),
(317,149,o),
(325,213,q),
(334,253,o),
(334,271,q),
(334,289,o),
(330,296,q),
(321,315,o),
(251,315,q),
(179,315,l),
(197,443,l),
(263,443,o),
(288.5,448.5,q),
(314,454,o),
(323,465,q),
(355,504,o),
(355,578,q),
(355,629,o),
(325,629,q),
(248,629,o),
(202,616,q),
(153,616,l),
(139,717,l),
(198,752,o),
(320.5,752,q),
(443,752,o),
(482,704,q),
(511,670,o),
(511,602,q)
);
}
);
width = 484;
}
);
unicode = 51;
},
{
category = Letter;
glyphname = four;
layers = (
{
layerId = "b692dbeb-fef6-4ff9-be0e-3d959b00990b";
name = Fore;
shapes = (
{
closed = 1;
nodes = (
(222,432,l),
(319,432,l),
(365,752,l),
(476,752,l),
(490,736,l),
(463,432,l),
(505,432,l),
(519,416,l),
(504,308,l),
(446,308,l),
(403,0,l),
(275,0,l),
(261,16,l),
(302,308,l),
(79,308,l),
(65,324,l),
(126,752,l),
(235,752,l),
(249,736,l)
);
}
);
width = 489;
}
);
unicode = 52;
},
{
category = Letter;
glyphname = five;
layers = (
{
layerId = "b692dbeb-fef6-4ff9-be0e-3d959b00990b";
name = Fore;
shapes = (
{
closed = 1;
nodes = (
(446,267,o),
(440,226,q),
(407,-16,o),
(134,-16,q),
(115,-16,o),
(92.5,-12.5,q),
(70,-9,o),
(45,-6,q),
(62,118,l),
(157,112,o),
(159,112,q),
(231,112,o),
(254,135.5,q),
(277,159,o),
(286,227,q),
(292,256,o),
(292,270,q),
(292,313,o),
(270,321.5,q),
(248,330,o),
(196,330,q),
(106,330,l),
(92,346,l),
(149,752,l),
(474,752,l),
(488,736,l),
(473,628,l),
(254,628,l),
(246,454,l),
(256,453,o),
(279,451.5,q),
(302,450,o),
(313,449,q),
(324,448,o),
(341.5,445.5,q),
(359,443,o),
(369,440,q),
(395,434,o),
(406,423,q),
(446,386,o),
(446,300,q)
);
}
);
width = 442;
}
);
unicode = 53;
},
{
category = Letter;
glyphname = six;
layers = (
{
layerId = "b692dbeb-fef6-4ff9-be0e-3d959b00990b";
name = Fore;
shapes = (
{
closed = 1;
nodes = (
(477,316,o),
(468,250,q),
(447,100,o),
(395.5,42,q),
(344,-16,o),
(230,-16,q),
(116,-16,o),
(82,42,q),
(60,77,o),
(60,135,q),
(60,193,o),
(69.5,261,q),
(79,329,o),
(112.5,430,q),
(146,531,o),
(173,593.5,q),
(200,656,o),
(251,768,q),
(368,738,l),
(382,722,l),
(355,675,l),
(303,593,o),
(279,504,q),
(305,514,l),
(395,514,o),
(436,484,q),
(477,454,o),
(477,360,q)
);
},
{
closed = 1;
nodes = (
(219,362,o),
(206.5,270,q),
(194,178,o),
(194,130,q),
(194,82,o),
(212,82,q),
(245,82,o),
(260.5,86,q),
(276,90,o),
(289.5,109,q),
(303,128,o),
(309,157.5,q),
(315,187,o),
(324.5,253.5,q),
(334,320,o),
(334,369,q),
(334,418,o),
(315,418,q),
(255,418,o),
(237,390,q)
);
}
);
width = 455;
}
);
unicode = 54;
},
{
category = Letter;
glyphname = seven;
layers = (
{
layerId = "b692dbeb-fef6-4ff9-be0e-3d959b00990b";
name = Fore;
shapes = (
{
closed = 1;
nodes = (
(386,628,l),
(165,628,l),
(151,644,l),
(166,752,l),
(523,752,l),
(536,736,l),
(521,629,l),
(425,432,l),
(179,0,l),
(52,0,l),
(38,16,l)
);
}
);
width = 447;
}
);
unicode = 55;
},
{
category = Letter;
glyphname = eight;
layers = (
{
layerId = "b692dbeb-fef6-4ff9-be0e-3d959b00990b";
name = Fore;
shapes = (
{
closed = 1;
nodes = (
(515,489,o),
(418,400,q),
(456,368,o),
(472,324.5,q),
(488,281,o),
(488,257.5,q),
(488,234,o),
(486,222,q),
(470,113,o),
(409,48.5,q),
(348,-16,o),
(240,-16,q),
(58,-16,o),
(58,161,q),
(58,189,o),
(63.5,229,q),
(69,269,o),
(101,317.5,q),
(133,366,o),
(180,400,q),
(154,433,o),
(142,470,q),
(130,507,o),
(130,528,q),
(130,549,o),
(132,562,q),
(145,652,o),
(200,711,q),
(255,770,o),
(347,770,q),
(515,770,o),
(515,614,q)
);
},
{
closed = 1;
nodes = (
(383,518,o),
(383,603,q),
(383,629,o),
(372,650,q),
(361,671,o),
(337.5,671,q),
(314,671,o),
(294,646,q),
(267,611,o),
(267,556,q),
(267,501,o),
(308,463,q)
);
},
{
closed = 1;
nodes = (
(207,267,o),
(200,219,q),
(197,194,o),
(197,172.5,q),
(197,151,o),
(206,129,q),
(220,96,o),
(256.5,96,q),
(293,96,o),
(316,129,q),
(339,162,o),
(346,210,q),
(347,219,o),
(347,234,q),
(347,272,o),
(289,329,q)
);
}
);
width = 487;
}
);
unicode = 56;
},
{
category = Letter;
glyphname = nine;
layers = (
{
layerId = "b692dbeb-fef6-4ff9-be0e-3d959b00990b";
name = Fore;
shapes = (
{
closed = 1;
nodes = (
(84,432,o),
(93,498,q),
(115,649,o),
(167,709.5,q),
(219,770,o),
(332,770,q),
(445,770,o),
(480,710,q),
(501,672,o),
(501,614,q),
(501,556,o),
(491.5,486,q),
(482,416,o),
(454,336.5,q),
(426,257,o),
(402,212,q),
(378,167,o),
(336,96.5,q),
(294,26,o),
(280,0,q),
(261,-16,l),
(174,16,l),
(160,32,l),
(164,39,o),
(188,75.5,q),
(212,112,o),
(228,136,q),
(272,207,o),
(282,244,q),
(256,234,l),
(166,234,o),
(124,264,q),
(84,294,o),
(84,388,q)
);
},
{
closed = 1;
nodes = (
(341,398,o),
(353,481.5,q),
(365,565,o),
(365,610,q),
(365,655,o),
(347,655,q),
(290,655,o),
(272,629,q),
(254,603,o),
(242.5,520,q),
(231,437,o),
(231,392,q),
(231,347,o),
(249,347,q),
(307,347,o),
(324,372.5,q)
);
}
);
width = 454;
}
);
unicode = 57;
},
{
category = Letter;
glyphname = colon;
layers = (
{
layerId = "b692dbeb-fef6-4ff9-be0e-3d959b00990b";
name = Fore;
shapes = (
{
closed = 1;
nodes = (
(189,128,o),
(189,72,q),
(189,65,o),
(188,56,q),
(179,-16,o),
(106,-16,q),
(43,-16,o),
(43,41,q),
(43,48,o),
(44,56,q),
(54,128,o),
(126,128,q)
);
},
{
closed = 1;
nodes = (
(243,512,o),
(243,456,q),
(243,449,o),
(242,440,q),
(232,368,o),
(160,368,q),
(97,368,o),
(97,424,q),
(97,431,o),
(98,440,q),
(108,512,o),
(180,512,q)
);
}
);
width = 221;
}
);
unicode = 58;
},
{
category = Letter;
glyphname = semicolon;
layers = (
{
layerId = "b692dbeb-fef6-4ff9-be0e-3d959b00990b";
name = Fore;
shapes = (
{
closed = 1;
nodes = (
(250,512,o),
(250,456,q),
(250,449,o),
(249,440,q),
(239,368,o),
(167,368,q),
(104,368,o),
(104,424,q),
(104,431,o),
(105,440,q),
(115,512,o),
(187,512,q)
);
},
{
closed = 1;
nodes = (
(48,15,o),
(48,31.5,q),
(48,48,o),
(49,56,q),
(59,128,o),
(131,128,q),
(194,128,o),
(194,72,q),
(194,65,o),
(193,56,q),
(189,18,o),
(167,0,q),
(49,-128,l),
(25,-111,l),
(35,-42,l),
(59,3,l)
);
}
);
width = 206;
}
);
unicode = 59;
},
{
category = Letter;
glyphname = less;
layers = (
{
layerId = "b692dbeb-fef6-4ff9-be0e-3d959b00990b";
name = Fore;
shapes = (
{
closed = 1;
nodes = (
(306,40,l),
(254,53,l),
(75,331,l),
(62,380,l),
(89,429,l),
(332,723,l),
(388,736,l),
(446,697,l),
(209,380,l),
(376,79,l)
);
}
);
width = 396;
}
);
unicode = 60;
},
{
category = Letter;
glyphname = equal;
layers = (
{
layerId = "b692dbeb-fef6-4ff9-be0e-3d959b00990b";
name = Fore;
shapes = (
{
closed = 1;
nodes = (
(105,432,l),
(123,556,l),
(455,556,l),
(468,540,l),
(456,449,l),
(436,432,l)
);
},
{
closed = 1;
nodes = (
(71,186,l),
(88,310,l),
(420,310,l),
(434,294,l),
(421,203,l),
(402,186,l)
);
}
);
width = 438;
}
);
unicode = 61;
},
{
category = Letter;
glyphname = greater;
layers = (
{
layerId = "b692dbeb-fef6-4ff9-be0e-3d959b00990b";
name = Fore;
shapes = (
{
closed = 1;
nodes = (
(42,79,l),
(293,380,l),
(144,697,l),
(214,736,l),
(266,723,l),
(427,429,l),
(440,380,l),
(413,331,l),
(156,53,l),
(100,40,l)
);
}
);
width = 396;
}
);
unicode = 62;
},
{
category = Letter;
glyphname = question;
layers = (
{
layerId = "b692dbeb-fef6-4ff9-be0e-3d959b00990b";
name = Fore;
shapes = (
{
closed = 1;
nodes = (
(345,497,o),
(349.5,529,q),
(354,561,o),
(354,579,q),
(354,597,o),
(350,608,q),
(341,629,o),
(299,629,q),
(232,629,o),
(186,616,q),
(137,616,l),
(123,717,l),
(182,752,o),
(304,752,q),
(426,752,o),
(468,702,q),
(499,665,o),
(499,595,q),
(499,527,o),
(487,500,q),
(461,443,o),
(303,291,q),
(291,202,l),
(171,202,l),
(157,218,l),
(168,297,l),
(172,323,o),
(221,368,q),
(298,437,o),
(321.5,467,q)
);
},
{
closed = 1;
nodes = (
(276,128,o),
(276,72,q),
(276,65,o),
(275,56,q),
(266,-16,o),
(193,-16,q),
(130,-16,o),
(130,41,q),
(130,48,o),
(131,56,q),
(141,128,o),
(213,128,q)
);
}
);
width = 438;
}
);
unicode = 63;
},
{
category = Letter;
glyphname = at;
layers = (
{
layerId = "b692dbeb-fef6-4ff9-be0e-3d959b00990b";
name = Fore;
shapes = (
{
closed = 1;
nodes = (
(457,609,o),
(389,609,q),
(352,609,o),
(321,584,q),
(303,570,o),
(284,521,q),
(271,490,o),
(267,456,q),
(255,376,o),
(249,328,q),
(236,226,o),
(236,198.5,q),
(236,171,o),
(236.5,152,q),
(237,133,o),
(246,118,q),
(261,90,o),
(310,90,q),
(359,90,o),
(468,121.5,q),
(577,153,o),
(580,153,q),
(562,27,l),
(554,26,o),
(504,10,q),
(365,-37,o),
(293,-37,q),
(144,-37,o),
(100,47,q),
(73,97,o),
(73,178.5,q),
(73,260,o),
(86,350,q),
(108,511,o),
(143,591.5,q),
(178,672,o),
(238,703.5,q),
(298,735,o),
(408.5,734.5,q),
(519,734,o),
(568,692,q),
(617,650,o),
(622,558,q),
(623,541,o),
(623,522,q),
(623,439,o),
(605,318,q),
(597,258,l),
(430,258,l),
(388,258,o),
(368,283.5,q),
(348,309,o),
(348,344,q),
(348,413,o),
(382,446.5,q),
(416,480,o),
(456,482,q),
(457,494,o),
(457,505,q)
);
}
);
width = 599;
}
);
unicode = 64;
},
{
category = Letter;
glyphname = A;
layers = (
{
layerId = "b692dbeb-fef6-4ff9-be0e-3d959b00990b";
name = Fore;
shapes = (
{
closed = 1;
nodes = (
(475,769,o),
(476,738,q),
(501,431,l),
(513,22,l),
(513,-2,o),
(506,-9,q),
(499,-16,o),
(470,-16,q),
(381,-16,o),
(381,22,q),
(375,228,l),
(235,228,l),
(174,21,l),
(169,3,o),
(166,-2,q),
(160,-16,o),
(127.5,-16,q),
(95,-16,o),
(81,-16,q),
(38,-14,o),
(31,0,q),
(29,4,o),
(29,9.5,q),
(29,15,o),
(31,22,q),
(157,434,o),
(204.5,585,q),
(252,736,o),
(255,746,q),
(262,769,o),
(406,769,q)
);
},
{
closed = 1;
nodes = (
(271,349,l),
(370,349,l),
(357,638,l)
);
}
);
width = 539;
}
);
unicode = 65;
},
{
category = Letter;
glyphname = B;
layers = (
{
layerId = "b692dbeb-fef6-4ff9-be0e-3d959b00990b";
name = Fore;
shapes = (
{
closed = 1;
nodes = (
(494,768,o),
(546,718,q),
(586,679,o),
(586,604,q),
(586,581,o),
(582,554,q),
(567,449,o),
(517,395,q),
(559,356,o),
(559,276,q),
(559,250,o),
(555,220,q),
(523,-16,o),
(251,-16,q),
(220,-16,o),
(45,0,q),
(150,752,l),
(256,768,o),
(341,768,q)
);
},
{
closed = 1;
nodes = (
(409,249,o),
(409,272,q),
(409,295,o),
(401,303,q),
(388,317,o),
(325.5,317,q),
(263,317,o),
(246,315,q),
(229,313,o),
(228,303,q),
(203,124,l),
(202,114,o),
(215,111.5,q),
(228,109,o),
(289,109,q),
(350,109,o),
(372.5,131,q),
(395,153,o),
(405,221,q)
);
},
{
closed = 1;
nodes = (
(248,441,o),
(265,441,q),
(352,441,o),
(386.5,462,q),
(421,483,o),
(432,555,q),
(434,567,o),
(434,585.5,q),
(434,604,o),
(422,626.5,q),
(410,649,o),
(390,649,q),
(304,649,o),
(284,638,q),
(278,634,o),
(273,626,q),
(250,457,l),
(248,453,o),
(248,450,q)
);
}
);
width = 560;
}
);
unicode = 66;
},
{
category = Letter;
glyphname = C;
layers = (
{
layerId = "b692dbeb-fef6-4ff9-be0e-3d959b00990b";
name = Fore;
shapes = (
{
closed = 1;
nodes = (
(144,-16,o),
(100,68,q),
(74,117,o),
(74,198.5,q),
(74,280,o),
(87,371,q),
(109,531,o),
(145.5,615.5,q),
(182,700,o),
(241,734,q),
(300,768,o),
(408.5,768,q),
(517,768,o),
(563,734,q),
(570,728,o),
(570,719,q),
(570,710,o),
(556,681,q),
(542,652,o),
(532.5,640.5,q),
(523,629,o),
(513.5,629,q),
(504,629,o),
(499,630,q),
(426,645,o),
(371.5,645,q),
(317,645,o),
(292,585,q),
(267,525,o),
(248,388.5,q),
(229,252,o),
(229,200.5,q),
(229,149,o),
(245,128.5,q),
(261,108,o),
(302.5,108,q),
(344,108,o),
(447,118,q),
(463,119,o),
(469,111.5,q),
(475,104,o),
(473,89,q),
(466,39,o),
(458,20,q),
(450,1,o),
(427,-3,q),
(336,-16,o),
(293,-16,q)
);
}
);
width = 498;
}
);
unicode = 67;
},
{
category = Letter;
glyphname = D;
layers = (
{
layerId = "b692dbeb-fef6-4ff9-be0e-3d959b00990b";
name = Fore;
shapes = (
{
closed = 1;
nodes = (
(304,768,o),
(370.5,768,q),
(437,768,o),
(479,758,q),
(570,736,o),
(592,654,q),
(603,611,o),
(603,550,q),
(603,484,o),
(588,383,q),
(557,161,o),
(486.5,72.5,q),
(416,-16,o),
(261,-16,q),
(224,-16,o),
(45,0,q),
(150,751,l)
);
},
{
closed = 1;
nodes = (
(321,649,o),
(298.5,645.5,q),
(276,642,o),
(273,626,q),
(203,124,l),
(202,114,o),
(215,111.5,q),
(228,109,o),
(266.5,109,q),
(305,109,o),
(321,111,q),
(337,113,o),
(353,123,q),
(369,133,o),
(377,147,q),
(385,161,o),
(394,194,q),
(405,232,o),
(423.5,358.5,q),
(442,485,o),
(442,551,q),
(442,649,o),
(408,649,q)
);
}
);
width = 571;
}
);
unicode = 68;
},
{
category = Letter;
glyphname = E;
layers = (
{
layerId = "b692dbeb-fef6-4ff9-be0e-3d959b00990b";
name = Fore;
shapes = (
{
closed = 1;
nodes = (
(544,750,o),
(544,725,q),
(544,713,o),
(537,688,q),
(522,632,o),
(485,632,q),
(262,632,l),
(248,455,l),
(441,455,l),
(477,455,o),
(477,428,q),
(477,424,o),
(473.5,397.5,q),
(470,371,o),
(461,352.5,q),
(452,334,o),
(427,334,q),
(231,334,l),
(202,121,l),
(433,121,l),
(456,120,o),
(464,111.5,q),
(472,103,o),
(470,86,q),
(463,37,o),
(451.5,18.5,q),
(440,0,o),
(413,0,q),
(61,0,l),
(47,16,l),
(150,752,l),
(505,752,l)
);
}
);
width = 483;
}
);
unicode = 69;
},
{
category = Letter;
glyphname = F;
layers = (
{
layerId = "b692dbeb-fef6-4ff9-be0e-3d959b00990b";
name = Fore;
shapes = (
{
closed = 1;
nodes = (
(547,750,o),
(547,731,q),
(547,724,o),
(546,721,q),
(537,669,o),
(524,650.5,q),
(511,632,o),
(475,632,q),
(263,632,l),
(248,455,l),
(457,455,l),
(498,455,o),
(494,423,q),
(487,371,o),
(475,352.5,q),
(463,334,o),
(434,334,q),
(233,334,l),
(187,0,l),
(186,-6,o),
(184,-8,q),
(178,-16,o),
(151,-16,q),
(124,-16,o),
(101,-14,q),
(45,-9,o),
(47,0,q),
(152,752,l),
(497,752,l)
);
}
);
width = 439;
}
);
unicode = 70;
},
{
category = Letter;
glyphname = G;
layers = (
{
layerId = "b692dbeb-fef6-4ff9-be0e-3d959b00990b";
name = Fore;
shapes = (
{
closed = 1;
nodes = (
(146,-16,o),
(102,68,q),
(75,118,o),
(75,199.5,q),
(75,281,o),
(88,371,q),
(110,531,o),
(146.5,615.5,q),
(183,700,o),
(242.5,734,q),
(302,768,o),
(402,768,q),
(502,768,o),
(553,741,q),
(571,730,o),
(571,718.5,q),
(571,707,o),
(567,699,q),
(543,649,o),
(533,639,q),
(523,629,o),
(512.5,629,q),
(502,629,o),
(458,637,q),
(414,645,o),
(370,645,q),
(315,645,o),
(292.5,588.5,q),
(270,532,o),
(254,416,q),
(231,254,o),
(231,192,q),
(231,188,o),
(231.5,169.5,q),
(232,151,o),
(241,136,q),
(258,108,o),
(304,108,q),
(386,113,l),
(417,331,l),
(421,351,o),
(434.5,357.5,q),
(448,364,o),
(480,364.5,q),
(512,365,o),
(526.5,356.5,q),
(541,348,o),
(540,322,q),
(529,126,l),
(512,0,l),
(382,-16,o),
(295,-16,q)
);
}
);
width = 547;
}
);
unicode = 71;
},
{
category = Letter;
glyphname = H;
layers = (
{
layerId = "b692dbeb-fef6-4ff9-be0e-3d959b00990b";
name = Fore;
shapes = (
{
closed = 1;
nodes = (
(578,768,o),
(578,737,q),
(578,734,o),
(578,731,q),
(555,431,l),
(497,21,l),
(494,-3,o),
(487,-9.5,q),
(480,-16,o),
(454.5,-16,q),
(429,-16,o),
(408,-13.5,q),
(387,-11,o),
(370.5,-2,q),
(354,7,o),
(356,20,q),
(397,310,l),
(233,310,l),
(193,21,l),
(190,-3,o),
(183,-9.5,q),
(176,-16,o),
(148,-16,q),
(48,-16,o),
(54,22,q),
(154,733,l),
(157,755,o),
(167,761.5,q),
(177,768,o),
(207,768,q),
(280,768,o),
(276,733,q),
(250,430,l),
(414,430,l),
(457,734,l),
(460,755,o),
(470,761.5,q),
(480,768,o),
(510,768,q)
);
}
);
width = 533;
}
);
unicode = 72;
},
{
category = Letter;
glyphname = I;
layers = (
{
layerId = "b692dbeb-fef6-4ff9-be0e-3d959b00990b";
name = Fore;
shapes = (
{
closed = 1;
nodes = (
(126,752,o),
(169,752,q),
(346,752,l),
(386,752,o),
(386,726,q),
(386,724,o),
(386,721,q),
(373,632,o),
(338,632,q),
(313,632,l),
(295,432,l),
(253,121,l),
(283,121,l),
(314,120,o),
(314,96,q),
(314,78,o),
(306,54,q),
(288,0,o),
(252,0,q),
(63,0,l),
(45,1,o),
(41,10.5,q),
(37,20,o),
(37,31.5,q),
(37,43,o),
(40,66,q),
(45,121,o),
(76,121,q),
(112,121,l),
(183,632,l),
(153,632,l),
(134,633,o),
(130,642.5,q),
(126,652,o),
(126,668,q)
);
}
);
width = 325;
}
);
unicode = 73;
},
{
category = Letter;
glyphname = J;
layers = (
{
layerId = "b692dbeb-fef6-4ff9-be0e-3d959b00990b";
name = Fore;
shapes = (
{
closed = 1;
nodes = (
(-24,-113,o),
(17,-113,q),
(61,-113,o),
(84,-53.5,q),
(107,6,o),
(129,163,q),
(210,732,l),
(213,754,o),
(224.5,761,q),
(236,768,o),
(266,768,q),
(338,768,o),
(334,731,q),
(308,432,l),
(271,165,l),
(246,-5,o),
(220,-72.5,q),
(194,-140,o),
(166,-167,q),
(107,-224,o),
(1,-224,q),
(-24,-223,o),
(-24,-191,q)
);
}
);
width = 289;
}
);
unicode = 74;
},
{
category = Letter;
glyphname = K;
layers = (
{
layerId = "b692dbeb-fef6-4ff9-be0e-3d959b00990b";
name = Fore;
shapes = (
{
closed = 1;
nodes = (
(486,768,o),
(551.5,768,q),
(617,768,o),
(617,746,q),
(617,740,o),
(612,732,q),
(417,417,l),
(552,21,l),
(560,-2,o),
(553.5,-9,q),
(547,-16,o),
(511.5,-16,q),
(476,-16,o),
(437,-7.5,q),
(398,1,o),
(391,21,q),
(268,386,l),
(272,416,l),
(466,732,l)
);
},
{
closed = 1;
nodes = (
(278,768,o),
(274,730,q),
(247,432,l),
(191,22,l),
(187,-3,o),
(180,-9.5,q),
(173,-16,o),
(147.5,-16,q),
(122,-16,o),
(101,-13.5,q),
(80,-11,o),
(63.5,-2,q),
(47,7,o),
(49,20,q),
(149,731,l),
(152,753,o),
(164,760.5,q),
(176,768,o),
(206,768,q)
);
}
);
width = 583;
}
);
unicode = 75;
},
{
category = Letter;
glyphname = L;
layers = (
{
layerId = "b692dbeb-fef6-4ff9-be0e-3d959b00990b";
name = Fore;
shapes = (
{
closed = 1;
nodes = (
(440,121,o),
(440,93,q),
(440,65,o),
(430.5,39.5,q),
(421,14,o),
(410,7,q),
(399,0,o),
(383,0,q),
(61,0,l),
(47,16,l),
(147,731,l),
(150,753,o),
(161.5,760.5,q),
(173,768,o),
(203,768,q),
(275,768,o),
(271,732,q),
(244,432,l),
(202,121,l),
(396,121,l)
);
}
);
width = 435;
}
);
unicode = 76;
},
{
category = Letter;
glyphname = M;
layers = (
{
layerId = "b692dbeb-fef6-4ff9-be0e-3d959b00990b";
name = Fore;
shapes = (
{
closed = 1;
nodes = (
(47,-16,o),
(52,21,q),
(152,730,l),
(157,768,o),
(226,768,q),
(295,768,o),
(304,731,q),
(369,473,l),
(511,732,l),
(522,754,o),
(534.5,761,q),
(547,768,o),
(576,768,q),
(648,768,o),
(644,729,q),
(618,431,l),
(561,28,l),
(557,-1,o),
(550.5,-8.5,q),
(544,-16,o),
(518,-16,q),
(492,-16,o),
(476.5,-15,q),
(461,-14,o),
(446,-10,q),
(417,-4,o),
(419,21,q),
(483,475,l),
(401,354,l),
(300,354,l),
(256,473,l),
(193,22,l),
(189,-3,o),
(182,-9.5,q),
(175,-16,o),
(147,-16,q)
);
}
);
width = 597;
}
);
unicode = 77;
},
{
category = Letter;
glyphname = N;
layers = (
{
layerId = "b692dbeb-fef6-4ff9-be0e-3d959b00990b";
name = Fore;
shapes = (
{
closed = 1;
nodes = (
(245,768,o),
(253.5,767,q),
(262,766,o),
(274,757.5,q),
(286,749,o),
(294,733,q),
(413,313,l),
(466,732,l),
(471,768,o),
(543,768,q),
(573,768,o),
(582,761.5,q),
(591,755,o),
(591,745.5,q),
(591,736,o),
(591,732,q),
(565,431,l),
(507,21,l),
(504,-3,o),
(497,-9.5,q),
(490,-16,o),
(462,-16,q),
(397,-16,o),
(389,21,q),
(251,436,l),
(194,22,l),
(190,-3,o),
(183,-9.5,q),
(176,-16,o),
(148,-16,q),
(48,-16,o),
(54,24,q),
(153,731,l),
(158,768,o),
(230,768,q)
);
}
);
width = 543;
}
);
unicode = 78;
},
{
category = Letter;
glyphname = O;
layers = (
{
layerId = "b692dbeb-fef6-4ff9-be0e-3d959b00990b";
name = Fore;
shapes = (
{
closed = 1;
nodes = (
(303,768,o),
(393.5,768,q),
(484,768,o),
(529,750.5,q),
(574,733,o),
(600.5,688.5,q),
(627,644,o),
(627,568.5,q),
(627,493,o),
(612,371,q),
(581,152,o),
(513,68,q),
(445,-16,o),
(296,-16,q),
(147,-16,o),
(102,68,q),
(76,118,o),
(76,199.5,q),
(76,281,o),
(89,371,q),
(111,531,o),
(147.5,615.5,q),
(184,700,o),
(243.5,734,q)
);
},
{
closed = 1;
nodes = (
(408,662,o),
(383,658.5,q),
(358,655,o),
(337,641.5,q),
(316,628,o),
(304.5,611.5,q),
(293,595,o),
(282,558,q),
(267,508,o),
(250,383,q),
(228,232,o),
(228,180.5,q),
(228,129,o),
(234.5,112.5,q),
(241,96,o),
(258,96,q),
(299,96,o),
(321.5,97.5,q),
(344,99,o),
(366.5,110.5,q),
(389,122,o),
(399,136,q),
(409,150,o),
(420,186,q),
(445,263,o),
(469,474,q),
(477,541,o),
(477,601.5,q),
(477,662,o),
(448,662,q)
);
}
);
width = 597;
}
);
unicode = 79;
},
{
category = Letter;
glyphname = P;
layers = (
{
layerId = "b692dbeb-fef6-4ff9-be0e-3d959b00990b";
name = Fore;
shapes = (
{
closed = 1;
nodes = (
(472,768,o),
(518,711,q),
(551,670,o),
(551,594,q),
(551,513,o),
(524,444,q),
(495,367,o),
(446,335,q),
(395,301,o),
(349,294,q),
(290,284,o),
(215,284,q),
(179,23,l),
(175,-3,o),
(168,-9.5,q),
(161,-16,o),
(133,-16,q),
(48,-16,o),
(54,22,q),
(156,752,l),
(259,768,o),
(336,768,q)
);
},
{
closed = 1;
nodes = (
(237,421,o),
(245,421,q),
(252,421,l),
(296,421,o),
(316,423,q),
(336,425,o),
(357,435.5,q),
(378,446,o),
(387,469,q),
(405,514,o),
(405,554.5,q),
(405,595,o),
(396,622,q),
(387,649,o),
(369,649,q),
(298,649,o),
(282,646,q),
(266,643,o),
(263,626,q),
(237,436,l),
(237,427,l)
);
}
);
width = 477;
}
);
unicode = 80;
},
{
category = Letter;
glyphname = Q;
layers = (
{
layerId = "b692dbeb-fef6-4ff9-be0e-3d959b00990b";
name = Fore;
shapes = (
{
closed = 1;
nodes = (
(298,768,o),
(388.5,768,q),
(479,768,o),
(524,750.5,q),
(569,733,o),
(595.5,688.5,q),
(622,644,o),
(622,568.5,q),
(622,493,o),
(607,371,q),
(576,152,o),
(508,68,q),
(440,-16,o),
(291,-16,q),
(142,-16,o),
(98,68,q),
(71,118,o),
(71,199.5,q),
(71,281,o),
(84,371,q),
(106,531,o),
(142.5,615.5,q),
(179,700,o),
(238.5,734,q)
);
},
{
closed = 1;
nodes = (
(403,662,o),
(378,658.5,q),
(353,655,o),
(332,641.5,q),
(311,628,o),
(299.5,611.5,q),
(288,595,o),
(277,558,q),
(262,508,o),
(245,383,q),
(223,232,o),
(223,180.5,q),
(223,129,o),
(229.5,112.5,q),
(236,96,o),
(253,96,q),
(294,96,o),
(316.5,97.5,q),
(339,99,o),
(361.5,110.5,q),
(384,122,o),
(394,136,q),
(404,150,o),
(416,186,q),
(440,263,o),
(464,474,q),
(472,541,o),
(472,601.5,q),
(472,662,o),
(443,662,q)
);
},
{
closed = 1;
nodes = (
(457,-187,o),
(412,-187,q),
(367,-187,o),
(263,-176,q),
(159,-165,o),
(103,-165,q),
(94,-116,l),
(103,-56,o),
(173,-56,q),
(223,-56,o),
(323,-66,q),
(423,-76,o),
(478,-76,q),
(495,-133,l),
(490,-165,o),
(473.5,-176,q)
);
}
);
width = 589;
}
);
unicode = 81;
},
{
category = Letter;
glyphname = R;
layers = (
{
layerId = "b692dbeb-fef6-4ff9-be0e-3d959b00990b";
name = Fore;
shapes = (
{
closed = 1;
nodes = (
(467,768,o),
(513,716,q),
(547,678,o),
(547,604,q),
(547,576,o),
(542,544,q),
(519,377,o),
(416,320,q),
(502,35,l),
(508,14,o),
(508,5,q),
(508,-4,o),
(506,-7,q),
(500,-16,o),
(470,-16,q),
(373,-16,o),
(362,22,q),
(285,286,l),
(259,284,o),
(209,284,q),
(173,26,l),
(169,-2,o),
(162.5,-9,q),
(156,-16,o),
(127,-16,q),
(47,-16,o),
(47,19,q),
(47,21,o),
(47,24,q),
(149,752,l),
(253,768,o),
(328,768,q)
);
},
{
closed = 1;
nodes = (
(231,421,o),
(238,421,q),
(245,421,l),
(325,421,o),
(356,443.5,q),
(387,466,o),
(398,545,q),
(401,563,o),
(401,583.5,q),
(401,604,o),
(393,621,q),
(382,649,o),
(363,649,q),
(291,649,o),
(275.5,646,q),
(260,643,o),
(257,626,q),
(231,436,l),
(231,427,l)
);
}
);
width = 532;
}
);
unicode = 82;
},
{
category = Letter;
glyphname = S;
layers = (
{
layerId = "b692dbeb-fef6-4ff9-be0e-3d959b00990b";
name = Fore;
shapes = (
{
closed = 1;
nodes = (
(42,96,o),
(42,110,q),
(42,124,o),
(69.5,148.5,q),
(97,173,o),
(104.5,175,q),
(112,177,o),
(119,177,q),
(126,177,o),
(141,168,q),
(208,110,o),
(263.5,110,q),
(319,110,o),
(340,136.5,q),
(361,163,o),
(367,210,q),
(368,216,o),
(368,221,q),
(368,250,o),
(343.5,274,q),
(319,298,o),
(256,335,q),
(193,372,o),
(153.5,426,q),
(114,480,o),
(114,531,q),
(114,542,o),
(116,553,q),
(132,665,o),
(197.5,716.5,q),
(263,768,o),
(376,768,q),
(445,768,o),
(507,735,q),
(520,729,o),
(525,725,q),
(537,717,o),
(537,707,q),
(537,697,o),
(531,688,q),
(504,634,o),
(497,629,q),
(490,624,o),
(480,624,q),
(470,624,o),
(426.5,640.5,q),
(383,657,o),
(352,657,q),
(321,657,o),
(297,635,q),
(273,613,o),
(267,572,q),
(266,566,o),
(266,560,q),
(266,528,o),
(295.5,498,q),
(325,468,o),
(394,433,q),
(468,392,o),
(497,353,q),
(526,314,o),
(526,263,q),
(526,247,o),
(524,230,q),
(489,-16,o),
(281,-16,q),
(126,-16,o),
(57,73,q)
);
}
);
width = 522;
}
);
unicode = 83;
},
{
category = Letter;
glyphname = T;
layers = (
{
layerId = "b692dbeb-fef6-4ff9-be0e-3d959b00990b";
name = Fore;
shapes = (
{
closed = 1;
nodes = (
(563,752,o),
(563,725,q),
(563,632,o),
(502,632,q),
(390,633,l),
(371,430,l),
(315,23,l),
(311,-3,o),
(304,-9.5,q),
(297,-16,o),
(269,-16,q),
(168,-16,o),
(173,21,q),
(259,632,l),
(134,632,l),
(110,633,o),
(105.5,642.5,q),
(101,652,o),
(101,668,q),
(101,752,o),
(145,752,q),
(509,752,l)
);
}
);
width = 470;
}
);
unicode = 84;
},
{
category = Letter;
glyphname = U;
layers = (
{
layerId = "b692dbeb-fef6-4ff9-be0e-3d959b00990b";
name = Fore;
shapes = (
{
closed = 1;
nodes = (
(281,109,o),
(300.5,110.5,q),
(320,112,o),
(339,122.5,q),
(358,133,o),
(367,147,q),
(376,161,o),
(386.5,194.5,q),
(397,228,o),
(403,265,q),
(409,302,o),
(419,370,q),
(468,722,l),
(472,750,o),
(485,759,q),
(498,768,o),
(536,768,q),
(574,768,o),
(585,757.5,q),
(596,747,o),
(596,728,q),
(596,709,o),
(595,698,q),
(569,429,l),
(546,252,o),
(511,157,q),
(476,62,o),
(421.5,23,q),
(367,-16,o),
(274,-16,q),
(140,-16,o),
(101,68,q),
(79,115,o),
(79,194,q),
(79,273,o),
(93,370,q),
(139,700,l),
(145,743,o),
(159,755.5,q),
(173,768,o),
(212,768,q),
(251,768,o),
(261,756.5,q),
(271,745,o),
(271,725,q),
(271,705,o),
(270,690,q),
(248,431,l),
(222,248,o),
(222,178.5,q),
(222,109,o),
(246,109,q)
);
}
);
width = 550;
}
);
unicode = 85;
},
{
category = Letter;
glyphname = V;
layers = (
{
layerId = "b692dbeb-fef6-4ff9-be0e-3d959b00990b";
name = Fore;
shapes = (
{
closed = 1;
nodes = (
(660,768,o),
(660,742,q),
(660,736,o),
(657,729,q),
(389,21,l),
(380,-2,o),
(371.5,-9,q),
(363,-16,o),
(323,-16,q),
(229,-16,o),
(226,22,q),
(131,731,l),
(127,768,o),
(203,768,q),
(236,768,o),
(253.5,759.5,q),
(271,751,o),
(274,727,q),
(335,194,l),
(530,732,l),
(537,753,o),
(551,760.5,q),
(565,768,o),
(596,768,q)
);
}
);
width = 576;
}
);
unicode = 86;
},
{
category = Letter;
glyphname = W;
layers = (
{
layerId = "b692dbeb-fef6-4ff9-be0e-3d959b00990b";
name = Fore;
shapes = (
{
closed = 1;
nodes = (
(136,768,o),
(207,768,q),
(278,768,o),
(282,731,q),
(342,194,l),
(499,632,l),
(506,652,o),
(520,659,q),
(534,666,o),
(565,666,q),
(645,666,o),
(650,623,q),
(698,194,l),
(892,731,l),
(900,753,o),
(914,760.5,q),
(928,768,o),
(966,768,q),
(1004,768,o),
(1014,763.5,q),
(1024,759,o),
(1024,750,q),
(1024,741,o),
(1021,731,q),
(754,20,l),
(746,-1,o),
(735.5,-8.5,q),
(725,-16,o),
(694.5,-16,q),
(664,-16,o),
(629.5,-7.5,q),
(595,1,o),
(592,20,q),
(536,375,l),
(397,22,l),
(388,0,o),
(377,-8,q),
(366,-16,o),
(336,-16,q),
(306,-16,o),
(271.5,-7.5,q),
(237,1,o),
(235,20,q),
(140,734,l)
);
}
);
width = 948;
}
);
unicode = 87;
},
{
category = Letter;
glyphname = X;
layers = (
{
layerId = "b692dbeb-fef6-4ff9-be0e-3d959b00990b";
name = Fore;
shapes = (
{
closed = 1;
nodes = (
(497,768,o),
(563,768,q),
(629,768,o),
(629,745,q),
(629,737,o),
(623,727,q),
(430,414,l),
(564,21,l),
(572,-2,o),
(565.5,-9,q),
(559,-16,o),
(523.5,-16,q),
(488,-16,o),
(449,-7.5,q),
(410,1,o),
(405,22,q),
(338,282,l),
(198,22,l),
(185,-1,o),
(174.5,-8.5,q),
(164,-16,o),
(144,-16,q),
(56,-16,o),
(39,6,q),
(36,9,o),
(36,13,q),
(36,17,o),
(39,21,q),
(284,415,l),
(179,731,l),
(178,735,o),
(178,739,q),
(178,768,o),
(246.5,768,q),
(315,768,o),
(322,731,q),
(372,522,l),
(480,731,l)
);
}
);
width = 598;
}
);
unicode = 88;
},
{
category = Letter;
glyphname = Y;
layers = (
{
layerId = "b692dbeb-fef6-4ff9-be0e-3d959b00990b";
name = Fore;
shapes = (
{
closed = 1;
nodes = (
(245,-16,o),
(245,17,q),
(245,19,o),
(245,22,q),
(291,349,l),
(126,732,l),
(124,738,o),
(124,743,q),
(124,768,o),
(191.5,768,q),
(259,768,o),
(269,731,q),
(373,492,l),
(526,734,l),
(536,754,o),
(551,761,q),
(566,768,o),
(596,768,q),
(661,768,o),
(661,745,q),
(661,739,o),
(656,731,q),
(408,349,l),
(361,21,l),
(358,-3,o),
(351,-9.5,q),
(344,-16,o),
(316,-16,q)
);
}
);
width = 575;
}
);
unicode = 89;
},
{
category = Letter;
glyphname = Z;
layers = (
{
layerId = "b692dbeb-fef6-4ff9-be0e-3d959b00990b";
name = Fore;
shapes = (
{
closed = 1;
nodes = (
(125,752,o),
(172,752,q),
(574,752,l),
(588,736,l),
(576,648,l),
(225,121,l),
(462,121,l),
(494,120,o),
(504.5,112.5,q),
(515,105,o),
(512,84.5,q),
(509,64,o),
(503.5,47,q),
(498,30,o),
(484,15,q),
(470,0,o),
(450,0,q),
(60,0,l),
(46,16,l),
(61,122,l),
(416,632,l),
(160,632,l),
(134,633,o),
(129.5,642.5,q),
(125,652,o),
(125,668,q)
);
}
);
width = 530;
}
);
unicode = 90;
},
{
category = Letter;
glyphname = bracketleft;
layers = (
{
layerId = "b692dbeb-fef6-4ff9-be0e-3d959b00990b";
name = Fore;
shapes = (
{
closed = 1;
nodes = (
(39,-140,l),
(25,-124,l),
(175,889,l),
(194,905,l),
(454,905,l),
(467,889,l),
(455,797,l),
(436,781,l),
(271,781,l),
(240,431,l),
(179,-16,l),
(316,-16,l),
(330,-32,l),
(317,-124,l),
(299,-140,l)
);
}
);
width = 369;
}
);
unicode = 91;
},
{
category = Letter;
glyphname = backslash;
layers = (
{
layerId = "b692dbeb-fef6-4ff9-be0e-3d959b00990b";
name = Fore;
shapes = (
{
closed = 1;
nodes = (
(347,-114,l),
(343,-146,l),
(207,-146,l),
(120,769,l),
(135,876,l),
(240,876,l)
);
}
);
width = 372;
}
);
unicode = 92;
},
{
category = Letter;
glyphname = bracketright;
layers = (
{
layerId = "b692dbeb-fef6-4ff9-be0e-3d959b00990b";
name = Fore;
shapes = (
{
closed = 1;
nodes = (
(31,-140,l),
(17,-124,l),
(30,-32,l),
(48,-16,l),
(184,-16,l),
(301,781,l),
(152,781,l),
(139,797,l),
(151,889,l),
(170,905,l),
(414,905,l),
(427,889,l),
(383,431,l),
(309,-124,l),
(291,-140,l)
);
}
);
width = 368;
}
);
unicode = 93;
},
{
category = Letter;
glyphname = asciicircum;
layers = (
{
layerId = "b692dbeb-fef6-4ff9-be0e-3d959b00990b";
name = Fore;
shapes = (
{
closed = 1;
nodes = (
(387,524,l),
(278,637,l),
(137,524,l),
(103,556,l),
(123,610,l),
(242,732,l),
(294,752,l),
(340,732,l),
(425,610,l),
(431,556,l)
);
}
);
width = 377;
}
);
unicode = 94;
},
{
category = Letter;
glyphname = underscore;
layers = (
{
layerId = "b692dbeb-fef6-4ff9-be0e-3d959b00990b";
name = Fore;
shapes = (
{
closed = 1;
nodes = (
(45,0,l),
(62,124,l),
(443,124,l),
(457,108,l),
(444,16,l),
(426,0,l)
);
}
);
width = 487;
}
);
unicode = 95;
},
{
category = Letter;
glyphname = grave;
layers = (
{
layerId = "b692dbeb-fef6-4ff9-be0e-3d959b00990b";
name = Fore;
shapes = (
{
closed = 1;
nodes = (
(241,536,l),
(105,708,l),
(221,768,l),
(259,736,l),
(299,612,l),
(290,557,l)
);
}
);
width = 240;
}
);
unicode = 96;
},
{
category = Letter;
glyphname = a;
layers = (
{
layerId = "b692dbeb-fef6-4ff9-be0e-3d959b00990b";
name = Fore;
shapes = (
{
closed = 1;
nodes = (
(70,-16,o),
(44,44,q),
(30,78,o),
(30,133.5,q),
(30,189,o),
(39,256,q),
(61,406,o),
(112,459,q),
(163,512,o),
(283,512,q),
(331,512,l),
(347,504,l),
(349,520,o),
(384,520,q),
(419,520,o),
(441.5,515.5,q),
(464,511,o),
(464,504,q),
(394,0,l),
(393,-6,o),
(391,-8,q),
(385,-16,o),
(362,-16,q),
(339,-16,o),
(328,-15,q),
(317,-14,o),
(308,-12.5,q),
(299,-11,o),
(292,-10,q),
(277,-6,o),
(279,0,q),
(264,31,l),
(233,12,o),
(219,4,q),
(183,-16,o),
(144,-16,q)
);
},
{
closed = 1;
nodes = (
(198,355,o),
(185,263,q),
(172,171,o),
(169.5,143.5,q),
(167,116,o),
(167,98,q),
(167,80,o),
(175,80,q),
(211,80,o),
(276,116,q),
(318,416,l),
(270,416,l),
(233,416,o),
(215.5,385.5,q)
);
}
);
width = 435;
}
);
unicode = 97;
},
{
category = Letter;
glyphname = b;
layers = (
{
layerId = "b692dbeb-fef6-4ff9-be0e-3d959b00990b";
name = Fore;
shapes = (
{
closed = 1;
nodes = (
(419,512,o),
(456,458,q),
(478,425,o),
(478,368.5,q),
(478,312,o),
(470,256,q),
(449,105,o),
(406,44.5,q),
(363,-16,o),
(289,-16,q),
(239,-16,o),
(170,-4,q),
(147,0,l),
(117,-16,o),
(42,-16,q),
(150,752,l),
(152,768,o),
(187,768,q),
(222,768,o),
(244.5,763.5,q),
(267,759,o),
(267,752,q),
(250,512,l),
(298,512,l)
);
},
{
closed = 1;
nodes = (
(302,80,o),
(326,256,q),
(335,318,o),
(335,347,q),
(335,376,o),
(331,387,q),
(322,416,o),
(285,416,q),
(237,416,l),
(190,80,l),
(286,80,l)
);
}
);
width = 451;
}
);
unicode = 98;
},
{
category = Letter;
glyphname = c;
layers = (
{
layerId = "b692dbeb-fef6-4ff9-be0e-3d959b00990b";
name = Fore;
shapes = (
{
closed = 1;
nodes = (
(443,475,o),
(443,463,q),
(443,451,o),
(431,424,q),
(419,397,o),
(411,389.5,q),
(403,382,o),
(396,384,q),
(395,384,l),
(362,398,l),
(336,411,o),
(294,411,q),
(252,411,o),
(236,377,q),
(220,343,o),
(209.5,266,q),
(199,189,o),
(199,158.5,q),
(199,128,o),
(202,115,q),
(212,82,o),
(253,82,q),
(312,82,o),
(346,89,q),
(380,96,o),
(383,96.5,q),
(386,97,o),
(389,94,q),
(397,85,o),
(391,56,q),
(386,4,o),
(368,0,q),
(304,-16,o),
(243,-16,q),
(122,-16,o),
(86,42,q),
(63,78,o),
(63,136,q),
(63,194,o),
(72.5,263.5,q),
(82,333,o),
(98.5,382.5,q),
(115,432,o),
(145,461.5,q),
(175,491,o),
(214,501.5,q),
(253,512,o),
(322.5,512,q),
(392,512,o),
(437,478,q),
(438,478,l)
);
}
);
width = 411;
}
);
unicode = 99;
},
{
category = Letter;
glyphname = d;
layers = (
{
layerId = "b692dbeb-fef6-4ff9-be0e-3d959b00990b";
name = Fore;
shapes = (
{
closed = 1;
nodes = (
(82,-16,o),
(56,44,q),
(42,78,o),
(42,133.5,q),
(42,189,o),
(51,256,q),
(73,406,o),
(124,459,q),
(175,512,o),
(295,512,q),
(343,512,l),
(377,752,l),
(379,768,o),
(414,768,q),
(449,768,o),
(471.5,763.5,q),
(494,759,o),
(494,752,q),
(466,433,l),
(406,0,l),
(405,-6,o),
(403,-8,q),
(397,-16,o),
(374,-16,q),
(351,-16,o),
(340,-15,q),
(329,-14,o),
(320,-12.5,q),
(311,-11,o),
(304,-10,q),
(289,-6,o),
(291,0,q),
(276,31,l),
(245,12,o),
(231,4,q),
(195,-16,o),
(156,-16,q)
);
},
{
closed = 1;
nodes = (
(210,355,o),
(197,263,q),
(184,171,o),
(181.5,143.5,q),
(179,116,o),
(179,98,q),
(179,80,o),
(187,80,q),
(223,80,o),
(288,116,q),
(330,416,l),
(282,416,l),
(245,416,o),
(227.5,385.5,q)
);
}
);
width = 451;
}
);
unicode = 100;
},
{
category = Letter;
glyphname = e;
layers = (
{
layerId = "b692dbeb-fef6-4ff9-be0e-3d959b00990b";
name = Fore;
shapes = (
{
closed = 1;
nodes = (
(116,-16,o),
(83,42,q),
(63,77,o),
(63,134.5,q),
(63,192,o),
(71,250,q),
(93,408,o),
(140,460,q),
(187,512,o),
(287,512,q),
(387,512,o),
(422.5,479,q),
(458,446,o),
(458,351,q),
(458,288,o),
(433,258,q),
(403,223,o),
(211,223,q),
(203,155,o),
(203,132.5,q),
(203,110,o),
(204,104,q),
(209,82,o),
(237,82,q),
(366,82,o),
(418,95,q),
(419,95,o),
(422.5,96,q),
(426,97,o),
(429,94,q),
(437,85,o),
(431,56,q),
(426,4,o),
(408,0,q),
(364,-16,o),
(223,-16,q)
);
},
{
closed = 1;
nodes = (
(327,419,o),
(316,419,q),
(282,419,o),
(258.5,409,q),
(235,399,o),
(233,381,q),
(222,303,l),
(291,303,o),
(309,312.5,q),
(327,322,o),
(327,356,q)
);
}
);
width = 454;
}
);
unicode = 101;
},
{
category = Letter;
glyphname = f;
layers = (
{
layerId = "b692dbeb-fef6-4ff9-be0e-3d959b00990b";
name = Fore;
shapes = (
{
closed = 1;
nodes = (
(64,416,o),
(64,424,q),
(64,434,l),
(70,476,o),
(86,480,q),
(168,496,l),
(191,658,o),
(241,713,q),
(291,768,o),
(413,768,q),
(488,768,o),
(533,734,q),
(534,734,l),
(540,730,o),
(540,719.5,q),
(540,709,o),
(531,685.5,q),
(522,662,o),
(512,648.5,q),
(502,635,o),
(495,638,q),
(493,638,o),
(493,639,q),
(458,654,l),
(432,667,o),
(390.5,667,q),
(349,667,o),
(332,629.5,q),
(315,592,o),
(301,496,q),
(397,496,l),
(409,496,o),
(409,473,q),
(409,466,o),
(408,456,q),
(402,416,o),
(386,416,q),
(298,416,l),
(208,-224,l),
(207,-230,o),
(206,-232,q),
(201,-240,o),
(167,-240,q),
(133,-240,o),
(99.5,-235,q),
(66,-230,o),
(67,-224,q),
(157,416,l),
(77,416,l)
);
}
);
width = 369;
}
);
unicode = 102;
},
{
category = Letter;
glyphname = g;
layers = (
{
layerId = "b692dbeb-fef6-4ff9-be0e-3d959b00990b";
name = Fore;
shapes = (
{
closed = 1;
nodes = (
(143,-135,o),
(196,-135,q),
(249,-135,o),
(262.5,-127,q),
(276,-119,o),
(282,-81,q),
(292,16,l),
(241,-15,o),
(164,-15,q),
(87,-15,o),
(60,38,q),
(43,71,o),
(43,117.5,q),
(43,164,o),
(49,209,q),
(67,335,o),
(95,399,q),
(123,463,o),
(169.5,487.5,q),
(216,512,o),
(299,512,q),
(361,512,l),
(411,512,o),
(463,498,q),
(479,493,l),
(400,-81,l),
(391,-165,o),
(341.5,-202.5,q),
(292,-240,o),
(174,-240,q),
(118,-240,o),
(38,-224,q),
(30,-222,o),
(28.5,-217,q),
(27,-212,o),
(27,-204,q),
(27,-196,o),
(29,-178,q),
(37,-125,o),
(51,-125,q),
(51,-125,o),
(52,-125,q),
(53,-125,l)
);
},
{
closed = 1;
nodes = (
(185,151,o),
(184,134.5,q),
(183,118,o),
(183,99.5,q),
(183,81,o),
(191,81,q),
(241,81,o),
(306,117,q),
(348,417,l),
(286,417,l),
(260,417,o),
(246,404,q),
(217,377,o),
(193,209,q),
(190,187,o),
(187.5,169,q)
);
}
);
width = 486;
}
);
unicode = 103;
},
{
category = Letter;
glyphname = h;
layers = (
{
layerId = "b692dbeb-fef6-4ff9-be0e-3d959b00990b";
name = Fore;
shapes = (
{
closed = 1;
nodes = (
(449,512,o),
(478,466,q),
(495,437,o),
(495,392,q),
(495,347,o),
(489,304,q),
(447,0,l),
(446,-6,o),
(444,-8,q),
(438,-16,o),
(410.5,-16,q),
(383,-16,o),
(360,-14,q),
(302,-9,o),
(304,0,q),
(345,304,l),
(354,360,o),
(354,388,q),
(354,416,o),
(345,416,q),
(309,416,o),
(244,380,q),
(191,0,l),
(190,-6,o),
(188,-8,q),
(182,-16,o),
(154.5,-16,q),
(127,-16,o),
(104,-14,q),
(45,-9,o),
(47,0,q),
(152,752,l),
(154,768,o),
(189.5,768,q),
(225,768,o),
(250.5,763.5,q),
(276,759,o),
(276,752,q),
(254,463,l),
(336,512,o),
(375,512,q)
);
}
);
width = 464;
}
);
unicode = 104;
},
{
category = Letter;
glyphname = i;
layers = (
{
layerId = "b692dbeb-fef6-4ff9-be0e-3d959b00990b";
name = Fore;
shapes = (
{
closed = 1;
nodes = (
(120,512,o),
(156,512,q),
(192,512,o),
(223.5,507,q),
(255,502,o),
(254,496,q),
(185,0,l),
(184,-6,o),
(182,-8,q),
(176,-16,o),
(149,-16,q),
(122,-16,o),
(100,-14,q),
(47,-9,o),
(49,0,q),
(118,496,l)
);
},
{
closed = 1;
nodes = (
(281,768,o),
(281,712,q),
(281,705,o),
(280,696,q),
(270,624,o),
(198,624,q),
(135,624,o),
(135,680,q),
(135,687,o),
(136,696,q),
(146,768,o),
(218,768,q)
);
}
);
width = 227;
}
);
unicode = 105;
},
{
category = Letter;
glyphname = j;
layers = (
{
layerId = "b692dbeb-fef6-4ff9-be0e-3d959b00990b";
name = Fore;
shapes = (
{
closed = 1;
nodes = (
(112,512,o),
(148,512,q),
(184,512,o),
(214.5,507,q),
(245,502,o),
(244,496,q),
(143,-224,l),
(142,-230,o),
(140,-232,q),
(136,-240,o),
(103.5,-240,q),
(71,-240,o),
(48,-235.5,q),
(25,-231,o),
(25,-224,q),
(41,0,l),
(110,496,l)
);
},
{
closed = 1;
nodes = (
(276,768,o),
(276,712,q),
(276,705,o),
(275,696,q),
(265,624,o),
(193,624,q),
(130,624,o),
(130,680,q),
(130,687,o),
(131,696,q),
(141,768,o),
(213,768,q)
);
}
);
width = 216;
}
);
unicode = 106;
},
{
category = Letter;
glyphname = k;
layers = (
{
layerId = "b692dbeb-fef6-4ff9-be0e-3d959b00990b";
name = Fore;
shapes = (
{
closed = 1;
nodes = (
(385,-19,l),
(341,-19,o),
(336,0,q),
(249,302,l),
(293,305,o),
(318,321,q),
(351,342,o),
(351,395,q),
(351,418,o),
(344.5,427,q),
(338,436,o),
(332,436,q),
(265,436,o),
(243,434,q),
(243,431,l),
(183,0,l),
(182,-6,o),
(180,-8,q),
(174,-16,o),
(147,-16,q),
(120,-16,o),
(98,-14,q),
(45,-9,o),
(47,0,q),
(152,752,l),
(154,768,o),
(189,768,q),
(224,768,o),
(246.5,763.5,q),
(269,759,o),
(269,752,q),
(251,528,l),
(280,531,o),
(311,531,q),
(408,531,o),
(440,495,q),
(464,469,o),
(464,417,q),
(464,398,o),
(461,375,q),
(445,260,o),
(390,224,q),
(429,101,o),
(439.5,70.5,q),
(450,40,o),
(455,25,q),
(462,6,l),
(463,1,o),
(463,-1,q),
(460,-18,o),
(429,-18,q)
);
}
);
width = 486;
}
);
unicode = 107;
},
{
category = Letter;
glyphname = l;
layers = (
{
layerId = "b692dbeb-fef6-4ff9-be0e-3d959b00990b";
name = Fore;
shapes = (
{
closed = 1;
nodes = (
(158,-16,o),
(138.5,-16,q),
(119,-16,o),
(98,-14,q),
(45,-9,o),
(47,0,q),
(152,752,l),
(154,768,o),
(189,768,q),
(224,768,o),
(246.5,763.5,q),
(269,759,o),
(269,752,q),
(242,431,l),
(182,0,l),
(181,-6,o),
(179,-8.5,q),
(177,-11,o),
(167.5,-13.5,q)
);
}
);
width = 222;
}
);
unicode = 108;
},
{
category = Letter;
glyphname = m;
layers = (
{
layerId = "b692dbeb-fef6-4ff9-be0e-3d959b00990b";
name = Fore;
shapes = (
{
closed = 1;
nodes = (
(610,416,o),
(601,416,q),
(567,416,o),
(494,377,q),
(494,338,o),
(489,304,q),
(447,0,l),
(446,-6,o),
(444,-8,q),
(438,-16,o),
(410.5,-16,q),
(383,-16,o),
(360,-14,q),
(301,-9,o),
(303,0,q),
(350,341,l),
(354,371,o),
(354,393.5,q),
(354,416,o),
(345,416,q),
(309,416,o),
(244,380,q),
(191,0,l),
(190,-6,o),
(188,-8,q),
(182,-16,o),
(154.5,-16,q),
(127,-16,o),
(104,-14,q),
(45,-9,o),
(47,0,q),
(116,496,l),
(118,512,o),
(169.5,512,q),
(221,512,o),
(228,496,q),
(228,494,o),
(229,494,q),
(243,456,l),
(334,512,o),
(375,512,q),
(463,512,o),
(485,448,q),
(587,512,o),
(631,512,q),
(705,512,o),
(734,466,q),
(751,437,o),
(751,392,q),
(751,347,o),
(745,304,q),
(703,0,l),
(702,-6,o),
(700,-8,q),
(694,-16,o),
(666.5,-16,q),
(639,-16,o),
(616,-14,q),
(557,-9,o),
(559,0,q),
(601,304,l),
(610,360,o),
(610,388,q)
);
}
);
width = 745;
}
);
unicode = 109;
},
{
category = Letter;
glyphname = n;
layers = (
{
layerId = "b692dbeb-fef6-4ff9-be0e-3d959b00990b";
name = Fore;
shapes = (
{
closed = 1;
nodes = (
(449,512,o),
(478,466,q),
(495,437,o),
(495,392,q),
(495,347,o),
(489,304,q),
(447,0,l),
(446,-6,o),
(444,-8,q),
(438,-16,o),
(410.5,-16,q),
(383,-16,o),
(360,-14,q),
(302,-9,o),
(304,0,q),
(345,304,l),
(354,360,o),
(354,388,q),
(354,416,o),
(345,416,q),
(309,416,o),
(244,380,q),
(191,0,l),
(190,-6,o),
(188,-8,q),
(182,-16,o),
(154.5,-16,q),
(127,-16,o),
(104,-14,q),
(45,-9,o),
(47,0,q),
(116,496,l),
(118,512,o),
(169.5,512,q),
(221,512,o),
(228,496,q),
(228,494,o),
(229,494,q),
(243,456,l),
(334,512,o),
(375,512,q)
);
}
);
width = 488;
}
);
unicode = 110;
},
{
category = Letter;
glyphname = o;
layers = (
{
layerId = "b692dbeb-fef6-4ff9-be0e-3d959b00990b";
name = Fore;
shapes = (
{
closed = 1;
nodes = (
(356,512,o),
(386.5,505.5,q),
(417,499,o),
(440,482,q),
(463,465,o),
(471,436,q),
(481,397,o),
(481,350.5,q),
(481,304,o),
(472,250,q),
(451,100,o),
(399.5,42,q),
(348,-16,o),
(234,-16,q),
(120,-16,o),
(86,42,q),
(64,77,o),
(64,135,q),
(64,193,o),
(72,250,q),
(94,409,o),
(142.5,460.5,q),
(191,512,o),
(308,512,q)
);
},
{
closed = 1;
nodes = (
(223,361,o),
(210.5,269.5,q),
(198,178,o),
(198,130,q),
(198,82,o),
(216,82,q),
(249,82,o),
(264.5,86,q),
(280,90,o),
(293.5,109,q),
(307,128,o),
(313,157.5,q),
(319,187,o),
(328.5,253,q),
(338,319,o),
(338,367.5,q),
(338,416,o),
(319,416,q),
(259,416,o),
(241,388.5,q)
);
}
);
width = 474;
}
);
unicode = 111;
},
{
category = Letter;
glyphname = p;
layers = (
{
layerId = "b692dbeb-fef6-4ff9-be0e-3d959b00990b";
name = Fore;
shapes = (
{
closed = 1;
nodes = (
(438,512,o),
(464,452,q),
(478,418,o),
(478,362.5,q),
(478,307,o),
(469,240,q),
(448,91,o),
(397,37.5,q),
(346,-16,o),
(225,-16,q),
(177,-16,l),
(148,-224,l),
(147,-230,o),
(145,-232,q),
(141,-240,o),
(107.5,-240,q),
(74,-240,o),
(43.5,-235,q),
(13,-230,o),
(14,-224,q),
(115,496,l),
(117,512,o),
(163.5,512,q),
(210,512,o),
(217,496,q),
(232,456,l),
(323,512,o),
(364,512,q)
);
},
{
closed = 1;
nodes = (
(311,141,o),
(326,247.5,q),
(341,354,o),
(341,384,q),
(341,414,o),
(334,416,q),
(298,416,o),
(233,380,q),
(191,80,l),
(239,80,l),
(276,80,o),
(293.5,110.5,q)
);
}
);
width = 453;
}
);
unicode = 112;
},
{
category = Letter;
glyphname = q;
layers = (
{
layerId = "b692dbeb-fef6-4ff9-be0e-3d959b00990b";
name = Fore;
shapes = (
{
closed = 1;
nodes = (
(237,-15,o),
(160,-15,q),
(83,-15,o),
(55,38,q),
(39,71,o),
(39,117.5,q),
(39,164,o),
(45,209,q),
(63,335,o),
(91,399,q),
(119,463,o),
(165.5,487.5,q),
(212,512,o),
(295,512,q),
(357,512,l),
(407,512,o),
(459,498,q),
(475,493,l),
(374,-224,l),
(373,-230,o),
(371,-232,q),
(367,-240,o),
(334,-240,q),
(301,-240,o),
(278,-235.5,q),
(255,-231,o),
(256,-224,q),
(288,16,l)
);
},
{
closed = 1;
nodes = (
(181,151,o),
(180,134.5,q),
(179,118,o),
(179,99.5,q),
(179,81,o),
(187,81,q),
(237,81,o),
(302,117,q),
(344,417,l),
(282,417,l),
(256,417,o),
(241,404,q),
(213,377,o),
(189,209,q),
(186,187,o),
(183.5,169,q)
);
}
);
width = 453;
}
);
unicode = 113;
},
{
category = Letter;
glyphname = r;
layers = (
{
layerId = "b692dbeb-fef6-4ff9-be0e-3d959b00990b";
name = Fore;
shapes = (
{
closed = 1;
nodes = (
(316,512,o),
(343,512,q),
(370,512,o),
(390,502,q),
(410,492,o),
(418,482,q),
(427,473,l),
(404,409,o),
(393,393,q),
(382,377,o),
(368.5,377,q),
(355,377,o),
(336,388,q),
(317,399,o),
(300,399,q),
(283,399,o),
(227,368,q),
(176,0,l),
(175,-6,o),
(173,-8,q),
(167,-16,o),
(140,-16,q),
(113,-16,o),
(93,-14,q),
(45,-9,o),
(47,0,q),
(116,496,l),
(118,512,o),
(163,512,q),
(208,512,o),
(213,496,q),
(213,494,l),
(228,456,l)
);
}
);
width = 368;
}
);
unicode = 114;
},
{
category = Letter;
glyphname = s;
layers = (
{
layerId = "b692dbeb-fef6-4ff9-be0e-3d959b00990b";
name = Fore;
shapes = (
{
closed = 1;
nodes = (
(410,175,o),
(409,168,q),
(398,85,o),
(346.5,34.5,q),
(295,-16,o),
(219.5,-16,q),
(144,-16,o),
(104,4,q),
(64,24,o),
(40,61,q),
(37,63,o),
(37,66,q),
(37,77,o),
(65.5,106.5,q),
(94,136,o),
(107,136,q),
(110,136,o),
(114,132,q),
(161,90,o),
(211,90,q),
(239,90,o),
(257,107.5,q),
(275,125,o),
(275,143,q),
(275,161,o),
(262,173,q),
(242,189,o),
(192,214,q),
(89,269,o),
(89,345,q),
(89,352,o),
(90,360,q),
(101,440,o),
(147.5,476,q),
(194,512,o),
(279,512,q),
(364,512,o),
(405,478,q),
(406,478,l),
(413,473,o),
(413,462,q),
(413,451,o),
(408,436,q),
(389,378,o),
(375,378,q),
(373,378,o),
(370,380,q),
(335,399,l),
(293,416,o),
(263,416,q),
(218,414,o),
(212,373,q),
(210,357,o),
(226,347,q),
(242,337,o),
(252.5,331.5,q),
(263,326,o),
(283,316,q),
(353,283,o),
(381.5,247.5,q),
(410,212,o),
(410,181,q)
);
}
);
width = 415;
}
);
unicode = 115;
},
{
category = Letter;
glyphname = t;
layers = (
{
layerId = "b692dbeb-fef6-4ff9-be0e-3d959b00990b";
name = Fore;
shapes = (
{
closed = 1;
nodes = (
(58,416,o),
(58,424,q),
(58,434,l),
(64,476,o),
(80,480,q),
(162,496,l),
(234,609,l),
(247,624,o),
(282,624,q),
(294,624,o),
(295.5,581,q),
(297,538,o),
(298,496,q),
(394,496,l),
(406,496,o),
(406,473,q),
(406,466,o),
(405,456,q),
(399,416,o),
(383,416,q),
(286,416,l),
(241,98,l),
(241,-16,l),
(241,-21,o),
(239,-24,q),
(234,-32,o),
(188.5,-32,q),
(143,-32,o),
(138,-16,q),
(138,-14,l),
(104,81,l),
(151,416,l),
(71,416,l)
);
}
);
width = 337;
}
);
unicode = 116;
},
{
category = Letter;
glyphname = u;
layers = (
{
layerId = "b692dbeb-fef6-4ff9-be0e-3d959b00990b";
name = Fore;
shapes = (
{
closed = 1;
nodes = (
(108,-16,o),
(80,30,q),
(62,59,o),
(62,104.5,q),
(62,150,o),
(68,192,q),
(111,496,l),
(113,512,o),
(149.5,512,q),
(186,512,o),
(220.5,507,q),
(255,502,o),
(254,496,q),
(212,192,l),
(205,138,o),
(205,109,q),
(205,80,o),
(213,80,q),
(249,80,o),
(314,116,q),
(367,496,l),
(369,512,o),
(405.5,512,q),
(442,512,o),
(477,507,q),
(512,502,o),
(511,496,q),
(442,0,l),
(441,-6,o),
(439,-8,q),
(433,-16,o),
(385,-16,q),
(337,-16,o),
(330,0,q),
(329,1,l),
(313,31,l),
(237,-16,o),
(182,-16,q)
);
}
);
width = 487;
}
);
unicode = 117;
},
{
category = Letter;
glyphname = v;
layers = (
{
layerId = "b692dbeb-fef6-4ff9-be0e-3d959b00990b";
name = Fore;
shapes = (
{
closed = 1;
nodes = (
(401,512,o),
(435,512,q),
(469,512,o),
(495,507,q),
(521,502,o),
(519,496,q),
(324,0,l),
(317,-16,o),
(282,-16,q),
(247,-16,o),
(210,-11,q),
(173,-6,o),
(172,0,q),
(93,494,l),
(93,496,l),
(91,503,o),
(102,507.5,q),
(113,512,o),
(140,512,q),
(167,512,o),
(197.5,507,q),
(228,502,o),
(229,496,q),
(266,122,l),
(396,496,l)
);
}
);
width = 470;
}
);
unicode = 118;
},
{
category = Letter;
glyphname = w;
layers = (
{
layerId = "b692dbeb-fef6-4ff9-be0e-3d959b00990b";
name = Fore;
shapes = (
{
closed = 1;
nodes = (
(403,432,o),
(418.5,432,q),
(434,432,o),
(464.5,427.5,q),
(495,423,o),
(496,416,q),
(527,143,l),
(654,496,l),
(659,512,o),
(693,512,q),
(727,512,o),
(753,507,q),
(779,502,o),
(777,496,q),
(582,0,l),
(575,-16,o),
(540,-16,q),
(505,-16,o),
(468,-11,q),
(431,-6,o),
(430,0,q),
(401,180,l),
(331,0,l),
(324,-16,o),
(289,-16,q),
(254,-16,o),
(217,-11,q),
(180,-6,o),
(179,0,q),
(100,494,l),
(100,496,l),
(98,503,o),
(109,507.5,q),
(120,512,o),
(147,512,q),
(174,512,o),
(204.5,507,q),
(235,502,o),
(236,496,q),
(276,145,l),
(373,416,l),
(375,423,o),
(376.5,424.5,q),
(378,426,o),
(382.5,428,q),
(387,430,o),
(395,431,q)
);
}
);
width = 734;
}
);
unicode = 119;
},
{
category = Letter;
glyphname = x;
layers = (
{
layerId = "b692dbeb-fef6-4ff9-be0e-3d959b00990b";
name = Fore;
shapes = (
{
closed = 1;
nodes = (
(494,512,o),
(512,500,q),
(514,496,l),
(372,261,l),
(487,0,l),
(491,-10,o),
(470,-14,q),
(459,-16,o),
(435,-16,q),
(411,-16,o),
(376,-11,q),
(341,-6,o),
(339,0,q),
(338,0,o),
(338,1,q),
(278,144,l),
(178,1,l),
(178,0,l),
(173,-7,o),
(171,-9,q),
(164,-16,o),
(112.5,-16,q),
(61,-16,o),
(32,-5,q),
(26,-2,o),
(28,0,q),
(217,261,l),
(117,496,l),
(113,506,o),
(134,510,q),
(144,512,o),
(167,512,q),
(190,512,o),
(219.5,507,q),
(249,502,o),
(252,496,q),
(252,495,l),
(304,362,l),
(383,494,l),
(392,512,o),
(426,512,q)
);
}
);
width = 517;
}
);
unicode = 120;
},
{
category = Letter;
glyphname = y;
layers = (
{
layerId = "b692dbeb-fef6-4ff9-be0e-3d959b00990b";
name = Fore;
shapes = (
{
closed = 1;
nodes = (
(91,512,o),
(143,512,q),
(170,512,o),
(200.5,507,q),
(231,502,o),
(232,496,q),
(273,154,l),
(399,496,l),
(404,512,o),
(438,512,q),
(472,512,o),
(497,507,q),
(522,502,o),
(522,497,q),
(221,-224,l),
(216,-240,o),
(179,-240,q),
(114,-240,o),
(106,-227,q),
(104,-223,o),
(108,-219,q),
(190,0,l),
(96,494,l),
(96,496,l)
);
}
);
width = 460;
}
);
unicode = 121;
},
{
category = Letter;
glyphname = z;
layers = (
{
layerId = "b692dbeb-fef6-4ff9-be0e-3d959b00990b";
name = Fore;
shapes = (
{
closed = 1;
nodes = (
(93,390,o),
(93,406.5,q),
(93,423,o),
(97,443,q),
(105,496,o),
(119,496,q),
(415,496,l),
(429,480,l),
(416,390,l),
(203,112,l),
(393,112,l),
(405,112,o),
(405,89,q),
(405,82,o),
(404,72,q),
(393,2,o),
(378,0,q),
(58,0,l),
(44,16,l),
(55,96,l),
(290,390,l),
(104,390,l)
);
}
);
width = 420;
}
);
unicode = 122;
},
{
category = Letter;
glyphname = braceleft;
layers = (
{
layerId = "b692dbeb-fef6-4ff9-be0e-3d959b00990b";
name = Fore;
shapes = (
{
closed = 1;
nodes = (
(304,509,l),
(189,384,l),
(270,259,l),
(232,-22,l),
(368,-22,l),
(382,-38,l),
(367,-146,l),
(91,-146,l),
(77,-130,l),
(136,269,l),
(72,384,l),
(171,501,l),
(231,905,l),
(507,905,l),
(520,889,l),
(505,781,l),
(324,781,l)
);
}
);
width = 426;
}
);
unicode = 123;
},
{
category = Letter;
glyphname = bar;
layers = (
{
layerId = "b692dbeb-fef6-4ff9-be0e-3d959b00990b";
name = Fore;
shapes = (
{
closed = 1;
nodes = (
(177,905,l),
(277,905,l),
(290,889,l),
(242,432,l),
(161,-146,l),
(37,-146,l),
(23,-130,l)
);
}
);
width = 224;
}
);
unicode = 124;
},
{
category = Letter;
glyphname = braceright;
layers = (
{
layerId = "b692dbeb-fef6-4ff9-be0e-3d959b00990b";
name = Fore;
shapes = (
{
closed = 1;
nodes = (
(304,781,l),
(155,781,l),
(142,797,l),
(157,905,l),
(417,905,l),
(430,889,l),
(395,501,l),
(460,384,l),
(364,269,l),
(309,-146,l),
(34,-146,l),
(19,-129,l),
(34,-22,l),
(186,-22,l),
(228,259,l),
(343,384,l),
(264,509,l)
);
}
);
width = 425;
}
);
unicode = 125;
},
{
category = Letter;
glyphname = asciitilde;
layers = (
{
layerId = "b692dbeb-fef6-4ff9-be0e-3d959b00990b";
name = Fore;
shapes = (
{
closed = 1;
nodes = (
(491,318,o),
(451,318,q),
(411,318,o),
(307,308,q),
(203,298,o),
(153,298,q),
(103,298,o),
(93,306,q),
(83,314,o),
(83,327,q),
(83,340,o),
(84,350,q),
(116,401,l),
(191,401,o),
(288.5,410,q),
(386,419,o),
(439,419,q),
(492,419,o),
(507,409.5,q),
(522,400,o),
(522,378,q),
(522,371,o),
(521,363,q),
(498,318,l)
);
}
);
width = 504;
}
);
unicode = 126;
},
{
category = Letter;
glyphname = exclamdown;
layers = (
{
layerId = "b692dbeb-fef6-4ff9-be0e-3d959b00990b";
name = Fore;
shapes = (
{
closed = 1;
nodes = (
(123,287,l),
(222,276,l),
(234,258,l),
(175,-47,l),
(112,-267,l),
(12,-256,l),
(-11,-221,l)
);
},
{
closed = 1;
nodes = (
(287,512,o),
(287,456,q),
(287,449,o),
(286,440,q),
(276,368,o),
(204,368,q),
(141,368,o),
(141,424,q),
(141,431,o),
(142,440,q),
(152,512,o),
(224,512,q)
);
}
);
width = 247;
}
);
unicode = 161;
},
{
category = Letter;
glyphname = cent;
layers = (
{
layerId = "b692dbeb-fef6-4ff9-be0e-3d959b00990b";
name = Fore;
shapes = (
{
closed = 1;
nodes = (
(462,606,o),
(462,594,q),
(462,582,o),
(449,555,q),
(428,509,o),
(415,515,q),
(414,515,l),
(381,529,l),
(354,542,o),
(312.5,542,q),
(271,542,o),
(254.5,508.5,q),
(238,475,o),
(227.5,397.5,q),
(217,320,o),
(217,289.5,q),
(217,259,o),
(220,246,q),
(230,213,o),
(271,213,q),
(330,213,o),
(364,220,q),
(398,227,o),
(401,227.5,q),
(404,228,o),
(407,224,q),
(414,216,o),
(408.5,175.5,q),
(403,135,o),
(386,131,q),
(344,119,o),
(301,116,q),
(285,-1,l),
(162,-1,l),
(150,30,l),
(163,128,l),
(105,148,o),
(88,208,q),
(80,238,o),
(80,281,q),
(80,324,o),
(89,381,q),
(107,507,o),
(140,562.5,q),
(173,618,o),
(241,634,q),
(261,768,l),
(369,768,l),
(386,752,l),
(370,640,l),
(408,635,o),
(426.5,625,q),
(445,615,o),
(455,609,q),
(456,609,l)
);
}
);
width = 379;
}
);
unicode = 162;
},
{
category = Letter;
glyphname = sterling;
layers = (
{
layerId = "b692dbeb-fef6-4ff9-be0e-3d959b00990b";
name = Fore;
shapes = (
{
closed = 1;
nodes = (
(92,16,l),
(132,304,l),
(82,304,l),
(68,320,l),
(84,428,l),
(145,428,l),
(177,655,o),
(242.5,743.5,q),
(308,832,o),
(448,836,q),
(462,820,l),
(447,717,l),
(382,716,o),
(352.5,647.5,q),
(323,579,o),
(302,428,q),
(360,428,l),
(373,412,l),
(358,304,l),
(271,304,l),
(247,121,l),
(474,121,l),
(487,105,l),
(473,0,l),
(106,0,l)
);
}
);
width = 495;
}
);
unicode = 163;
},
{
category = Letter;
glyphname = currency;
layers = (
{
layerId = "b692dbeb-fef6-4ff9-be0e-3d959b00990b";
name = Fore;
shapes = (
{
closed = 1;
nodes = (
(419,371,o),
(403,333,q),
(431,301,l),
(428,278,l),
(340,202,l),
(305,244,l),
(275,236,o),
(247,236,q),
(219,236,o),
(195,242,q),
(160,212,l),
(137,212,l),
(72,289,l),
(115,327,l),
(114,336,o),
(114,346,q),
(114,392,o),
(130,437,q),
(102,469,l),
(106,492,l),
(193,568,l),
(228,526,l),
(258,534,o),
(286,534,q),
(314,534,o),
(339,528,q),
(373,558,l),
(396,558,l),
(461,481,l),
(418,443,l),
(419,431,o),
(419,419,q)
);
},
{
closed = 1;
nodes = (
(322,439,o),
(270.5,439,q),
(219,439,o),
(212,385,q),
(211,379,o),
(211,373,q),
(211,331,o),
(262.5,331,q),
(314,331,o),
(322,385,q),
(322,390,o),
(322,394,q)
);
}
);
width = 425;
}
);
unicode = 164;
},
{
category = Letter;
glyphname = yen;
layers = (
{
layerId = "b692dbeb-fef6-4ff9-be0e-3d959b00990b";
name = Fore;
shapes = (
{
closed = 1;
nodes = (
(126,768,o),
(193.5,768,q),
(261,768,o),
(271,731,q),
(362,522,l),
(394,522,l),
(528,734,l),
(538,754,o),
(553,761,q),
(568,768,o),
(598,768,q),
(663,768,o),
(663,745,q),
(663,739,o),
(658,731,q),
(522,522,l),
(586,522,l),
(600,506,l),
(584,398,l),
(172,398,l),
(159,414,l),
(174,522,l),
(218,522,l),
(128,732,l),
(126,738,o),
(126,743,q)
);
},
{
closed = 1;
nodes = (
(247,-16,o),
(247,17,q),
(247,19,o),
(247,22,q),
(271,196,l),
(144,196,l),
(130,212,l),
(145,320,l),
(557,320,l),
(571,304,l),
(556,196,l),
(388,196,l),
(363,21,l),
(360,-3,o),
(353,-9.5,q),
(346,-16,o),
(318,-16,q)
);
}
);
width = 584;
}
);
unicode = 165;
},
{
category = Letter;
glyphname = brokenbar;
layers = (
{
layerId = "b692dbeb-fef6-4ff9-be0e-3d959b00990b";
name = Fore;
shapes = (
{
closed = 1;
nodes = (
(86,295,l),
(210,295,l),
(224,279,l),
(164,-146,l),
(40,-146,l),
(26,-130,l)
);
},
{
closed = 1;
nodes = (
(309,889,l),
(252,482,l),
(128,482,l),
(114,498,l),
(172,905,l),
(296,905,l)
);
}
);
width = 219;
}
);
unicode = 166;
},
{
category = Letter;
glyphname = section;
layers = (
{
layerId = "b692dbeb-fef6-4ff9-be0e-3d959b00990b";
name = Fore;
shapes = (
{
closed = 1;
nodes = (
(211,351,o),
(228.5,337,q),
(246,323,o),
(271.5,323,q),
(297,323,o),
(313.5,332,q),
(330,341,o),
(334,350.5,q),
(338,360,o),
(340,376.5,q),
(342,393,o),
(326,402,q),
(302,416,o),
(259.5,415,q),
(217,414,o),
(211,373,q),
(211,370,o),
(211,368,q)
);
},
{
closed = 1;
nodes = (
(431,616,l),
(396,635,l),
(354,652,o),
(324,652,q),
(279,650,o),
(273,609,q),
(271,593,o),
(287,583,q),
(303,573,o),
(313.5,567.5,q),
(324,562,o),
(344,552,q),
(414,519,o),
(442.5,483.5,q),
(471,448,o),
(471,417,q),
(471,411,o),
(470,404,q),
(456,299,o),
(380,248,q),
(410,213,o),
(410,179,q),
(410,174,o),
(409,168,q),
(398,85,o),
(346.5,34.5,q),
(295,-16,o),
(219.5,-16,q),
(144,-16,o),
(104,4,q),
(64,24,o),
(40,61,q),
(37,63,o),
(37,66,q),
(37,77,o),
(65.5,106.5,q),
(94,136,o),
(107,136,q),
(110,136,o),
(114,132,q),
(161,90,o),
(211,90,q),
(239,90,o),
(257,107.5,q),
(275,125,o),
(275,143,q),
(275,161,o),
(262,173,q),
(242,189,o),
(192,214,q),
(89,269,o),
(89,345,q),
(89,352,o),
(90,360,q),
(105,467,o),
(187,498,q),
(150,537,o),
(150,581,q),
(150,589,o),
(151,596,q),
(162,676,o),
(209,712,q),
(256,748,o),
(346,748,q),
(380,748,o),
(410,740,q),
(451,729,o),
(466,714,q),
(467,714,l),
(474,709,o),
(474,698,q),
(474,687,o),
(469,672,q),
(450,614,o),
(436,614,q)
);
}
);
width = 446;
}
);
unicode = 167;
},
{
category = Letter;
glyphname = dieresis;
layers = (
{
layerId = "b692dbeb-fef6-4ff9-be0e-3d959b00990b";
name = Fore;
shapes = (
{
closed = 1;
nodes = (
(282,768,o),
(282,712,q),
(282,705,o),
(281,696,q),
(271,624,o),
(199,624,q),
(136,624,o),
(136,680,q),
(136,687,o),
(137,696,q),
(147,768,o),
(219,768,q)
);
},
{
closed = 1;
nodes = (
(516,768,o),
(516,712,q),
(516,705,o),
(515,696,q),
(505,624,o),
(433,624,q),
(370,624,o),
(370,680,q),
(370,687,o),
(371,696,q),
(381,768,o),
(453,768,q)
);
}
);
width = 460;
}
);
unicode = 168;
},
{
category = Letter;
glyphname = copyright;
layers = (
{
layerId = "b692dbeb-fef6-4ff9-be0e-3d959b00990b";
name = Fore;
shapes = (
{
closed = 1;
nodes = (
(413,413,o),
(403.5,341,q),
(394,269,o),
(394,238.5,q),
(394,208,o),
(415,208,q),
(447,208,o),
(507,215,q),
(498,153,l),
(438,145,o),
(408,145,q),
(325,145,o),
(300,186,q),
(284,212,o),
(284,254.5,q),
(284,297,o),
(290,338,q),
(306,453,o),
(341.5,490.5,q),
(377,528,o),
(451,528,q),
(525,528,o),
(555,506,q),
(535,460,l),
(489,460,l),
(479,465,o),
(449,465,q),
(431,465,o),
(422,439,q)
);
},
{
closed = 1;
nodes = (
(617,701,o),
(700,596,q),
(767,512,o),
(767,399,q),
(767,371,o),
(763,342,q),
(742,192,o),
(629,88,q),
(516,-16,o),
(369,-16,q),
(222,-16,o),
(139,88,q),
(74,171,o),
(74,283,q),
(74,469,o),
(211,596,q),
(323,701,o),
(470,701,q)
);
},
{
closed = 1;
nodes = (
(142,203,o),
(195,136,q),
(260,52,o),
(379,52,q),
(498,52,o),
(588,136,q),
(698,239,o),
(698,390,q),
(698,481,o),
(645,548,q),
(578,633,o),
(460,633,q),
(342,633,o),
(253,548,q),
(142,445,o),
(142,293,q)
);
}
);
width = 747;
}
);
unicode = 169;
},
{
category = Letter;
glyphname = ordfeminine;
layers = (
{
layerId = "b692dbeb-fef6-4ff9-be0e-3d959b00990b";
name = Fore;
shapes = (
{
closed = 1;
nodes = (
(277,676,o),
(245.5,676,q),
(214,676,o),
(193,666,q),
(163,666,l),
(154,726,l),
(191,752,o),
(251,752,q),
(343,752,o),
(370,713,q),
(387,689,o),
(387,644.5,q),
(387,600,o),
(380,554,q),
(353,366,l),
(276,366,l),
(267,389,l),
(222,354,o),
(195,354,q),
(131,354,o),
(111,378,q),
(98,394,o),
(98,424.5,q),
(98,455,o),
(102,486,q),
(111,547,o),
(172,569,q),
(283,597,l),
(287,622,o),
(287,638,q),
(287,654,o),
(283,661,q)
);
},
{
closed = 1;
nodes = (
(183,430,o),
(209,428,q),
(240,428,o),
(253,448,q),
(266,468,o),
(277,542,q),
(237,536,o),
(212,520,q),
(187,504,o),
(185,489,q),
(183,474,o),
(183,465,q)
);
}
);
width = 345;
}
);
unicode = 170;
},
{
category = Letter;
glyphname = guillemotleft;
layers = (
{
layerId = "b692dbeb-fef6-4ff9-be0e-3d959b00990b";
name = Fore;
shapes = (
{
closed = 1;
nodes = (
(542,156,l),
(490,169,l),
(328,335,l),
(314,384,l),
(341,433,l),
(535,599,l),
(591,612,l),
(617,573,l),
(429,384,l),
(580,195,l)
);
},
{
closed = 1;
nodes = (
(302,156,l),
(250,169,l),
(88,335,l),
(74,384,l),
(101,433,l),
(295,599,l),
(351,612,l),
(377,573,l),
(189,384,l),
(340,195,l)
);
}
);
width = 591;
}
);
unicode = 171;
},
{
category = Letter;
glyphname = logicalnot;
layers = (
{
layerId = "b692dbeb-fef6-4ff9-be0e-3d959b00990b";
name = Fore;
shapes = (
{
closed = 1;
nodes = (
(493,137,l),
(385,137,l),
(371,153,l),
(393,308,l),
(68,308,l),
(54,324,l),
(69,432,l),
(519,432,l),
(533,416,l)
);
}
);
width = 521;
}
);
unicode = 172;
},
{
category = Letter;
glyphname = registered;
layers = (
{
layerId = "b692dbeb-fef6-4ff9-be0e-3d959b00990b";
name = Fore;
shapes = (
{
closed = 1;
nodes = (
(566,355,o),
(501,308,q),
(550,145,l),
(455,145,l),
(441,161,l),
(403,289,l),
(396,289,l),
(376,145,l),
(295,145,l),
(281,161,l),
(331,519,l),
(400,532,o),
(440,532,q),
(519,532,o),
(542.5,508.5,q),
(566,485,o),
(566,445,q)
);
},
{
closed = 1;
nodes = (
(462,440,o),
(462,454.5,q),
(462,469,o),
(457,469,q),
(424,469,o),
(420,458,q),
(408,366,l),
(416,363,o),
(424,363,q),
(451,365,o),
(459,417,q)
);
},
{
closed = 1;
nodes = (
(617,701,o),
(700,596,q),
(767,512,o),
(767,399,q),
(767,371,o),
(763,342,q),
(742,192,o),
(629,88,q),
(516,-16,o),
(369,-16,q),
(222,-16,o),
(139,88,q),
(74,171,o),
(74,283,q),
(74,469,o),
(211,596,q),
(323,701,o),
(470,701,q)
);
},
{
closed = 1;
nodes = (
(142,203,o),
(195,136,q),
(260,52,o),
(379,52,q),
(498,52,o),
(588,136,q),
(698,239,o),
(698,390,q),
(698,481,o),
(645,548,q),
(578,633,o),
(460,633,q),
(342,633,o),
(253,548,q),
(142,445,o),
(142,293,q)
);
}
);
width = 747;
}
);
unicode = 174;
},
{
category = Letter;
glyphname = degree;
layers = (
{
layerId = "b692dbeb-fef6-4ff9-be0e-3d959b00990b";
name = Fore;
shapes = (
{
closed = 1;
nodes = (
(363,753,o),
(363,661,q),
(363,648,o),
(361,633,q),
(344,513,o),
(225,513,q),
(119,513,o),
(119,605,q),
(119,618,o),
(121,633,q),
(138,753,o),
(258,753,q)
);
},
{
closed = 1;
nodes = (
(286,589,o),
(286,643,q),
(286,677,o),
(244.5,677,q),
(203,677,o),
(197,633,q),
(196,628,o),
(196,624,q),
(196,589,o),
(235,589,q)
);
}
);
width = 308;
}
);
unicode = 176;
},
{
category = Letter;
glyphname = plusminus;
layers = (
{
layerId = "b692dbeb-fef6-4ff9-be0e-3d959b00990b";
name = Fore;
shapes = (
{
closed = 1;
nodes = (
(372,592,l),
(493,592,l),
(506,576,l),
(491,468,l),
(354,468,l),
(335,331,l),
(227,331,l),
(213,347,l),
(230,468,l),
(110,468,l),
(97,484,l),
(112,592,l),
(248,592,l),
(267,728,l),
(374,728,l),
(388,711,l)
);
},
{
closed = 1;
nodes = (
(67,160,l),
(53,176,l),
(68,284,l),
(449,284,l),
(463,268,l),
(448,160,l)
);
}
);
width = 455;
}
);
unicode = 177;
},
{
category = Letter;
glyphname = twosuperior;
layers = (
{
layerId = "b692dbeb-fef6-4ff9-be0e-3d959b00990b";
name = Fore;
shapes = (
{
closed = 1;
nodes = (
(244,659,o),
(212,650,q),
(162,650,l),
(152,723,l),
(198,752,o),
(296,752,q),
(394,752,o),
(428,714,q),
(454,686,o),
(454,633,q),
(454,614,o),
(450,585.5,q),
(446,557,o),
(405,499.5,q),
(364,442,o),
(224,284,q),
(404,284,l),
(417,269,l),
(406,185,l),
(81,185,l),
(67,201,l),
(77,275,l),
(217,434,l),
(259,480,o),
(275,498,q),
(326,558,o),
(326,621,q),
(326,633,o),
(324,642,q),
(318,659,o),
(293,659,q)
);
}
);
width = 416;
}
);
unicode = 178;
},
{
category = Letter;
glyphname = threesuperior;
layers = (
{
layerId = "b692dbeb-fef6-4ff9-be0e-3d959b00990b";
name = Fore;
shapes = (
{
closed = 1;
nodes = (
(449,535,o),
(395,481,q),
(431,449,o),
(431,386,q),
(431,281,o),
(362,225,q),
(307,180,o),
(190,180,q),
(152,180,o),
(76,189,q),
(89,281,l),
(174,276,o),
(211.5,276,q),
(249,276,o),
(263.5,289.5,q),
(278,303,o),
(283,338,q),
(288,373,o),
(288,389,q),
(288,405,o),
(281.5,413,q),
(275,421,o),
(226,421,q),
(169,421,l),
(182,517,l),
(250,517,o),
(273,528.5,q),
(296,540,o),
(304,591,q),
(306,606,o),
(306,618,q),
(306,659,o),
(281,659,q),
(232,659,o),
(200,650,q),
(150,650,l),
(140,723,l),
(186,752,o),
(285.5,752,q),
(385,752,o),
(422,714,q),
(449,685,o),
(449,629,q)
);
}
);
width = 413;
}
);
unicode = 179;
},
{
category = Letter;
glyphname = acute;
layers = (
{
layerId = "b692dbeb-fef6-4ff9-be0e-3d959b00990b";
name = Fore;
shapes = (
{
closed = 1;
nodes = (
(106,557,l),
(113,612,l),
(187,736,l),
(233,768,l),
(333,708,l),
(149,536,l)
);
}
);
width = 240;
}
);
unicode = 180;
},
{
category = Letter;
glyphname = mu;
layers = (
{
layerId = "b692dbeb-fef6-4ff9-be0e-3d959b00990b";
name = Fore;
shapes = (
{
closed = 1;
nodes = (
(13,-239,o),
(15,-223,q),
(116,496,l),
(118,512,o),
(154.5,512,q),
(191,512,o),
(225.5,507,q),
(260,502,o),
(259,496,q),
(217,192,l),
(211,147,o),
(211,130.5,q),
(211,114,o),
(211,108,q),
(213,80,o),
(228,80,q),
(257,83,o),
(319,116,q),
(372,496,l),
(374,512,o),
(410.5,512,q),
(447,512,o),
(482,507,q),
(517,502,o),
(516,496,q),
(447,0,l),
(446,-6,o),
(444,-8,q),
(438,-16,o),
(390,-16,q),
(342,-16,o),
(335,0,q),
(318,31,l),
(254,-15,o),
(172,-15,q),
(132,-223,l),
(128,-239,o),
(53,-239,q)
);
}
);
width = 465;
}
);
unicode = (181,956);
},
{
category = Letter;
glyphname = paragraph;
layers = (
{
layerId = "b692dbeb-fef6-4ff9-be0e-3d959b00990b";
name = Fore;
shapes = (
{
closed = 1;
nodes = (
(269,472,l),
(90,472,l),
(105,581,o),
(132,636.5,q),
(159,692,o),
(205,713.5,q),
(251,735,o),
(335,736,q),
(760,736,l),
(774,720,l),
(762,635,l),
(646,635,l),
(558,0,l),
(430,0,l),
(416,16,l),
(504,635,l),
(435,635,l),
(347,0,l),
(219,0,l),
(205,16,l)
);
}
);
width = 703;
}
);
unicode = 182;
},
{
category = Letter;
glyphname = periodcentered;
layers = (
{
layerId = "b692dbeb-fef6-4ff9-be0e-3d959b00990b";
name = Fore;
shapes = (
{
closed = 1;
nodes = (
(220,367,o),
(220,311,q),
(220,304,o),
(219,295,q),
(209,223,o),
(137,223,q),
(74,223,o),
(74,279,q),
(74,286,o),
(75,295,q),
(85,367,o),
(157,367,q)
);
}
);
width = 214;
}
);
unicode = 183;
},
{
category = Letter;
glyphname = cedilla;
layers = (
{
layerId = "b692dbeb-fef6-4ff9-be0e-3d959b00990b";
name = Fore;
shapes = (
{
closed = 1;
nodes = (
(174,-158,o),
(165,-186,q),
(132,-286,o),
(46,-286,q),
(31,-286,o),
(13,-283,q),
(36,-209,l),
(42,-210,o),
(47,-210,q),
(81,-210,o),
(92,-173,q),
(95,-162,o),
(95,-154,q),
(95,-127,o),
(63,-122,q),
(8,-112,l),
(46,9,l),
(101,-1,l),
(87,-47,l),
(174,-64,o),
(174,-135,q)
);
}
);
width = 220;
}
);
unicode = 184;
},
{
category = Letter;
glyphname = onesuperior;
layers = (
{
layerId = "b692dbeb-fef6-4ff9-be0e-3d959b00990b";
name = Fore;
shapes = (
{
closed = 1;
nodes = (
(122,703,l),
(309,754,l),
(323,738,l),
(260,281,l),
(280,281,l),
(294,265,l),
(283,188,l),
(97,188,l),
(83,204,l),
(94,281,l),
(132,281,l),
(180,626,l),
(137,613,l)
);
}
);
width = 290;
}
);
unicode = 185;
},
{
category = Letter;
glyphname = ordmasculine;
layers = (
{
layerId = "b692dbeb-fef6-4ff9-be0e-3d959b00990b";
name = Fore;
shapes = (
{
closed = 1;
nodes = (
(506,756,o),
(506,549,q),
(506,505,o),
(499,452,q),
(480,317,o),
(424.5,246.5,q),
(369,176,o),
(258,176,q),
(147,176,o),
(112,238,q),
(91,277,o),
(91,335.5,q),
(91,394,o),
(99,452,q),
(122,617,o),
(176,686.5,q),
(230,756,o),
(342,756,q)
);
},
{
closed = 1;
nodes = (
(295,660,o),
(273.5,616.5,q),
(252,573,o),
(238,473.5,q),
(224,374,o),
(224,324,q),
(224,274,o),
(242,274,q),
(301,274,o),
(319.5,304.5,q),
(338,335,o),
(351,426,q),
(367,536,o),
(367,598,q),
(367,660,o),
(352,660,q)
);
}
);
width = 470;
}
);
unicode = 186;
},
{
category = Letter;
glyphname = guillemotright;
layers = (
{
layerId = "b692dbeb-fef6-4ff9-be0e-3d959b00990b";
name = Fore;
shapes = (
{
closed = 1;
nodes = (
(65,195,l),
(268,384,l),
(134,573,l),
(172,612,l),
(224,599,l),
(370,433,l),
(383,384,l),
(357,335,l),
(147,169,l),
(91,156,l)
);
},
{
closed = 1;
nodes = (
(305,195,l),
(508,384,l),
(374,573,l),
(412,612,l),
(464,599,l),
(610,433,l),
(623,384,l),
(597,335,l),
(387,169,l),
(331,156,l)
);
}
);
width = 591;
}
);
unicode = 187;
},
{
category = Letter;
glyphname = onequarter;
layers = (
{
layerId = "b692dbeb-fef6-4ff9-be0e-3d959b00990b";
name = Fore;
shapes = (
{
closed = 1;
nodes = (
(768,324,l),
(844,324,l),
(879,564,l),
(990,564,l),
(1004,548,l),
(972,324,l),
(1000,324,l),
(1014,308,l),
(1003,231,l),
(959,231,l),
(927,0,l),
(815,0,l),
(801,16,l),
(831,231,l),
(644,231,l),
(630,247,l),
(676,564,l),
(786,564,l),
(800,548,l)
);
},
{
closed = 1;
nodes = (
(121,703,l),
(308,754,l),
(322,738,l),
(259,281,l),
(279,281,l),
(293,265,l),
(282,188,l),
(96,188,l),
(82,204,l),
(93,281,l),
(131,281,l),
(179,626,l),
(136,613,l)
);
},
{
closed = 1;
nodes = (
(602,876,l),
(707,876,l),
(692,769,l),
(347,-146,l),
(211,-146,l),
(215,-114,l)
);
}
);
width = 987;
}
);
unicode = 188;
},
{
category = Letter;
glyphname = onehalf;
layers = (
{
layerId = "b692dbeb-fef6-4ff9-be0e-3d959b00990b";
name = Fore;
shapes = (
{
closed = 1;
nodes = (
(631,876,l),
(736,876,l),
(721,769,l),
(376,-146,l),
(240,-146,l),
(244,-114,l)
);
},
{
closed = 1;
nodes = (
(120,703,l),
(307,754,l),
(321,738,l),
(258,281,l),
(278,281,l),
(292,265,l),
(281,188,l),
(95,188,l),
(81,204,l),
(92,281,l),
(130,281,l),
(178,626,l),
(135,613,l)
);
},
{
closed = 1;
nodes = (
(816,474,o),
(784,465,q),
(734,465,l),
(724,538,l),
(770,567,o),
(868,567,q),
(966,567,o),
(1000,529,q),
(1026,501,o),
(1026,448,q),
(1026,429,o),
(1022,400.5,q),
(1018,372,o),
(977,314.5,q),
(936,257,o),
(796,99,q),
(976,99,l),
(989,84,l),
(978,0,l),
(653,0,l),
(639,16,l),
(649,90,l),
(789,249,l),
(831,295,o),
(847,314,q),
(898,373,o),
(898,436,q),
(898,448,o),
(896,456,q),
(890,474,o),
(865,474,q)
);
}
);
width = 994;
}
);
unicode = 189;
},
{
category = Letter;
glyphname = threequarters;
layers = (
{
layerId = "b692dbeb-fef6-4ff9-be0e-3d959b00990b";
name = Fore;
shapes = (
{
closed = 1;
nodes = (
(673,876,l),
(778,876,l),
(763,769,l),
(418,-146,l),
(282,-146,l),
(286,-114,l)
);
},
{
closed = 1;
nodes = (
(428,535,o),
(374,481,q),
(410,449,o),
(410,386,q),
(410,281,o),
(341,225,q),
(286,180,o),
(169,180,q),
(131,180,o),
(55,189,q),
(68,281,l),
(153,276,o),
(190.5,276,q),
(228,276,o),
(242.5,289.5,q),
(257,303,o),
(262,338,q),
(267,373,o),
(267,389,q),
(267,405,o),
(260.5,413,q),
(254,421,o),
(205,421,q),
(148,421,l),
(161,517,l),
(229,517,o),
(252,528.5,q),
(275,540,o),
(283,591,q),
(285,606,o),
(285,618,q),
(285,659,o),
(260,659,q),
(210,659,o),
(179,650,q),
(129,650,l),
(119,723,l),
(165,752,o),
(264.5,752,q),
(364,752,o),
(400,714,q),
(428,685,o),
(428,629,q)
);
},
{
closed = 1;
nodes = (
(817,324,l),
(893,324,l),
(928,564,l),
(1039,564,l),
(1053,548,l),
(1021,324,l),
(1049,324,l),
(1063,308,l),
(1052,231,l),
(1008,231,l),
(976,0,l),
(864,0,l),
(850,16,l),
(880,231,l),
(693,231,l),
(679,247,l),
(725,564,l),
(835,564,l),
(849,548,l)
);
}
);
width = 1038;
}
);
unicode = 190;
},
{
category = Letter;
glyphname = questiondown;
layers = (
{
layerId = "b692dbeb-fef6-4ff9-be0e-3d959b00990b";
name = Fore;
shapes = (
{
closed = 1;
nodes = (
(160,-18,o),
(155.5,-48.5,q),
(151,-79,o),
(151,-97.5,q),
(151,-116,o),
(156,-128,q),
(165,-149,o),
(207,-149,q),
(274,-149,o),
(319,-136,q),
(368,-136,l),
(382,-237,l),
(324,-272,o),
(201.5,-272,q),
(79,-272,o),
(37,-222,q),
(6,-185,o),
(6,-113,q),
(6,-46,o),
(19,-19,q),
(47,41,o),
(202,189,q),
(217,295,l),
(337,295,l),
(351,279,l),
(337,183,l),
(334,158,o),
(284,112,q),
(207,42,o),
(183.5,12,q)
);
},
{
closed = 1;
nodes = (
(372,512,o),
(372,456,q),
(372,449,o),
(371,440,q),
(361,368,o),
(289,368,q),
(226,368,o),
(226,424,q),
(226,431,o),
(227,440,q),
(237,512,o),
(309,512,q)
);
}
);
width = 439;
}
);
unicode = 191;
},
{
category = Letter;
glyphname = Agrave;
layers = (
{
layerId = "b692dbeb-fef6-4ff9-be0e-3d959b00990b";
name = Fore;
shapes = (
{
closed = 1;
nodes = (
(363,792,l),
(227,964,l),
(343,1024,l),
(381,992,l),
(420,868,l),
(412,813,l)
);
},
{
closed = 1;
nodes = (
(475,769,o),
(476,738,q),
(501,431,l),
(513,22,l),
(513,-2,o),
(506,-9,q),
(499,-16,o),
(470,-16,q),
(381,-16,o),
(381,22,q),
(375,228,l),
(235,228,l),
(174,21,l),
(169,3,o),
(166,-2,q),
(160,-16,o),
(127.5,-16,q),
(95,-16,o),
(81,-16,q),
(38,-14,o),
(31,0,q),
(29,4,o),
(29,9.5,q),
(29,15,o),
(31,22,q),
(157,434,o),
(204.5,585,q),
(252,736,o),
(255,746,q),
(262,769,o),
(406,769,q)
);
},
{
closed = 1;
nodes = (
(271,349,l),
(370,349,l),
(357,638,l)
);
}
);
width = 529;
}
);
unicode = 192;
},
{
category = Letter;
glyphname = Aacute;
layers = (
{
layerId = "b692dbeb-fef6-4ff9-be0e-3d959b00990b";
name = Fore;
shapes = (
{
closed = 1;
nodes = (
(336,813,l),
(342,868,l),
(417,992,l),
(463,1024,l),
(563,964,l),
(379,792,l)
);
},
{
closed = 1;
nodes = (
(475,769,o),
(476,738,q),
(501,431,l),
(513,22,l),
(513,-2,o),
(506,-9,q),
(499,-16,o),
(470,-16,q),
(381,-16,o),
(381,22,q),
(375,228,l),
(235,228,l),
(174,21,l),
(169,3,o),
(166,-2,q),
(160,-16,o),
(127.5,-16,q),
(95,-16,o),
(81,-16,q),
(38,-14,o),
(31,0,q),
(29,4,o),
(29,9.5,q),
(29,15,o),
(31,22,q),
(157,434,o),
(204.5,585,q),
(252,736,o),
(255,746,q),
(262,769,o),
(406,769,q)
);
},
{
closed = 1;
nodes = (
(271,349,l),
(370,349,l),
(357,638,l)
);
}
);
width = 528;
}
);
unicode = 193;
},
{
category = Letter;
glyphname = Acircumflex;
layers = (
{
layerId = "b692dbeb-fef6-4ff9-be0e-3d959b00990b";
name = Fore;
shapes = (
{
closed = 1;
nodes = (
(223,860,l),
(244,914,l),
(359,1004,l),
(410,1024,l),
(457,1004,l),
(546,914,l),
(551,860,l),
(508,828,l),
(394,909,l),
(258,828,l)
);
},
{
closed = 1;
nodes = (
(475,769,o),
(476,738,q),
(501,431,l),
(513,22,l),
(513,-2,o),
(506,-9,q),
(499,-16,o),
(470,-16,q),
(381,-16,o),
(381,22,q),
(375,228,l),
(235,228,l),
(174,21,l),
(169,3,o),
(166,-2,q),
(160,-16,o),
(127.5,-16,q),
(95,-16,o),
(81,-16,q),
(38,-14,o),
(31,0,q),
(29,4,o),
(29,9.5,q),
(29,15,o),
(31,22,q),
(157,434,o),
(204.5,585,q),
(252,736,o),
(255,746,q),
(262,769,o),
(406,769,q)
);
},
{
closed = 1;
nodes = (
(271,349,l),
(370,349,l),
(357,638,l)
);
}
);
width = 536;
}
);
unicode = 194;
},
{
category = Letter;
glyphname = Atilde;
layers = (
{
layerId = "b692dbeb-fef6-4ff9-be0e-3d959b00990b";
name = Fore;
shapes = (
{
closed = 1;
nodes = (
(552,884,o),
(513.5,884,q),
(475,884,o),
(400.5,874,q),
(326,864,o),
(276,864,q),
(226,864,o),
(215.5,872.5,q),
(205,881,o),
(205,894.5,q),
(205,908,o),
(206,916,q),
(238,967,l),
(313,967,o),
(380,976,q),
(447,985,o),
(500,985,q),
(553,985,o),
(567.5,975.5,q),
(582,966,o),
(582,944,q),
(582,937,o),
(581,929,q),
(559,884,l)
);
},
{
closed = 1;
nodes = (
(475,769,o),
(476,738,q),
(501,431,l),
(513,22,l),
(513,-2,o),
(506,-9,q),
(499,-16,o),
(470,-16,q),
(381,-16,o),
(381,22,q),
(375,228,l),
(235,228,l),
(174,21,l),
(169,3,o),
(166,-2,q),
(160,-16,o),
(127.5,-16,q),
(95,-16,o),
(81,-16,q),
(38,-14,o),
(31,0,q),
(29,4,o),
(29,9.5,q),
(29,15,o),
(31,22,q),
(157,434,o),
(204.5,585,q),
(252,736,o),
(255,746,q),
(262,769,o),
(406,769,q)
);
},
{
closed = 1;
nodes = (
(271,349,l),
(370,349,l),
(357,638,l)
);
}
);
width = 531;
}
);
unicode = 195;
},
{
category = Letter;
glyphname = Adieresis;
layers = (
{
layerId = "b692dbeb-fef6-4ff9-be0e-3d959b00990b";
name = Fore;
shapes = (
{
closed = 1;
nodes = (
(357,1024,o),
(357,968,q),
(357,961,o),
(356,952,q),
(346,880,o),
(274,880,q),
(211,880,o),
(211,936,q),
(211,943,o),
(212,952,q),
(222,1024,o),
(294,1024,q)
);
},
{
closed = 1;
nodes = (
(591,1024,o),
(591,968,q),
(591,961,o),
(590,952,q),
(580,880,o),
(508,880,q),
(445,880,o),
(445,936,q),
(445,943,o),
(446,952,q),
(456,1024,o),
(528,1024,q)
);
},
{
closed = 1;
nodes = (
(475,769,o),
(476,738,q),
(501,431,l),
(513,22,l),
(513,-2,o),
(506,-9,q),
(499,-16,o),
(470,-16,q),
(381,-16,o),
(381,22,q),
(375,228,l),
(235,228,l),
(174,21,l),
(169,3,o),
(166,-2,q),
(160,-16,o),
(127.5,-16,q),
(95,-16,o),
(81,-16,q),
(38,-14,o),
(31,0,q),
(29,4,o),
(29,9.5,q),
(29,15,o),
(31,22,q),
(157,434,o),
(204.5,585,q),
(252,736,o),
(255,746,q),
(262,769,o),
(406,769,q)
);
},
{
closed = 1;
nodes = (
(271,349,l),
(370,349,l),
(357,638,l)
);
}
);
width = 539;
}
);
unicode = 196;
},
{
category = Letter;
glyphname = Aring;
layers = (
{
layerId = "b692dbeb-fef6-4ff9-be0e-3d959b00990b";
name = Fore;
shapes = (
{
closed = 1;
nodes = (
(485,985,o),
(485,912,q),
(485,901,o),
(483,889,q),
(470,793,o),
(374,793,q),
(289,793,o),
(289,867,q),
(289,878,o),
(291,889,q),
(305,985,o),
(401,985,q)
);
},
{
closed = 1;
nodes = (
(423,854,o),
(423,897,q),
(423,924,o),
(390,924,q),
(357,924,o),
(352,889,q),
(352,885,o),
(352,882,q),
(352,854,o),
(383,854,q)
);
},
{
closed = 1;
nodes = (
(475,769,o),
(476,738,q),
(501,431,l),
(513,22,l),
(513,-2,o),
(506,-9,q),
(499,-16,o),
(470,-16,q),
(381,-16,o),
(381,22,q),
(375,228,l),
(235,228,l),
(174,21,l),
(169,3,o),
(166,-2,q),
(160,-16,o),
(127.5,-16,q),
(95,-16,o),
(81,-16,q),
(38,-14,o),
(31,0,q),
(29,4,o),
(29,9.5,q),
(29,15,o),
(31,22,q),
(157,434,o),
(204.5,585,q),
(252,736,o),
(255,746,q),
(262,769,o),
(406,769,q)
);
},
{
closed = 1;
nodes = (
(271,349,l),
(370,349,l),
(357,638,l)
);
}
);
width = 529;
}
);
unicode = 197;
},
{
category = Letter;
glyphname = AE;
layers = (
{
layerId = "b692dbeb-fef6-4ff9-be0e-3d959b00990b";
name = Fore;
shapes = (
{
closed = 1;
nodes = (
(821,750,o),
(821,725,q),
(821,713,o),
(814,688,q),
(799,632,o),
(762,632,q),
(539,632,l),
(525,455,l),
(718,455,l),
(754,455,o),
(754,428,q),
(754,424,o),
(750.5,397.5,q),
(747,371,o),
(738,352.5,q),
(729,334,o),
(704,334,q),
(508,334,l),
(479,121,l),
(710,121,l),
(733,120,o),
(741,111.5,q),
(749,103,o),
(747,86,q),
(740,37,o),
(728.5,18.5,q),
(717,0,o),
(690,0,q),
(338,0,l),
(324,16,l),
(354,228,l),
(235,228,l),
(174,21,l),
(169,3,o),
(166,-2,q),
(160,-16,o),
(127.5,-16,q),
(95,-16,o),
(81,-16,q),
(38,-14,o),
(31,0,q),
(29,4,o),
(29,9.5,q),
(29,15,o),
(31,22,q),
(241,692,l),
(254,736,o),
(310,745,q),
(352,752,o),
(428,752,q),
(782,752,l)
);
},
{
closed = 1;
nodes = (
(271,349,l),
(370,349,l),
(410,638,l),
(357,638,l)
);
}
);
width = 765;
}
);
unicode = 198;
},
{
category = Letter;
glyphname = Ccedilla;
layers = (
{
layerId = "b692dbeb-fef6-4ff9-be0e-3d959b00990b";
name = Fore;
shapes = (
{
closed = 1;
nodes = (
(369,-158,o),
(360,-186,q),
(327,-286,o),
(241,-286,q),
(226,-286,o),
(208,-283,q),
(231,-209,l),
(237,-210,o),
(242,-210,q),
(276,-210,o),
(287,-173,q),
(290,-162,o),
(290,-154,q),
(290,-127,o),
(258,-122,q),
(203,-112,l),
(234,-12,l),
(122,2,o),
(90,88,q),
(73,134,o),
(73,206.5,q),
(73,279,o),
(86,371,q),
(108,531,o),
(144.5,615.5,q),
(181,700,o),
(240,734,q),
(299,768,o),
(407.5,768,q),
(516,768,o),
(562,734,q),
(569,728,o),
(569,719,q),
(569,710,o),
(555,681,q),
(541,652,o),
(531.5,640.5,q),
(522,629,o),
(512.5,629,q),
(503,629,o),
(498,630,q),
(425,645,o),
(370.5,645,q),
(316,645,o),
(291,585,q),
(266,525,o),
(247,388.5,q),
(228,252,o),
(228,200.5,q),
(228,149,o),
(244,128.5,q),
(260,108,o),
(301.5,108,q),
(343,108,o),
(446,118,q),
(462,119,o),
(468,111.5,q),
(474,104,o),
(472,89,q),
(465,39,o),
(457,20,q),
(449,1,o),
(426,-3,q),
(335,-16,o),
(291,-16,q),
(282,-47,l),
(369,-64,o),
(369,-135,q)
);
}
);
width = 469;
}
);
unicode = 199;
},
{
category = Letter;
glyphname = Egrave;
layers = (
{
layerId = "b692dbeb-fef6-4ff9-be0e-3d959b00990b";
name = Fore;
shapes = (
{
closed = 1;
nodes = (
(336,792,l),
(200,964,l),
(316,1024,l),
(354,992,l),
(393,868,l),
(385,813,l)
);
},
{
closed = 1;
nodes = (
(544,750,o),
(544,725,q),
(544,713,o),
(537,688,q),
(522,632,o),
(485,632,q),
(262,632,l),
(248,455,l),
(441,455,l),
(477,455,o),
(477,428,q),
(477,424,o),
(473.5,397.5,q),
(470,371,o),
(461,352.5,q),
(452,334,o),
(427,334,q),
(231,334,l),
(202,121,l),
(433,121,l),
(456,120,o),
(464,111.5,q),
(472,103,o),
(470,86,q),
(463,37,o),
(451.5,18.5,q),
(440,0,o),
(413,0,q),
(61,0,l),
(47,16,l),
(150,752,l),
(505,752,l)
);
}
);
width = 450;
}
);
unicode = 200;
},
{
category = Letter;
glyphname = Eacute;
layers = (
{
layerId = "b692dbeb-fef6-4ff9-be0e-3d959b00990b";
name = Fore;
shapes = (
{
closed = 1;
nodes = (
(298,813,l),
(304,868,l),
(379,992,l),
(425,1024,l),
(525,964,l),
(341,792,l)
);
},
{
closed = 1;
nodes = (
(528,750,o),
(528,725,q),
(528,713,o),
(521,688,q),
(506,632,o),
(469,632,q),
(246,632,l),
(232,455,l),
(425,455,l),
(461,455,o),
(461,428,q),
(461,424,o),
(457.5,397.5,q),
(454,371,o),
(445,352.5,q),
(436,334,o),
(411,334,q),
(215,334,l),
(186,121,l),
(417,121,l),
(440,120,o),
(448,111.5,q),
(456,103,o),
(454,86,q),
(447,37,o),
(435.5,18.5,q),
(424,0,o),
(397,0,q),
(45,0,l),
(31,16,l),
(134,752,l),
(489,752,l)
);
}
);
width = 451;
}
);
unicode = 201;
},
{
category = Letter;
glyphname = Ecircumflex;
layers = (
{
layerId = "b692dbeb-fef6-4ff9-be0e-3d959b00990b";
name = Fore;
shapes = (
{
closed = 1;
nodes = (
(191,860,l),
(212,914,l),
(327,1004,l),
(378,1024,l),
(425,1004,l),
(514,914,l),
(519,860,l),
(476,828,l),
(362,909,l),
(226,828,l)
);
},
{
closed = 1;
nodes = (
(537,750,o),
(537,725,q),
(537,713,o),
(530,688,q),
(515,632,o),
(478,632,q),
(255,632,l),
(241,455,l),
(434,455,l),
(470,455,o),
(470,428,q),
(470,424,o),
(466.5,397.5,q),
(463,371,o),
(454,352.5,q),
(445,334,o),
(420,334,q),
(224,334,l),
(195,121,l),
(426,121,l),
(449,120,o),
(457,111.5,q),
(465,103,o),
(463,86,q),
(456,37,o),
(444.5,18.5,q),
(433,0,o),
(406,0,q),
(54,0,l),
(40,16,l),
(143,752,l),
(498,752,l)
);
}
);
width = 461;
}
);
unicode = 202;
},
{
category = Letter;
glyphname = Edieresis;
layers = (
{
layerId = "b692dbeb-fef6-4ff9-be0e-3d959b00990b";
name = Fore;
shapes = (
{
closed = 1;
nodes = (
(326,1024,o),
(326,968,q),
(326,961,o),
(325,952,q),
(315,880,o),
(243,880,q),
(180,880,o),
(180,936,q),
(180,943,o),
(181,952,q),
(191,1024,o),
(263,1024,q)
);
},
{
closed = 1;
nodes = (
(560,1024,o),
(560,968,q),
(560,961,o),
(559,952,q),
(549,880,o),
(477,880,q),
(414,880,o),
(414,936,q),
(414,943,o),
(415,952,q),
(425,1024,o),
(497,1024,q)
);
},
{
closed = 1;
nodes = (
(540,750,o),
(540,725,q),
(540,713,o),
(533,688,q),
(518,632,o),
(481,632,q),
(258,632,l),
(244,455,l),
(437,455,l),
(473,455,o),
(473,428,q),
(473,424,o),
(469.5,397.5,q),
(466,371,o),
(457,352.5,q),
(448,334,o),
(423,334,q),
(227,334,l),
(198,121,l),
(429,121,l),
(452,120,o),
(460,111.5,q),
(468,103,o),
(466,86,q),
(459,37,o),
(447.5,18.5,q),
(436,0,o),
(409,0,q),
(57,0,l),
(43,16,l),
(146,752,l),
(501,752,l)
);
}
);
width = 466;
}
);
unicode = 203;
},
{
category = Letter;
glyphname = Igrave;
layers = (
{
layerId = "b692dbeb-fef6-4ff9-be0e-3d959b00990b";
name = Fore;
shapes = (
{
closed = 1;
nodes = (
(290,792,l),
(154,964,l),
(270,1024,l),
(308,992,l),
(347,868,l),
(339,813,l)
);
},
{
closed = 1;
nodes = (
(158,752,o),
(201,752,q),
(378,752,l),
(418,752,o),
(418,726,q),
(418,724,o),
(418,721,q),
(405,632,o),
(370,632,q),
(345,632,l),
(327,432,l),
(285,121,l),
(315,121,l),
(346,120,o),
(346,96,q),
(346,78,o),
(338,54,q),
(320,0,o),
(284,0,q),
(95,0,l),
(77,1,o),
(73,10.5,q),
(69,20,o),
(69,31.5,q),
(69,43,o),
(72,66,q),
(77,121,o),
(108,121,q),
(144,121,l),
(215,632,l),
(185,632,l),
(166,633,o),
(162,642.5,q),
(158,652,o),
(158,668,q)
);
}
);
width = 335;
}
);
unicode = 204;
},
{
category = Letter;
glyphname = Iacute;
layers = (
{
layerId = "b692dbeb-fef6-4ff9-be0e-3d959b00990b";
name = Fore;
shapes = (
{
closed = 1;
nodes = (
(224,813,l),
(230,868,l),
(305,992,l),
(351,1024,l),
(451,964,l),
(267,792,l)
);
},
{
closed = 1;
nodes = (
(104,752,o),
(147,752,q),
(324,752,l),
(364,752,o),
(364,726,q),
(364,724,o),
(364,721,q),
(351,632,o),
(316,632,q),
(291,632,l),
(273,432,l),
(231,121,l),
(261,121,l),
(292,120,o),
(292,96,q),
(292,78,o),
(284,54,q),
(266,0,o),
(230,0,q),
(41,0,l),
(23,1,o),
(19,10.5,q),
(15,20,o),
(15,31.5,q),
(15,43,o),
(18,66,q),
(23,121,o),
(54,121,q),
(90,121,l),
(161,632,l),
(131,632,l),
(112,633,o),
(108,642.5,q),
(104,652,o),
(104,668,q)
);
}
);
width = 335;
}
);
unicode = 205;
},
{
category = Letter;
glyphname = Icircumflex;
layers = (
{
layerId = "b692dbeb-fef6-4ff9-be0e-3d959b00990b";
name = Fore;
shapes = (
{
closed = 1;
nodes = (
(143,860,l),
(164,914,l),
(279,1004,l),
(330,1024,l),
(377,1004,l),
(466,914,l),
(471,860,l),
(428,828,l),
(314,909,l),
(178,828,l)
);
},
{
closed = 1;
nodes = (
(153,752,o),
(196,752,q),
(373,752,l),
(413,752,o),
(413,726,q),
(413,724,o),
(413,721,q),
(400,632,o),
(365,632,q),
(340,632,l),
(322,432,l),
(280,121,l),
(310,121,l),
(341,120,o),
(341,96,q),
(341,78,o),
(333,54,q),
(315,0,o),
(279,0,q),
(90,0,l),
(72,1,o),
(68,10.5,q),
(64,20,o),
(64,31.5,q),
(64,43,o),
(67,66,q),
(72,121,o),
(103,121,q),
(139,121,l),
(210,632,l),
(180,632,l),
(161,633,o),
(157,642.5,q),
(153,652,o),
(153,668,q)
);
}
);
width = 376;
}
);
unicode = 206;
},
{
category = Letter;
glyphname = Idieresis;
layers = (
{
layerId = "b692dbeb-fef6-4ff9-be0e-3d959b00990b";
name = Fore;
shapes = (
{
closed = 1;
nodes = (
(299,1024,o),
(299,968,q),
(299,961,o),
(298,952,q),
(288,880,o),
(216,880,q),
(153,880,o),
(153,936,q),
(153,943,o),
(154,952,q),
(164,1024,o),
(236,1024,q)
);
},
{
closed = 1;
nodes = (
(533,1024,o),
(533,968,q),
(533,961,o),
(532,952,q),
(522,880,o),
(450,880,q),
(387,880,o),
(387,936,q),
(387,943,o),
(388,952,q),
(398,1024,o),
(470,1024,q)
);
},
{
closed = 1;
nodes = (
(197,752,o),
(240,752,q),
(417,752,l),
(457,752,o),
(457,726,q),
(457,724,o),
(457,721,q),
(444,632,o),
(409,632,q),
(384,632,l),
(366,432,l),
(324,121,l),
(354,121,l),
(385,120,o),
(385,96,q),
(385,78,o),
(377,54,q),
(359,0,o),
(323,0,q),
(134,0,l),
(116,1,o),
(112,10.5,q),
(108,20,o),
(108,31.5,q),
(108,43,o),
(111,66,q),
(116,121,o),
(147,121,q),
(183,121,l),
(254,632,l),
(224,632,l),
(205,633,o),
(201,642.5,q),
(197,652,o),
(197,668,q)
);
}
);
width = 421;
}
);
unicode = 207;
},
{
category = Letter;
glyphname = Eth;
layers = (
{
layerId = "b692dbeb-fef6-4ff9-be0e-3d959b00990b";
name = Fore;
shapes = (
{
closed = 1;
nodes = (
(304,768,o),
(370.5,768,q),
(437,768,o),
(479,758,q),
(570,736,o),
(592,654,q),
(603,611,o),
(603,550,q),
(603,484,o),
(588,383,q),
(557,161,o),
(486.5,72.5,q),
(416,-16,o),
(261,-16,q),
(224,-16,o),
(45,0,q),
(150,751,l)
);
},
{
closed = 1;
nodes = (
(369,424,o),
(365.5,397.5,q),
(362,371,o),
(353,352.5,q),
(344,334,o),
(319,334,q),
(232,334,l),
(203,124,l),
(202,114,o),
(215,111.5,q),
(228,109,o),
(266.5,109,q),
(305,109,o),
(321,111,q),
(337,113,o),
(353,123,q),
(369,133,o),
(377,147,q),
(385,161,o),
(394,194,q),
(405,232,o),
(423.5,358.5,q),
(442,485,o),
(442,551,q),
(442,649,o),
(408,649,q),
(321,649,o),
(298.5,645.5,q),
(276,642,o),
(273,626,q),
(249,455,l),
(337,455,l),
(369,453,o),
(369,428,q)
);
}
);
width = 571;
}
);
unicode = 208;
},
{
category = Letter;
glyphname = Ntilde;
layers = (
{
layerId = "b692dbeb-fef6-4ff9-be0e-3d959b00990b";
name = Fore;
shapes = (
{
closed = 1;
nodes = (
(556,884,o),
(517.5,884,q),
(479,884,o),
(404.5,874,q),
(330,864,o),
(280,864,q),
(230,864,o),
(219.5,872.5,q),
(209,881,o),
(209,894.5,q),
(209,908,o),
(210,916,q),
(242,967,l),
(317,967,o),
(384,976,q),
(451,985,o),
(504,985,q),
(557,985,o),
(571.5,975.5,q),
(586,966,o),
(586,944,q),
(586,937,o),
(585,929,q),
(563,884,l)
);
},
{
closed = 1;
nodes = (
(237,768,o),
(245.5,767,q),
(254,766,o),
(266,757.5,q),
(278,749,o),
(286,733,q),
(405,313,l),
(458,732,l),
(463,768,o),
(535,768,q),
(565,768,o),
(574,761.5,q),
(583,755,o),
(583,745.5,q),
(583,736,o),
(583,732,q),
(557,431,l),
(499,21,l),
(496,-3,o),
(489,-9.5,q),
(482,-16,o),
(454,-16,q),
(389,-16,o),
(381,21,q),
(243,436,l),
(186,22,l),
(182,-3,o),
(175,-9.5,q),
(168,-16,o),
(140,-16,q),
(40,-16,o),
(46,24,q),
(145,731,l),
(150,768,o),
(222,768,q)
);
}
);
width = 527;
}
);
unicode = 209;
},
{
category = Letter;
glyphname = Ograve;
layers = (
{
layerId = "b692dbeb-fef6-4ff9-be0e-3d959b00990b";
name = Fore;
shapes = (
{
closed = 1;
nodes = (
(297,768,o),
(387.5,768,q),
(478,768,o),
(523,750.5,q),
(568,733,o),
(594.5,688.5,q),
(621,644,o),
(621,568.5,q),
(621,493,o),
(606,371,q),
(575,152,o),
(507,68,q),
(439,-16,o),
(290,-16,q),
(141,-16,o),
(96,68,q),
(70,118,o),
(70,199.5,q),
(70,281,o),
(83,371,q),
(105,531,o),
(141.5,615.5,q),
(178,700,o),
(237.5,734,q)
);
},
{
closed = 1;
nodes = (
(402,662,o),
(377,658.5,q),
(352,655,o),
(331,641.5,q),
(310,628,o),
(298.5,611.5,q),
(287,595,o),
(276,558,q),
(261,508,o),
(244,383,q),
(222,232,o),
(222,180.5,q),
(222,129,o),
(228.5,112.5,q),
(235,96,o),
(252,96,q),
(293,96,o),
(315.5,97.5,q),
(338,99,o),
(360.5,110.5,q),
(383,122,o),
(393,136,q),
(403,150,o),
(414,186,q),
(439,263,o),
(463,474,q),
(471,541,o),
(471,601.5,q),
(471,662,o),
(442,662,q)
);
},
{
closed = 1;
nodes = (
(378,792,l),
(242,964,l),
(358,1024,l),
(396,992,l),
(435,868,l),
(427,813,l)
);
}
);
width = 577;
}
);
unicode = 210;
},
{
category = Letter;
glyphname = Oacute;
layers = (
{
layerId = "b692dbeb-fef6-4ff9-be0e-3d959b00990b";
name = Fore;
shapes = (
{
closed = 1;
nodes = (
(289,768,o),
(379.5,768,q),
(470,768,o),
(515,750.5,q),
(560,733,o),
(586.5,688.5,q),
(613,644,o),
(613,568.5,q),
(613,493,o),
(598,371,q),
(567,152,o),
(499,68,q),
(431,-16,o),
(282,-16,q),
(133,-16,o),
(88,68,q),
(62,118,o),
(62,199.5,q),
(62,281,o),
(75,371,q),
(97,531,o),
(133.5,615.5,q),
(170,700,o),
(229.5,734,q)
);
},
{
closed = 1;
nodes = (
(394,662,o),
(369,658.5,q),
(344,655,o),
(323,641.5,q),
(302,628,o),
(290.5,611.5,q),
(279,595,o),
(268,558,q),
(253,508,o),
(236,383,q),
(214,232,o),
(214,180.5,q),
(214,129,o),
(220.5,112.5,q),
(227,96,o),
(244,96,q),
(285,96,o),
(307.5,97.5,q),
(330,99,o),
(352.5,110.5,q),
(375,122,o),
(385,136,q),
(395,150,o),
(406,186,q),
(431,263,o),
(455,474,q),
(463,541,o),
(463,601.5,q),
(463,662,o),
(434,662,q)
);
},
{
closed = 1;
nodes = (
(371,813,l),
(377,868,l),
(452,992,l),
(498,1024,l),
(598,964,l),
(414,792,l)
);
}
);
width = 577;
}
);
unicode = 211;
},
{
category = Letter;
glyphname = Ocircumflex;
layers = (
{
layerId = "b692dbeb-fef6-4ff9-be0e-3d959b00990b";
name = Fore;
shapes = (
{
closed = 1;
nodes = (
(296,768,o),
(386.5,768,q),
(477,768,o),
(522,750.5,q),
(567,733,o),
(593.5,688.5,q),
(620,644,o),
(620,568.5,q),
(620,493,o),
(605,371,q),
(574,152,o),
(506,68,q),
(438,-16,o),
(289,-16,q),
(140,-16,o),
(96,68,q),
(69,118,o),
(69,199.5,q),
(69,281,o),
(82,371,q),
(104,531,o),
(140.5,615.5,q),
(177,700,o),
(236.5,734,q)
);
},
{
closed = 1;
nodes = (
(401,662,o),
(376,658.5,q),
(351,655,o),
(330,641.5,q),
(309,628,o),
(297.5,611.5,q),
(286,595,o),
(275,558,q),
(260,508,o),
(243,383,q),
(221,232,o),
(221,180.5,q),
(221,129,o),
(227.5,112.5,q),
(234,96,o),
(251,96,q),
(292,96,o),
(314.5,97.5,q),
(337,99,o),
(359.5,110.5,q),
(382,122,o),
(392,136,q),
(402,150,o),
(414,186,q),
(438,263,o),
(462,474,q),
(470,541,o),
(470,601.5,q),
(470,662,o),
(441,662,q)
);
},
{
closed = 1;
nodes = (
(247,860,l),
(268,914,l),
(383,1004,l),
(434,1024,l),
(481,1004,l),
(570,914,l),
(575,860,l),
(532,828,l),
(418,909,l),
(282,828,l)
);
}
);
width = 583;
}
);
unicode = 212;
},
{
category = Letter;
glyphname = Otilde;
layers = (
{
layerId = "b692dbeb-fef6-4ff9-be0e-3d959b00990b";
name = Fore;
shapes = (
{
closed = 1;
nodes = (
(296,768,o),
(386.5,768,q),
(477,768,o),
(522,750.5,q),
(567,733,o),
(593.5,688.5,q),
(620,644,o),
(620,568.5,q),
(620,493,o),
(605,371,q),
(574,152,o),
(506,68,q),
(438,-16,o),
(289,-16,q),
(140,-16,o),
(96,68,q),
(69,118,o),
(69,199.5,q),
(69,281,o),
(82,371,q),
(104,531,o),
(140.5,615.5,q),
(177,700,o),
(236.5,734,q)
);
},
{
closed = 1;
nodes = (
(401,662,o),
(376,658.5,q),
(351,655,o),
(330,641.5,q),
(309,628,o),
(297.5,611.5,q),
(286,595,o),
(275,558,q),
(260,508,o),
(243,383,q),
(221,232,o),
(221,180.5,q),
(221,129,o),
(227.5,112.5,q),
(234,96,o),
(251,96,q),
(292,96,o),
(314.5,97.5,q),
(337,99,o),
(359.5,110.5,q),
(382,122,o),
(392,136,q),
(402,150,o),
(414,186,q),
(438,263,o),
(462,474,q),
(470,541,o),
(470,601.5,q),
(470,662,o),
(441,662,q)
);
},
{
closed = 1;
nodes = (
(578,884,o),
(539.5,884,q),
(501,884,o),
(426.5,874,q),
(352,864,o),
(302,864,q),
(252,864,o),
(241.5,872.5,q),
(231,881,o),
(231,894.5,q),
(231,908,o),
(232,916,q),
(264,967,l),
(339,967,o),
(406,976,q),
(473,985,o),
(526,985,q),
(579,985,o),
(593.5,975.5,q),
(608,966,o),
(608,944,q),
(608,937,o),
(607,929,q),
(585,884,l)
);
}
);
width = 583;
}
);
unicode = 213;
},
{
category = Letter;
glyphname = Odieresis;
layers = (
{
layerId = "b692dbeb-fef6-4ff9-be0e-3d959b00990b";
name = Fore;
shapes = (
{
closed = 1;
nodes = (
(297,768,o),
(387.5,768,q),
(478,768,o),
(523,750.5,q),
(568,733,o),
(594.5,688.5,q),
(621,644,o),
(621,568.5,q),
(621,493,o),
(606,371,q),
(575,152,o),
(507,68,q),
(439,-16,o),
(290,-16,q),
(141,-16,o),
(96,68,q),
(70,118,o),
(70,199.5,q),
(70,281,o),
(83,371,q),
(105,531,o),
(141.5,615.5,q),
(178,700,o),
(237.5,734,q)
);
},
{
closed = 1;
nodes = (
(402,662,o),
(377,658.5,q),
(352,655,o),
(331,641.5,q),
(310,628,o),
(298.5,611.5,q),
(287,595,o),
(276,558,q),
(261,508,o),
(244,383,q),
(222,232,o),
(222,180.5,q),
(222,129,o),
(228.5,112.5,q),
(235,96,o),
(252,96,q),
(293,96,o),
(315.5,97.5,q),
(338,99,o),
(360.5,110.5,q),
(383,122,o),
(393,136,q),
(403,150,o),
(414,186,q),
(439,263,o),
(463,474,q),
(471,541,o),
(471,601.5,q),
(471,662,o),
(442,662,q)
);
},
{
closed = 1;
nodes = (
(381,1024,o),
(381,968,q),
(381,961,o),
(380,952,q),
(370,880,o),
(298,880,q),
(235,880,o),
(235,936,q),
(235,943,o),
(236,952,q),
(246,1024,o),
(318,1024,q)
);
},
{
closed = 1;
nodes = (
(615,1024,o),
(615,968,q),
(615,961,o),
(614,952,q),
(604,880,o),
(532,880,q),
(469,880,o),
(469,936,q),
(469,943,o),
(470,952,q),
(480,1024,o),
(552,1024,q)
);
}
);
width = 586;
}
);
unicode = 214;
},
{
category = Letter;
glyphname = multiply;
layers = (
{
layerId = "b692dbeb-fef6-4ff9-be0e-3d959b00990b";
name = Fore;
shapes = (
{
closed = 1;
nodes = (
(276,457,l),
(374,543,l),
(397,543,l),
(452,478,l),
(448,454,l),
(351,369,l),
(435,273,l),
(336,185,l),
(252,282,l),
(143,186,l),
(67,273,l),
(176,369,l),
(103,454,l),
(107,477,l),
(181,541,l),
(205,541,l)
);
}
);
width = 427;
}
);
unicode = 215;
},
{
category = Letter;
glyphname = Oslash;
layers = (
{
layerId = "b692dbeb-fef6-4ff9-be0e-3d959b00990b";
name = Fore;
shapes = (
{
closed = 1;
nodes = (
(64,61,o),
(64,211,q),
(64,279,o),
(78,371,q),
(100,530,o),
(136.5,612,q),
(173,694,o),
(231.5,725,q),
(290,756,o),
(394,756,q),
(431,755,l),
(478,876,l),
(583,876,l),
(568,769,l),
(550,724,l),
(616,680,o),
(616,542,q),
(616,472,o),
(602,371,q),
(571,152,o),
(503,68,q),
(435,-16,o),
(285,-16,q),
(271,-16,l),
(223,-146,l),
(87,-146,l),
(91,-114,l),
(141,14,l)
);
},
{
closed = 1;
nodes = (
(220,254,o),
(220,156,q),
(220,99,o),
(247,99,q),
(334,99,o),
(363,118,q),
(374,124,o),
(386,140,q),
(398,156,o),
(404,173,q),
(410,190,o),
(417,222,q),
(431,278,o),
(445,381,q),
(463,512,o),
(463,562,q),
(463,612,o),
(457,629,q),
(451,646,o),
(434,646,q),
(394,646,o),
(370.5,643.5,q),
(347,641,o),
(326,629,q),
(305,617,o),
(294.5,602.5,q),
(284,588,o),
(273,552,q),
(262,516,o),
(256,478,q)
);
}
);
width = 578;
}
);
unicode = 216;
},
{
category = Letter;
glyphname = Ugrave;
layers = (
{
layerId = "b692dbeb-fef6-4ff9-be0e-3d959b00990b";
name = Fore;
shapes = (
{
closed = 1;
nodes = (
(362,792,l),
(226,964,l),
(342,1024,l),
(380,992,l),
(419,868,l),
(411,813,l)
);
},
{
closed = 1;
nodes = (
(272,109,o),
(291.5,110.5,q),
(311,112,o),
(330,122.5,q),
(349,133,o),
(358,147,q),
(367,161,o),
(377.5,194.5,q),
(388,228,o),
(394,265,q),
(400,302,o),
(410,370,q),
(459,722,l),
(463,750,o),
(476,759,q),
(489,768,o),
(527,768,q),
(565,768,o),
(576,757.5,q),
(587,747,o),
(587,728,q),
(587,709,o),
(586,698,q),
(560,429,l),
(537,252,o),
(502,157,q),
(467,62,o),
(412.5,23,q),
(358,-16,o),
(265,-16,q),
(131,-16,o),
(92,68,q),
(70,115,o),
(70,194,q),
(70,273,o),
(84,370,q),
(130,700,l),
(136,743,o),
(150,755.5,q),
(164,768,o),
(203,768,q),
(242,768,o),
(252,756.5,q),
(262,745,o),
(262,725,q),
(262,705,o),
(261,690,q),
(239,431,l),
(213,248,o),
(213,178.5,q),
(213,109,o),
(237,109,q)
);
}
);
width = 529;
}
);
unicode = 217;
},
{
category = Letter;
glyphname = Uacute;
layers = (
{
layerId = "b692dbeb-fef6-4ff9-be0e-3d959b00990b";
name = Fore;
shapes = (
{
closed = 1;
nodes = (
(346,813,l),
(352,868,l),
(427,992,l),
(473,1024,l),
(573,964,l),
(389,792,l)
);
},
{
closed = 1;
nodes = (
(266,109,o),
(285.5,110.5,q),
(305,112,o),
(324,122.5,q),
(343,133,o),
(352,147,q),
(361,161,o),
(371.5,194.5,q),
(382,228,o),
(388,265,q),
(394,302,o),
(404,370,q),
(453,722,l),
(457,750,o),
(470,759,q),
(483,768,o),
(521,768,q),
(559,768,o),
(570,757.5,q),
(581,747,o),
(581,728,q),
(581,709,o),
(580,698,q),
(554,429,l),
(531,252,o),
(496,157,q),
(461,62,o),
(406.5,23,q),
(352,-16,o),
(259,-16,q),
(125,-16,o),
(86,68,q),
(64,115,o),
(64,194,q),
(64,273,o),
(78,370,q),
(124,700,l),
(130,743,o),
(144,755.5,q),
(158,768,o),
(197,768,q),
(236,768,o),
(246,756.5,q),
(256,745,o),
(256,725,q),
(256,705,o),
(255,690,q),
(233,431,l),
(207,248,o),
(207,178.5,q),
(207,109,o),
(231,109,q)
);
}
);
width = 528;
}
);
unicode = 218;
},
{
category = Letter;
glyphname = Ucircumflex;
layers = (
{
layerId = "b692dbeb-fef6-4ff9-be0e-3d959b00990b";
name = Fore;
shapes = (
{
closed = 1;
nodes = (
(223,860,l),
(244,914,l),
(359,1004,l),
(410,1024,l),
(457,1004,l),
(546,914,l),
(551,860,l),
(508,828,l),
(394,909,l),
(258,828,l)
);
},
{
closed = 1;
nodes = (
(272,109,o),
(291.5,110.5,q),
(311,112,o),
(330,122.5,q),
(349,133,o),
(358,147,q),
(367,161,o),
(377.5,194.5,q),
(388,228,o),
(394,265,q),
(400,302,o),
(410,370,q),
(459,722,l),
(463,750,o),
(476,759,q),
(489,768,o),
(527,768,q),
(565,768,o),
(576,757.5,q),
(587,747,o),
(587,728,q),
(587,709,o),
(586,698,q),
(560,429,l),
(537,252,o),
(502,157,q),
(467,62,o),
(412.5,23,q),
(358,-16,o),
(265,-16,q),
(131,-16,o),
(92,68,q),
(70,115,o),
(70,194,q),
(70,273,o),
(84,370,q),
(130,700,l),
(136,743,o),
(150,755.5,q),
(164,768,o),
(203,768,q),
(242,768,o),
(252,756.5,q),
(262,745,o),
(262,725,q),
(262,705,o),
(261,690,q),
(239,431,l),
(213,248,o),
(213,178.5,q),
(213,109,o),
(237,109,q)
);
}
);
width = 536;
}
);
unicode = 219;
},
{
category = Letter;
glyphname = Udieresis;
layers = (
{
layerId = "b692dbeb-fef6-4ff9-be0e-3d959b00990b";
name = Fore;
shapes = (
{
closed = 1;
nodes = (
(358,1024,o),
(358,968,q),
(358,961,o),
(357,952,q),
(347,880,o),
(275,880,q),
(212,880,o),
(212,936,q),
(212,943,o),
(213,952,q),
(223,1024,o),
(295,1024,q)
);
},
{
closed = 1;
nodes = (
(592,1024,o),
(592,968,q),
(592,961,o),
(591,952,q),
(581,880,o),
(509,880,q),
(446,880,o),
(446,936,q),
(446,943,o),
(447,952,q),
(457,1024,o),
(529,1024,q)
);
},
{
closed = 1;
nodes = (
(272,109,o),
(291.5,110.5,q),
(311,112,o),
(330,122.5,q),
(349,133,o),
(358,147,q),
(367,161,o),
(377.5,194.5,q),
(388,228,o),
(394,265,q),
(400,302,o),
(410,370,q),
(459,722,l),
(463,750,o),
(476,759,q),
(489,768,o),
(527,768,q),
(565,768,o),
(576,757.5,q),
(587,747,o),
(587,728,q),
(587,709,o),
(586,698,q),
(560,429,l),
(537,252,o),
(502,157,q),
(467,62,o),
(412.5,23,q),
(358,-16,o),
(265,-16,q),
(131,-16,o),
(92,68,q),
(70,115,o),
(70,194,q),
(70,273,o),
(84,370,q),
(130,700,l),
(136,743,o),
(150,755.5,q),
(164,768,o),
(203,768,q),
(242,768,o),
(252,756.5,q),
(262,745,o),
(262,725,q),
(262,705,o),
(261,690,q),
(239,431,l),
(213,248,o),
(213,178.5,q),
(213,109,o),
(237,109,q)
);
}
);
width = 539;
}
);
unicode = 220;
},
{
category = Letter;
glyphname = Yacute;
layers = (
{
layerId = "b692dbeb-fef6-4ff9-be0e-3d959b00990b";
name = Fore;
shapes = (
{
closed = 1;
nodes = (
(364,813,l),
(370,868,l),
(445,992,l),
(491,1024,l),
(591,964,l),
(407,792,l)
);
},
{
closed = 1;
nodes = (
(238,-16,o),
(238,17,q),
(238,19,o),
(238,22,q),
(284,349,l),
(119,732,l),
(117,738,o),
(117,743,q),
(117,768,o),
(184.5,768,q),
(252,768,o),
(262,731,q),
(366,492,l),
(519,734,l),
(529,754,o),
(544,761,q),
(559,768,o),
(589,768,q),
(654,768,o),
(654,745,q),
(654,739,o),
(649,731,q),
(401,349,l),
(354,21,l),
(351,-3,o),
(344,-9.5,q),
(337,-16,o),
(309,-16,q)
);
}
);
width = 562;
}
);
unicode = 221;
},
{
category = Letter;
glyphname = Thorn;
layers = (
{
layerId = "b692dbeb-fef6-4ff9-be0e-3d959b00990b";
name = Fore;
shapes = (
{
closed = 1;
nodes = (
(179,-6,l),
(179,-11,o),
(169,-14,q),
(166,-14,o),
(162,-15,q),
(158,-16,o),
(153,-16,q),
(141,-16,l),
(92,-16,o),
(69,-10,q),
(46,-4,o),
(47,0,q),
(153,755,l),
(155,771,o),
(191,771,q),
(227,771,o),
(257,766,q),
(287,761,o),
(286,755,q),
(268,627,l),
(316,627,l),
(436,627,o),
(473,574,q),
(496,540,o),
(496,482.5,q),
(496,425,o),
(488,371,q),
(466,220,o),
(423,159.5,q),
(380,99,o),
(306,99,q),
(277,99,o),
(195,110,q),
(180,0,l)
);
},
{
closed = 1;
nodes = (
(318,195,o),
(341,352,q),
(352,427,o),
(352,458.5,q),
(352,490,o),
(348,502,q),
(339,531,o),
(302,531,q),
(254,531,l),
(207,195,l),
(303,195,l)
);
}
);
width = 451;
}
);
unicode = 222;
},
{
category = Letter;
glyphname = germandbls;
layers = (
{
layerId = "b692dbeb-fef6-4ff9-be0e-3d959b00990b";
name = Fore;
shapes = (
{
closed = 1;
nodes = (
(171,-76,l),
(171,-81,o),
(161,-84,q),
(158,-84,o),
(154,-85,q),
(150,-86,o),
(145,-86,q),
(133,-86,l),
(82,-86,o),
(57.5,-80,q),
(33,-74,o),
(34,-70,q),
(113,496,l),
(136,657,o),
(188.5,708.5,q),
(241,760,o),
(376,760,q),
(475,760,o),
(514.5,726.5,q),
(554,693,o),
(554,623,q),
(554,563,o),
(536.5,524.5,q),
(519,486,o),
(500.5,467.5,q),
(482,449,o),
(463,434,q),
(385,373,o),
(433,344,q),
(453,332,o),
(479.5,319.5,q),
(506,307,o),
(518,300,q),
(561,277,o),
(587,244.5,q),
(613,212,o),
(613,181,q),
(613,175,o),
(612,168,q),
(601,85,o),
(549.5,34.5,q),
(498,-16,o),
(422.5,-16,q),
(347,-16,o),
(307,4,q),
(267,24,o),
(243,61,q),
(246,81,l),
(307,134,l),
(315,134,l),
(365,90,o),
(414,90,q),
(442,90,o),
(460,107.5,q),
(478,125,o),
(478,143,q),
(478,161,o),
(465,173,q),
(445,189,o),
(395,214,q),
(292,269,o),
(292,345,q),
(292,386,o),
(311,420,q),
(330,454,o),
(350,471.5,q),
(370,489,o),
(389,504,q),
(436,543,o),
(441,582,q),
(443,594,o),
(443,604,q),
(443,634,o),
(424,646.5,q),
(405,659,o),
(352.5,659,q),
(300,659,o),
(281.5,625,q),
(263,591,o),
(249,496,q),
(172,-70,l)
);
}
);
width = 607;
}
);
unicode = 223;
},
{
category = Letter;
glyphname = agrave;
layers = (
{
layerId = "b692dbeb-fef6-4ff9-be0e-3d959b00990b";
name = Fore;
shapes = (
{
closed = 1;
nodes = (
(265,536,l),
(129,708,l),
(245,768,l),
(283,736,l),
(323,612,l),
(314,557,l)
);
},
{
closed = 1;
nodes = (
(70,-16,o),
(44,44,q),
(30,78,o),
(30,133.5,q),
(30,189,o),
(39,256,q),
(61,406,o),
(112,459,q),
(163,512,o),
(283,512,q),
(331,512,l),
(347,504,l),
(349,520,o),
(384,520,q),
(419,520,o),
(441.5,515.5,q),
(464,511,o),
(464,504,q),
(394,0,l),
(393,-6,o),
(391,-8,q),
(385,-16,o),
(362,-16,q),
(339,-16,o),
(328,-15,q),
(317,-14,o),
(308,-12.5,q),
(299,-11,o),
(292,-10,q),
(277,-6,o),
(279,0,q),
(264,31,l),
(233,12,o),
(219,4,q),
(183,-16,o),
(144,-16,q)
);
},
{
closed = 1;
nodes = (
(198,355,o),
(185,263,q),
(172,171,o),
(169.5,143.5,q),
(167,116,o),
(167,98,q),
(167,80,o),
(175,80,q),
(211,80,o),
(276,116,q),
(318,416,l),
(270,416,l),
(233,416,o),
(215.5,385.5,q)
);
}
);
width = 435;
}
);
unicode = 224;
},
{
category = Letter;
glyphname = aacute;
layers = (
{
layerId = "b692dbeb-fef6-4ff9-be0e-3d959b00990b";
name = Fore;
shapes = (
{
closed = 1;
nodes = (
(251,557,l),
(258,612,l),
(332,736,l),
(378,768,l),
(478,708,l),
(294,536,l)
);
},
{
closed = 1;
nodes = (
(70,-16,o),
(44,44,q),
(30,78,o),
(30,133.5,q),
(30,189,o),
(39,256,q),
(61,406,o),
(112,459,q),
(163,512,o),
(283,512,q),
(331,512,l),
(347,504,l),
(349,520,o),
(384,520,q),
(419,520,o),
(441.5,515.5,q),
(464,511,o),
(464,504,q),
(394,0,l),
(393,-6,o),
(391,-8,q),
(385,-16,o),
(362,-16,q),
(339,-16,o),
(328,-15,q),
(317,-14,o),
(308,-12.5,q),
(299,-11,o),
(292,-10,q),
(277,-6,o),
(279,0,q),
(264,31,l),
(233,12,o),
(219,4,q),
(183,-16,o),
(144,-16,q)
);
},
{
closed = 1;
nodes = (
(198,355,o),
(185,263,q),
(172,171,o),
(169.5,143.5,q),
(167,116,o),
(167,98,q),
(167,80,o),
(175,80,q),
(211,80,o),
(276,116,q),
(318,416,l),
(270,416,l),
(233,416,o),
(215.5,385.5,q)
);
}
);
width = 435;
}
);
unicode = 225;
},
{
category = Letter;
glyphname = acircumflex;
layers = (
{
layerId = "b692dbeb-fef6-4ff9-be0e-3d959b00990b";
name = Fore;
shapes = (
{
closed = 1;
nodes = (
(136,604,l),
(157,658,l),
(272,748,l),
(323,768,l),
(370,748,l),
(459,658,l),
(464,604,l),
(421,572,l),
(307,653,l),
(171,572,l)
);
},
{
closed = 1;
nodes = (
(70,-16,o),
(44,44,q),
(30,78,o),
(30,133.5,q),
(30,189,o),
(39,256,q),
(61,406,o),
(112,459,q),
(163,512,o),
(283,512,q),
(331,512,l),
(347,504,l),
(349,520,o),
(384,520,q),
(419,520,o),
(441.5,515.5,q),
(464,511,o),
(464,504,q),
(394,0,l),
(393,-6,o),
(391,-8,q),
(385,-16,o),
(362,-16,q),
(339,-16,o),
(328,-15,q),
(317,-14,o),
(308,-12.5,q),
(299,-11,o),
(292,-10,q),
(277,-6,o),
(279,0,q),
(264,31,l),
(233,12,o),
(219,4,q),
(183,-16,o),
(144,-16,q)
);
},
{
closed = 1;
nodes = (
(198,355,o),
(185,263,q),
(172,171,o),
(169.5,143.5,q),
(167,116,o),
(167,98,q),
(167,80,o),
(175,80,q),
(211,80,o),
(276,116,q),
(318,416,l),
(270,416,l),
(233,416,o),
(215.5,385.5,q)
);
}
);
width = 435;
}
);
unicode = 226;
},
{
category = Letter;
glyphname = atilde;
layers = (
{
layerId = "b692dbeb-fef6-4ff9-be0e-3d959b00990b";
name = Fore;
shapes = (
{
closed = 1;
nodes = (
(468,628,o),
(429.5,628,q),
(391,628,o),
(316.5,618,q),
(242,608,o),
(192,608,q),
(142,608,o),
(131.5,616.5,q),
(121,625,o),
(121,638.5,q),
(121,652,o),
(122,660,q),
(154,711,l),
(229,711,o),
(296,720,q),
(363,729,o),
(416,729,q),
(469,729,o),
(483.5,719.5,q),
(498,710,o),
(498,688,q),
(498,681,o),
(497,673,q),
(475,628,l)
);
},
{
closed = 1;
nodes = (
(70,-16,o),
(44,44,q),
(30,78,o),
(30,133.5,q),
(30,189,o),
(39,256,q),
(61,406,o),
(112,459,q),
(163,512,o),
(283,512,q),
(331,512,l),
(347,504,l),
(349,520,o),
(384,520,q),
(419,520,o),
(441.5,515.5,q),
(464,511,o),
(464,504,q),
(394,0,l),
(393,-6,o),
(391,-8,q),
(385,-16,o),
(362,-16,q),
(339,-16,o),
(328,-15,q),
(317,-14,o),
(308,-12.5,q),
(299,-11,o),
(292,-10,q),
(277,-6,o),
(279,0,q),
(264,31,l),
(233,12,o),
(219,4,q),
(183,-16,o),
(144,-16,q)
);
},
{
closed = 1;
nodes = (
(198,355,o),
(185,263,q),
(172,171,o),
(169.5,143.5,q),
(167,116,o),
(167,98,q),
(167,80,o),
(175,80,q),
(211,80,o),
(276,116,q),
(318,416,l),
(270,416,l),
(233,416,o),
(215.5,385.5,q)
);
}
);
width = 435;
}
);
unicode = 227;
},
{
category = Letter;
glyphname = adieresis;
layers = (
{
layerId = "b692dbeb-fef6-4ff9-be0e-3d959b00990b";
name = Fore;
shapes = (
{
closed = 1;
nodes = (
(270,768,o),
(270,712,q),
(270,705,o),
(269,696,q),
(259,624,o),
(187,624,q),
(124,624,o),
(124,680,q),
(124,687,o),
(125,696,q),
(135,768,o),
(207,768,q)
);
},
{
closed = 1;
nodes = (
(504,768,o),
(504,712,q),
(504,705,o),
(503,696,q),
(493,624,o),
(421,624,q),
(358,624,o),
(358,680,q),
(358,687,o),
(359,696,q),
(369,768,o),
(441,768,q)
);
},
{
closed = 1;
nodes = (
(70,-16,o),
(44,44,q),
(30,78,o),
(30,133.5,q),
(30,189,o),
(39,256,q),
(61,406,o),
(112,459,q),
(163,512,o),
(283,512,q),
(331,512,l),
(347,504,l),
(349,520,o),
(384,520,q),
(419,520,o),
(441.5,515.5,q),
(464,511,o),
(464,504,q),
(394,0,l),
(393,-6,o),
(391,-8,q),
(385,-16,o),
(362,-16,q),
(339,-16,o),
(328,-15,q),
(317,-14,o),
(308,-12.5,q),
(299,-11,o),
(292,-10,q),
(277,-6,o),
(279,0,q),
(264,31,l),
(233,12,o),
(219,4,q),
(183,-16,o),
(144,-16,q)
);
},
{
closed = 1;
nodes = (
(198,355,o),
(185,263,q),
(172,171,o),
(169.5,143.5,q),
(167,116,o),
(167,98,q),
(167,80,o),
(175,80,q),
(211,80,o),
(276,116,q),
(318,416,l),
(270,416,l),
(233,416,o),
(215.5,385.5,q)
);
}
);
width = 435;
}
);
unicode = 228;
},
{
category = Letter;
glyphname = aring;
layers = (
{
layerId = "b692dbeb-fef6-4ff9-be0e-3d959b00990b";
name = Fore;
shapes = (
{
closed = 1;
nodes = (
(406,752,o),
(406,678,q),
(406,667,o),
(404,656,q),
(390,560,o),
(294,560,q),
(210,560,o),
(210,633,q),
(210,644,o),
(212,656,q),
(225,752,o),
(321,752,q)
);
},
{
closed = 1;
nodes = (
(272,691,o),
(272,648,q),
(272,621,o),
(303,621,q),
(343,621,o),
(343,663,q),
(343,691,o),
(313,691,q)
);
},
{
closed = 1;
nodes = (
(70,-16,o),
(44,44,q),
(30,78,o),
(30,133.5,q),
(30,189,o),
(39,256,q),
(61,406,o),
(112,459,q),
(163,512,o),
(283,512,q),
(331,512,l),
(347,504,l),
(349,520,o),
(384,520,q),
(419,520,o),
(441.5,515.5,q),
(464,511,o),
(464,504,q),
(394,0,l),
(393,-6,o),
(391,-8,q),
(385,-16,o),
(362,-16,q),
(339,-16,o),
(328,-15,q),
(317,-14,o),
(308,-12.5,q),
(299,-11,o),
(292,-10,q),
(277,-6,o),
(279,0,q),
(264,31,l),
(233,12,o),
(219,4,q),
(183,-16,o),
(144,-16,q)
);
},
{
closed = 1;
nodes = (
(198,355,o),
(185,263,q),
(172,171,o),
(169.5,143.5,q),
(167,116,o),
(167,98,q),
(167,80,o),
(175,80,q),
(211,80,o),
(276,116,q),
(318,416,l),
(270,416,l),
(233,416,o),
(215.5,385.5,q)
);
}
);
width = 435;
}
);
unicode = 229;
},
{
category = Letter;
glyphname = ae;
layers = (
{
layerId = "b692dbeb-fef6-4ff9-be0e-3d959b00990b";
name = Fore;
shapes = (
{
closed = 1;
nodes = (
(335,-16,o),
(306,54,q),
(305,49,l),
(272,20,o),
(259,10,q),
(225,-16,o),
(190.5,-16,q),
(156,-16,o),
(137.5,-14,q),
(119,-12,o),
(101.5,-5,q),
(84,2,o),
(75,13.5,q),
(66,25,o),
(60.5,45,q),
(55,65,o),
(55,93,q),
(55,121,o),
(61,160,q),
(73,242,o),
(156,271,q),
(304,308,l),
(307,336,o),
(307,358.5,q),
(307,381,o),
(302,392,q),
(293,411,o),
(253,411,q),
(213,411,o),
(182,398,q),
(142,398,l),
(130,478,l),
(179,512,o),
(267,512,q),
(355,512,o),
(395,484,q),
(394,483,l),
(437,512,o),
(526.5,512,q),
(616,512,o),
(651.5,479,q),
(687,446,o),
(687,351,q),
(687,288,o),
(662,258,q),
(632,223,o),
(440,223,q),
(432,155,o),
(432,132.5,q),
(432,110,o),
(433,104,q),
(438,82,o),
(466,82,q),
(595,82,o),
(647,95,q),
(648,95,o),
(651.5,96,q),
(655,97,o),
(658,94,q),
(666,85,o),
(660,56,q),
(655,4,o),
(637,0,q),
(593,-16,o),
(452,-16,q)
);
},
{
closed = 1;
nodes = (
(170,85,o),
(203,82,q),
(232,82,o),
(247,92,q),
(276,110,o),
(294,234,q),
(241,227,o),
(208,205.5,q),
(175,184,o),
(172,158,q),
(170,144,o),
(170,132,q)
);
},
{
closed = 1;
nodes = (
(556,419,o),
(545,419,q),
(511,419,o),
(487.5,409,q),
(464,399,o),
(462,381,q),
(451,303,l),
(520,303,o),
(538,312.5,q),
(556,322,o),
(556,356,q)
);
}
);
width = 682;
}
);
unicode = 230;
},
{
category = Letter;
glyphname = ccedilla;
layers = (
{
layerId = "b692dbeb-fef6-4ff9-be0e-3d959b00990b";
name = Fore;
shapes = (
{
closed = 1;
nodes = (
(423,475,o),
(423,463,q),
(423,451,o),
(411,424,q),
(399,397,o),
(391,389.5,q),
(383,382,o),
(376,384,q),
(375,384,l),
(342,398,l),
(316,411,o),
(274,411,q),
(232,411,o),
(216,377,q),
(200,343,o),
(189.5,266,q),
(179,189,o),
(179,158.5,q),
(179,128,o),
(183,115,q),
(192,82,o),
(233,82,q),
(292,82,o),
(326,89,q),
(360,96,o),
(363,96.5,q),
(366,97,o),
(369,94,q),
(377,85,o),
(371,56,q),
(366,4,o),
(348,0,q),
(291,-15,o),
(229,-16,q),
(220,-47,l),
(307,-64,o),
(307,-135,q),
(307,-158,o),
(298,-186,q),
(265,-286,o),
(179,-286,q),
(164,-286,o),
(146,-283,q),
(169,-209,l),
(175,-210,o),
(180,-210,q),
(214,-210,o),
(225,-173,q),
(228,-162,o),
(228,-154,q),
(228,-127,o),
(196,-122,q),
(141,-112,l),
(172,-13,l),
(84,-3,o),
(58,56,q),
(43,90,o),
(43,141.5,q),
(43,193,o),
(52.5,263,q),
(62,333,o),
(78.5,382.5,q),
(95,432,o),
(125,461.5,q),
(155,491,o),
(194,501.5,q),
(233,512,o),
(302.5,512,q),
(372,512,o),
(417,478,q),
(418,478,l)
);
}
);
width = 380;
}
);
unicode = 231;
},
{
category = Letter;
glyphname = egrave;
layers = (
{
layerId = "b692dbeb-fef6-4ff9-be0e-3d959b00990b";
name = Fore;
shapes = (
{
closed = 1;
nodes = (
(306,536,l),
(170,708,l),
(286,768,l),
(324,736,l),
(364,612,l),
(355,557,l)
);
},
{
closed = 1;
nodes = (
(116,-16,o),
(83,42,q),
(63,77,o),
(63,134.5,q),
(63,192,o),
(71,250,q),
(93,408,o),
(140,460,q),
(187,512,o),
(287,512,q),
(387,512,o),
(422.5,479,q),
(458,446,o),
(458,351,q),
(458,288,o),
(433,258,q),
(403,223,o),
(211,223,q),
(203,155,o),
(203,132.5,q),
(203,110,o),
(204,104,q),
(209,82,o),
(237,82,q),
(366,82,o),
(418,95,q),
(419,95,o),
(422.5,96,q),
(426,97,o),
(429,94,q),
(437,85,o),
(431,56,q),
(426,4,o),
(408,0,q),
(364,-16,o),
(223,-16,q)
);
},
{
closed = 1;
nodes = (
(327,419,o),
(316,419,q),
(282,419,o),
(258.5,409,q),
(235,399,o),
(233,381,q),
(222,303,l),
(291,303,o),
(309,312.5,q),
(327,322,o),
(327,356,q)
);
}
);
width = 454;
}
);
unicode = 232;
},
{
category = Letter;
glyphname = eacute;
layers = (
{
layerId = "b692dbeb-fef6-4ff9-be0e-3d959b00990b";
name = Fore;
shapes = (
{
closed = 1;
nodes = (
(264,557,l),
(271,612,l),
(345,736,l),
(391,768,l),
(491,708,l),
(307,536,l)
);
},
{
closed = 1;
nodes = (
(116,-16,o),
(83,42,q),
(63,77,o),
(63,134.5,q),
(63,192,o),
(71,250,q),
(93,408,o),
(140,460,q),
(187,512,o),
(287,512,q),
(387,512,o),
(422.5,479,q),
(458,446,o),
(458,351,q),
(458,288,o),
(433,258,q),
(403,223,o),
(211,223,q),
(203,155,o),
(203,132.5,q),
(203,110,o),
(204,104,q),
(209,82,o),
(237,82,q),
(366,82,o),
(418,95,q),
(419,95,o),
(422.5,96,q),
(426,97,o),
(429,94,q),
(437,85,o),
(431,56,q),
(426,4,o),
(408,0,q),
(364,-16,o),
(223,-16,q)
);
},
{
closed = 1;
nodes = (
(327,419,o),
(316,419,q),
(282,419,o),
(258.5,409,q),
(235,399,o),
(233,381,q),
(222,303,l),
(291,303,o),
(309,312.5,q),
(327,322,o),
(327,356,q)
);
}
);
width = 454;
}
);
unicode = 233;
},
{
category = Letter;
glyphname = ecircumflex;
layers = (
{
layerId = "b692dbeb-fef6-4ff9-be0e-3d959b00990b";
name = Fore;
shapes = (
{
closed = 1;
nodes = (
(146,604,l),
(167,658,l),
(282,748,l),
(333,768,l),
(380,748,l),
(469,658,l),
(474,604,l),
(431,572,l),
(317,653,l),
(181,572,l)
);
},
{
closed = 1;
nodes = (
(116,-16,o),
(83,42,q),
(63,77,o),
(63,134.5,q),
(63,192,o),
(71,250,q),
(93,408,o),
(140,460,q),
(187,512,o),
(287,512,q),
(387,512,o),
(422.5,479,q),
(458,446,o),
(458,351,q),
(458,288,o),
(433,258,q),
(403,223,o),
(211,223,q),
(203,155,o),
(203,132.5,q),
(203,110,o),
(204,104,q),
(209,82,o),
(237,82,q),
(366,82,o),
(418,95,q),
(419,95,o),
(422.5,96,q),
(426,97,o),
(429,94,q),
(437,85,o),
(431,56,q),
(426,4,o),
(408,0,q),
(364,-16,o),
(223,-16,q)
);
},
{
closed = 1;
nodes = (
(327,419,o),
(316,419,q),
(282,419,o),
(258.5,409,q),
(235,399,o),
(233,381,q),
(222,303,l),
(291,303,o),
(309,312.5,q),
(327,322,o),
(327,356,q)
);
}
);
width = 454;
}
);
unicode = 234;
},
{
category = Letter;
glyphname = edieresis;
layers = (
{
layerId = "b692dbeb-fef6-4ff9-be0e-3d959b00990b";
name = Fore;
shapes = (
{
closed = 1;
nodes = (
(279,768,o),
(279,712,q),
(279,705,o),
(278,696,q),
(268,624,o),
(196,624,q),
(133,624,o),
(133,680,q),
(133,687,o),
(134,696,q),
(144,768,o),
(216,768,q)
);
},
{
closed = 1;
nodes = (
(513,768,o),
(513,712,q),
(513,705,o),
(512,696,q),
(502,624,o),
(430,624,q),
(367,624,o),
(367,680,q),
(367,687,o),
(368,696,q),
(378,768,o),
(450,768,q)
);
},
{
closed = 1;
nodes = (
(116,-16,o),
(83,42,q),
(63,77,o),
(63,134.5,q),
(63,192,o),
(71,250,q),
(93,408,o),
(140,460,q),
(187,512,o),
(287,512,q),
(387,512,o),
(422.5,479,q),
(458,446,o),
(458,351,q),
(458,288,o),
(433,258,q),
(403,223,o),
(211,223,q),
(203,155,o),
(203,132.5,q),
(203,110,o),
(204,104,q),
(209,82,o),
(237,82,q),
(366,82,o),
(418,95,q),
(419,95,o),
(422.5,96,q),
(426,97,o),
(429,94,q),
(437,85,o),
(431,56,q),
(426,4,o),
(408,0,q),
(364,-16,o),
(223,-16,q)
);
},
{
closed = 1;
nodes = (
(327,419,o),
(316,419,q),
(282,419,o),
(258.5,409,q),
(235,399,o),
(233,381,q),
(222,303,l),
(291,303,o),
(309,312.5,q),
(327,322,o),
(327,356,q)
);
}
);
width = 454;
}
);
unicode = 235;
},
{
category = Letter;
glyphname = igrave;
layers = (
{
layerId = "b692dbeb-fef6-4ff9-be0e-3d959b00990b";
name = Fore;
shapes = (
{
closed = 1;
nodes = (
(118,512,o),
(154,512,q),
(190,512,o),
(221.5,507,q),
(253,502,o),
(252,496,q),
(183,0,l),
(182,-6,o),
(180,-8,q),
(174,-16,o),
(147,-16,q),
(120,-16,o),
(98,-14,q),
(45,-9,o),
(47,0,q),
(116,496,l)
);
},
{
closed = 1;
nodes = (
(169,536,l),
(33,708,l),
(149,768,l),
(187,736,l),
(227,612,l),
(218,557,l)
);
}
);
width = 228;
}
);
unicode = 236;
},
{
category = Letter;
glyphname = iacute;
layers = (
{
layerId = "b692dbeb-fef6-4ff9-be0e-3d959b00990b";
name = Fore;
shapes = (
{
closed = 1;
nodes = (
(120,512,o),
(156,512,q),
(192,512,o),
(223.5,507,q),
(255,502,o),
(254,496,q),
(185,0,l),
(184,-6,o),
(182,-8,q),
(176,-16,o),
(149,-16,q),
(122,-16,o),
(100,-14,q),
(47,-9,o),
(49,0,q),
(118,496,l)
);
},
{
closed = 1;
nodes = (
(165,557,l),
(172,612,l),
(246,736,l),
(292,768,l),
(392,708,l),
(208,536,l)
);
}
);
width = 228;
}
);
unicode = 237;
},
{
category = Letter;
glyphname = icircumflex;
layers = (
{
layerId = "b692dbeb-fef6-4ff9-be0e-3d959b00990b";
name = Fore;
shapes = (
{
closed = 1;
nodes = (
(118,512,o),
(154,512,q),
(190,512,o),
(221.5,507,q),
(253,502,o),
(252,496,q),
(183,0,l),
(182,-6,o),
(180,-8,q),
(174,-16,o),
(147,-16,q),
(120,-16,o),
(98,-14,q),
(45,-9,o),
(47,0,q),
(116,496,l)
);
},
{
closed = 1;
nodes = (
(34,604,l),
(55,658,l),
(170,748,l),
(221,768,l),
(268,748,l),
(357,658,l),
(362,604,l),
(319,572,l),
(205,653,l),
(69,572,l)
);
}
);
width = 228;
}
);
unicode = 238;
},
{
category = Letter;
glyphname = idieresis;
layers = (
{
layerId = "b692dbeb-fef6-4ff9-be0e-3d959b00990b";
name = Fore;
shapes = (
{
closed = 1;
nodes = (
(117,512,o),
(153,512,q),
(189,512,o),
(220.5,507,q),
(252,502,o),
(251,496,q),
(182,0,l),
(181,-6,o),
(179,-8,q),
(173,-16,o),
(146,-16,q),
(119,-16,o),
(97,-14,q),
(44,-9,o),
(46,0,q),
(115,496,l)
);
},
{
closed = 1;
nodes = (
(166,768,o),
(166,712,q),
(166,705,o),
(165,696,q),
(155,624,o),
(83,624,q),
(20,624,o),
(20,680,q),
(20,687,o),
(21,696,q),
(31,768,o),
(103,768,q)
);
},
{
closed = 1;
nodes = (
(400,768,o),
(400,712,q),
(400,705,o),
(399,696,q),
(389,624,o),
(317,624,q),
(254,624,o),
(254,680,q),
(254,687,o),
(255,696,q),
(265,768,o),
(337,768,q)
);
}
);
width = 228;
}
);
unicode = 239;
},
{
category = Letter;
glyphname = eth;
layers = (
{
layerId = "b692dbeb-fef6-4ff9-be0e-3d959b00990b";
name = Fore;
shapes = (
{
closed = 1;
nodes = (
(164,546,o),
(157,555,q),
(150,564,o),
(147,586,q),
(166,642,l),
(221,656,o),
(281,678,q),
(263,717,l),
(274,737,l),
(388,768,l),
(401,726,l),
(467,753,o),
(505.5,753,q),
(544,753,o),
(548,711,q),
(539,664,l),
(494,653,o),
(430,630,q),
(471,489,o),
(471,360,q),
(471,306,o),
(464,254,q),
(443,103,o),
(391,43.5,q),
(339,-16,o),
(226,-16,q),
(113,-16,o),
(78,44,q),
(56,81,o),
(56,139,q),
(56,197,o),
(66,266.5,q),
(76,336,o),
(92.5,386.5,q),
(109,437,o),
(137.5,467,q),
(166,497,o),
(203.5,507.5,q),
(241,518,o),
(301,518,q),
(324,508,l),
(324,534,o),
(311,581,q),
(220,546,o),
(180,546,q)
);
},
{
closed = 1;
nodes = (
(333,312,o),
(333,340,q),
(333,368,o),
(328,379,q),
(318,405,o),
(260,405,q),
(229,405,o),
(208,254,q),
(199,184,o),
(199,166.5,q),
(199,149,o),
(200,134.5,q),
(201,120,o),
(210,113,q),
(230,99,o),
(271,99,q),
(303,99,o),
(324,254,q)
);
}
);
width = 482;
}
);
unicode = 240;
},
{
category = Letter;
glyphname = ntilde;
layers = (
{
layerId = "b692dbeb-fef6-4ff9-be0e-3d959b00990b";
name = Fore;
shapes = (
{
closed = 1;
nodes = (
(449,512,o),
(478,466,q),
(495,437,o),
(495,392,q),
(495,347,o),
(489,304,q),
(447,0,l),
(446,-6,o),
(444,-8,q),
(438,-16,o),
(410.5,-16,q),
(383,-16,o),
(360,-14,q),
(302,-9,o),
(304,0,q),
(345,304,l),
(354,360,o),
(354,388,q),
(354,416,o),
(345,416,q),
(309,416,o),
(244,380,q),
(191,0,l),
(190,-6,o),
(188,-8,q),
(182,-16,o),
(154.5,-16,q),
(127,-16,o),
(104,-14,q),
(45,-9,o),
(47,0,q),
(116,496,l),
(118,512,o),
(169.5,512,q),
(221,512,o),
(228,496,q),
(228,494,o),
(229,494,q),
(243,456,l),
(334,512,o),
(375,512,q)
);
},
{
closed = 1;
nodes = (
(497,628,o),
(458.5,628,q),
(420,628,o),
(345.5,618,q),
(271,608,o),
(221,608,q),
(171,608,o),
(160.5,616.5,q),
(150,625,o),
(150,638.5,q),
(150,652,o),
(151,660,q),
(183,711,l),
(258,711,o),
(325,720,q),
(392,729,o),
(445,729,q),
(498,729,o),
(512.5,719.5,q),
(527,710,o),
(527,688,q),
(527,681,o),
(526,673,q),
(504,628,l)
);
}
);
width = 488;
}
);
unicode = 241;
},
{
category = Letter;
glyphname = ograve;
layers = (
{
layerId = "b692dbeb-fef6-4ff9-be0e-3d959b00990b";
name = Fore;
shapes = (
{
closed = 1;
nodes = (
(356,512,o),
(386.5,505.5,q),
(417,499,o),
(440,482,q),
(463,465,o),
(471,436,q),
(481,397,o),
(481,350.5,q),
(481,304,o),
(472,250,q),
(451,100,o),
(399.5,42,q),
(348,-16,o),
(234,-16,q),
(120,-16,o),
(86,42,q),
(64,77,o),
(64,135,q),
(64,193,o),
(72,250,q),
(94,409,o),
(142.5,460.5,q),
(191,512,o),
(308,512,q)
);
},
{
closed = 1;
nodes = (
(223,361,o),
(210.5,269.5,q),
(198,178,o),
(198,130,q),
(198,82,o),
(216,82,q),
(249,82,o),
(264.5,86,q),
(280,90,o),
(293.5,109,q),
(307,128,o),
(313,157.5,q),
(319,187,o),
(328.5,253,q),
(338,319,o),
(338,367.5,q),
(338,416,o),
(319,416,q),
(259,416,o),
(241,388.5,q)
);
},
{
closed = 1;
nodes = (
(294,536,l),
(158,708,l),
(274,768,l),
(312,736,l),
(352,612,l),
(343,557,l)
);
}
);
width = 474;
}
);
unicode = 242;
},
{
category = Letter;
glyphname = oacute;
layers = (
{
layerId = "b692dbeb-fef6-4ff9-be0e-3d959b00990b";
name = Fore;
shapes = (
{
closed = 1;
nodes = (
(356,512,o),
(386.5,505.5,q),
(417,499,o),
(440,482,q),
(463,465,o),
(471,436,q),
(481,397,o),
(481,350.5,q),
(481,304,o),
(472,250,q),
(451,100,o),
(399.5,42,q),
(348,-16,o),
(234,-16,q),
(120,-16,o),
(86,42,q),
(64,77,o),
(64,135,q),
(64,193,o),
(72,250,q),
(94,409,o),
(142.5,460.5,q),
(191,512,o),
(308,512,q)
);
},
{
closed = 1;
nodes = (
(223,361,o),
(210.5,269.5,q),
(198,178,o),
(198,130,q),
(198,82,o),
(216,82,q),
(249,82,o),
(264.5,86,q),
(280,90,o),
(293.5,109,q),
(307,128,o),
(313,157.5,q),
(319,187,o),
(328.5,253,q),
(338,319,o),
(338,367.5,q),
(338,416,o),
(319,416,q),
(259,416,o),
(241,388.5,q)
);
},
{
closed = 1;
nodes = (
(288,557,l),
(295,612,l),
(369,736,l),
(415,768,l),
(515,708,l),
(331,536,l)
);
}
);
width = 474;
}
);
unicode = 243;
},
{
category = Letter;
glyphname = ocircumflex;
layers = (
{
layerId = "b692dbeb-fef6-4ff9-be0e-3d959b00990b";
name = Fore;
shapes = (
{
closed = 1;
nodes = (
(356,512,o),
(386.5,505.5,q),
(417,499,o),
(440,482,q),
(463,465,o),
(471,436,q),
(481,397,o),
(481,350.5,q),
(481,304,o),
(472,250,q),
(451,100,o),
(399.5,42,q),
(348,-16,o),
(234,-16,q),
(120,-16,o),
(86,42,q),
(64,77,o),
(64,135,q),
(64,193,o),
(72,250,q),
(94,409,o),
(142.5,460.5,q),
(191,512,o),
(308,512,q)
);
},
{
closed = 1;
nodes = (
(223,361,o),
(210.5,269.5,q),
(198,178,o),
(198,130,q),
(198,82,o),
(216,82,q),
(249,82,o),
(264.5,86,q),
(280,90,o),
(293.5,109,q),
(307,128,o),
(313,157.5,q),
(319,187,o),
(328.5,253,q),
(338,319,o),
(338,367.5,q),
(338,416,o),
(319,416,q),
(259,416,o),
(241,388.5,q)
);
},
{
closed = 1;
nodes = (
(157,604,l),
(178,658,l),
(293,748,l),
(344,768,l),
(391,748,l),
(480,658,l),
(485,604,l),
(442,572,l),
(328,653,l),
(192,572,l)
);
}
);
width = 474;
}
);
unicode = 244;
},
{
category = Letter;
glyphname = otilde;
layers = (
{
layerId = "b692dbeb-fef6-4ff9-be0e-3d959b00990b";
name = Fore;
shapes = (
{
closed = 1;
nodes = (
(356,512,o),
(386.5,505.5,q),
(417,499,o),
(440,482,q),
(463,465,o),
(471,436,q),
(481,397,o),
(481,350.5,q),
(481,304,o),
(472,250,q),
(451,100,o),
(399.5,42,q),
(348,-16,o),
(234,-16,q),
(120,-16,o),
(86,42,q),
(64,77,o),
(64,135,q),
(64,193,o),
(72,250,q),
(94,409,o),
(142.5,460.5,q),
(191,512,o),
(308,512,q)
);
},
{
closed = 1;
nodes = (
(223,361,o),
(210.5,269.5,q),
(198,178,o),
(198,130,q),
(198,82,o),
(216,82,q),
(249,82,o),
(264.5,86,q),
(280,90,o),
(293.5,109,q),
(307,128,o),
(313,157.5,q),
(319,187,o),
(328.5,253,q),
(338,319,o),
(338,367.5,q),
(338,416,o),
(319,416,q),
(259,416,o),
(241,388.5,q)
);
},
{
closed = 1;
nodes = (
(488,628,o),
(449.5,628,q),
(411,628,o),
(336.5,618,q),
(262,608,o),
(212,608,q),
(162,608,o),
(151.5,616.5,q),
(141,625,o),
(141,638.5,q),
(141,652,o),
(142,660,q),
(174,711,l),
(249,711,o),
(316,720,q),
(383,729,o),
(436,729,q),
(489,729,o),
(503.5,719.5,q),
(518,710,o),
(518,688,q),
(518,681,o),
(517,673,q),
(495,628,l)
);
}
);
width = 474;
}
);
unicode = 245;
},
{
category = Letter;
glyphname = odieresis;
layers = (
{
layerId = "b692dbeb-fef6-4ff9-be0e-3d959b00990b";
name = Fore;
shapes = (
{
closed = 1;
nodes = (
(356,512,o),
(386.5,505.5,q),
(417,499,o),
(440,482,q),
(463,465,o),
(471,436,q),
(481,397,o),
(481,350.5,q),
(481,304,o),
(472,250,q),
(451,100,o),
(399.5,42,q),
(348,-16,o),
(234,-16,q),
(120,-16,o),
(86,42,q),
(64,77,o),
(64,135,q),
(64,193,o),
(72,250,q),
(94,409,o),
(142.5,460.5,q),
(191,512,o),
(308,512,q)
);
},
{
closed = 1;
nodes = (
(223,361,o),
(210.5,269.5,q),
(198,178,o),
(198,130,q),
(198,82,o),
(216,82,q),
(249,82,o),
(264.5,86,q),
(280,90,o),
(293.5,109,q),
(307,128,o),
(313,157.5,q),
(319,187,o),
(328.5,253,q),
(338,319,o),
(338,367.5,q),
(338,416,o),
(319,416,q),
(259,416,o),
(241,388.5,q)
);
},
{
closed = 1;
nodes = (
(290,768,o),
(290,712,q),
(290,705,o),
(289,696,q),
(279,624,o),
(207,624,q),
(144,624,o),
(144,680,q),
(144,687,o),
(145,696,q),
(155,768,o),
(227,768,q)
);
},
{
closed = 1;
nodes = (
(524,768,o),
(524,712,q),
(524,705,o),
(523,696,q),
(513,624,o),
(441,624,q),
(378,624,o),
(378,680,q),
(378,687,o),
(379,696,q),
(389,768,o),
(461,768,q)
);
}
);
width = 474;
}
);
unicode = 246;
},
{
category = Letter;
glyphname = divide;
layers = (
{
layerId = "b692dbeb-fef6-4ff9-be0e-3d959b00990b";
name = Fore;
shapes = (
{
closed = 1;
nodes = (
(288,259,o),
(288,203,q),
(288,196,o),
(287,187,q),
(277,115,o),
(205,115,q),
(142,115,o),
(142,171,q),
(142,178,o),
(143,187,q),
(153,259,o),
(225,259,q)
);
},
{
closed = 1;
nodes = (
(340,633,o),
(340,577,q),
(340,570,o),
(339,561,q),
(329,489,o),
(257,489,q),
(194,489,o),
(194,545,q),
(194,552,o),
(195,561,q),
(205,633,o),
(277,633,q)
);
},
{
closed = 1;
nodes = (
(58,309,l),
(75,433,l),
(407,433,l),
(421,417,l),
(408,326,l),
(389,309,l)
);
}
);
width = 378;
}
);
unicode = 247;
},
{
category = Letter;
glyphname = oslash;
layers = (
{
layerId = "b692dbeb-fef6-4ff9-be0e-3d959b00990b";
name = Fore;
shapes = (
{
closed = 1;
nodes = (
(467,467,o),
(467,357,q),
(467,312,o),
(458,250,q),
(437,100,o),
(385.5,42,q),
(334,-16,o),
(220,-16,q),
(209,-16,l),
(161,-146,l),
(25,-146,l),
(29,-114,l),
(84,25,l),
(50,61,o),
(50,150,q),
(50,194,o),
(58,250,q),
(79,402,o),
(125,456,q),
(171,510,o),
(276,513,q),
(357,720,l),
(462,720,l),
(447,613,l),
(402,497,l)
);
},
{
closed = 1;
nodes = (
(209,362,o),
(196.5,270,q),
(184,178,o),
(184,130,q),
(184,82,o),
(202,82,q),
(235,82,o),
(250.5,86,q),
(266,90,o),
(279.5,109,q),
(293,128,o),
(299,157.5,q),
(305,187,o),
(314.5,253.5,q),
(324,320,o),
(324,369,q),
(324,418,o),
(305,418,q),
(245,418,o),
(227,390,q)
);
}
);
width = 446;
}
);
unicode = 248;
},
{
category = Letter;
glyphname = ugrave;
layers = (
{
layerId = "b692dbeb-fef6-4ff9-be0e-3d959b00990b";
name = Fore;
shapes = (
{
closed = 1;
nodes = (
(108,-16,o),
(80,30,q),
(62,59,o),
(62,104.5,q),
(62,150,o),
(68,192,q),
(111,496,l),
(113,512,o),
(149.5,512,q),
(186,512,o),
(220.5,507,q),
(255,502,o),
(254,496,q),
(212,192,l),
(205,138,o),
(205,109,q),
(205,80,o),
(213,80,q),
(249,80,o),
(314,116,q),
(367,496,l),
(369,512,o),
(405.5,512,q),
(442,512,o),
(477,507,q),
(512,502,o),
(511,496,q),
(442,0,l),
(441,-6,o),
(439,-8,q),
(433,-16,o),
(385,-16,q),
(337,-16,o),
(330,0,q),
(329,1,l),
(313,31,l),
(237,-16,o),
(182,-16,q)
);
},
{
closed = 1;
nodes = (
(292,536,l),
(156,708,l),
(272,768,l),
(310,736,l),
(350,612,l),
(341,557,l)
);
}
);
width = 487;
}
);
unicode = 249;
},
{
category = Letter;
glyphname = uacute;
layers = (
{
layerId = "b692dbeb-fef6-4ff9-be0e-3d959b00990b";
name = Fore;
shapes = (
{
closed = 1;
nodes = (
(108,-16,o),
(80,30,q),
(62,59,o),
(62,104.5,q),
(62,150,o),
(68,192,q),
(111,496,l),
(113,512,o),
(149.5,512,q),
(186,512,o),
(220.5,507,q),
(255,502,o),
(254,496,q),
(212,192,l),
(205,138,o),
(205,109,q),
(205,80,o),
(213,80,q),
(249,80,o),
(314,116,q),
(367,496,l),
(369,512,o),
(405.5,512,q),
(442,512,o),
(477,507,q),
(512,502,o),
(511,496,q),
(442,0,l),
(441,-6,o),
(439,-8,q),
(433,-16,o),
(385,-16,q),
(337,-16,o),
(330,0,q),
(329,1,l),
(313,31,l),
(237,-16,o),
(182,-16,q)
);
},
{
closed = 1;
nodes = (
(300,557,l),
(307,612,l),
(381,736,l),
(427,768,l),
(527,708,l),
(343,536,l)
);
}
);
width = 487;
}
);
unicode = 250;
},
{
category = Letter;
glyphname = ucircumflex;
layers = (
{
layerId = "b692dbeb-fef6-4ff9-be0e-3d959b00990b";
name = Fore;
shapes = (
{
closed = 1;
nodes = (
(108,-16,o),
(80,30,q),
(62,59,o),
(62,104.5,q),
(62,150,o),
(68,192,q),
(111,496,l),
(113,512,o),
(149.5,512,q),
(186,512,o),
(220.5,507,q),
(255,502,o),
(254,496,q),
(212,192,l),
(205,138,o),
(205,109,q),
(205,80,o),
(213,80,q),
(249,80,o),
(314,116,q),
(367,496,l),
(369,512,o),
(405.5,512,q),
(442,512,o),
(477,507,q),
(512,502,o),
(511,496,q),
(442,0,l),
(441,-6,o),
(439,-8,q),
(433,-16,o),
(385,-16,q),
(337,-16,o),
(330,0,q),
(329,1,l),
(313,31,l),
(237,-16,o),
(182,-16,q)
);
},
{
closed = 1;
nodes = (
(163,604,l),
(184,658,l),
(299,748,l),
(350,768,l),
(397,748,l),
(486,658,l),
(491,604,l),
(448,572,l),
(334,653,l),
(198,572,l)
);
}
);
width = 487;
}
);
unicode = 251;
},
{
category = Letter;
glyphname = udieresis;
layers = (
{
layerId = "b692dbeb-fef6-4ff9-be0e-3d959b00990b";
name = Fore;
shapes = (
{
closed = 1;
nodes = (
(108,-16,o),
(80,30,q),
(62,59,o),
(62,104.5,q),
(62,150,o),
(68,192,q),
(111,496,l),
(113,512,o),
(149.5,512,q),
(186,512,o),
(220.5,507,q),
(255,502,o),
(254,496,q),
(212,192,l),
(205,138,o),
(205,109,q),
(205,80,o),
(213,80,q),
(249,80,o),
(314,116,q),
(367,496,l),
(369,512,o),
(405.5,512,q),
(442,512,o),
(477,507,q),
(512,502,o),
(511,496,q),
(442,0,l),
(441,-6,o),
(439,-8,q),
(433,-16,o),
(385,-16,q),
(337,-16,o),
(330,0,q),
(329,1,l),
(313,31,l),
(237,-16,o),
(182,-16,q)
);
},
{
closed = 1;
nodes = (
(530,768,o),
(530,712,q),
(530,705,o),
(529,696,q),
(519,624,o),
(447,624,q),
(384,624,o),
(384,680,q),
(384,687,o),
(385,696,q),
(395,768,o),
(467,768,q)
);
},
{
closed = 1;
nodes = (
(296,768,o),
(296,712,q),
(296,705,o),
(295,696,q),
(285,624,o),
(213,624,q),
(150,624,o),
(150,680,q),
(150,687,o),
(151,696,q),
(161,768,o),
(233,768,q)
);
}
);
width = 487;
}
);
unicode = 252;
},
{
category = Letter;
glyphname = yacute;
layers = (
{
layerId = "b692dbeb-fef6-4ff9-be0e-3d959b00990b";
name = Fore;
shapes = (
{
closed = 1;
nodes = (
(91,512,o),
(143,512,q),
(170,512,o),
(200.5,507,q),
(231,502,o),
(232,496,q),
(273,154,l),
(399,496,l),
(404,512,o),
(438,512,q),
(472,512,o),
(498,507,q),
(524,502,o),
(522,496,q),
(521,495,o),
(521,492,q),
(221,-224,l),
(216,-240,o),
(179,-240,q),
(114,-240,o),
(106,-227,q),
(104,-223,o),
(108,-219,q),
(190,0,l),
(96,494,l),
(96,496,l)
);
},
{
closed = 1;
nodes = (
(297,557,l),
(304,612,l),
(378,736,l),
(424,768,l),
(524,708,l),
(340,536,l)
);
}
);
width = 460;
}
);
unicode = 253;
},
{
category = Letter;
glyphname = thorn;
layers = (
{
layerId = "b692dbeb-fef6-4ff9-be0e-3d959b00990b";
name = Fore;
shapes = (
{
closed = 1;
nodes = (
(420,512,o),
(457,458,q),
(479,425,o),
(479,368.5,q),
(479,312,o),
(471,256,q),
(450,105,o),
(407,44.5,q),
(364,-16,o),
(290,-16,q),
(263,-16,o),
(180,-5,q),
(149,-223,l),
(148,-229,o),
(147,-232,q),
(142,-239,o),
(108,-239,q),
(74,-239,o),
(43.5,-234,q),
(13,-229,o),
(14,-222,q),
(151,752,l),
(153,768,o),
(188.5,768,q),
(224,768,o),
(246.5,763.5,q),
(269,759,o),
(268,752,q),
(247,512,l),
(299,512,l)
);
},
{
closed = 1;
nodes = (
(239,416,l),
(192,80,l),
(287,80,l),
(303,80,o),
(327,256,q),
(336,318,o),
(336,347,q),
(336,376,o),
(332,387,q),
(323,416,o),
(286,416,q)
);
}
);
width = 442;
}
);
unicode = 254;
},
{
category = Letter;
glyphname = ydieresis;
layers = (
{
layerId = "b692dbeb-fef6-4ff9-be0e-3d959b00990b";
name = Fore;
shapes = (
{
closed = 1;
nodes = (
(91,512,o),
(143,512,q),
(170,512,o),
(200.5,507,q),
(231,502,o),
(232,496,q),
(273,154,l),
(399,496,l),
(404,512,o),
(438,512,q),
(472,512,o),
(497,507,q),
(522,502,o),
(522,497,q),
(221,-224,l),
(216,-240,o),
(179,-240,q),
(114,-240,o),
(106,-227,q),
(104,-223,o),
(108,-219,q),
(190,0,l),
(96,494,l),
(96,496,l)
);
},
{
closed = 1;
nodes = (
(288,768,o),
(288,712,q),
(288,705,o),
(287,696,q),
(277,624,o),
(205,624,q),
(142,624,o),
(142,680,q),
(142,687,o),
(143,696,q),
(153,768,o),
(225,768,q)
);
},
{
closed = 1;
nodes = (
(522,768,o),
(522,712,q),
(522,705,o),
(521,696,q),
(511,624,o),
(439,624,q),
(376,624,o),
(376,680,q),
(376,687,o),
(377,696,q),
(387,768,o),
(459,768,q)
);
}
);
width = 460;
}
);
unicode = 255;
},
{
category = Letter;
glyphname = dotlessi;
layers = (
{
layerId = "b692dbeb-fef6-4ff9-be0e-3d959b00990b";
name = Fore;
shapes = (
{
closed = 1;
nodes = (
(120,512,o),
(156,512,q),
(192,512,o),
(223.5,507,q),
(255,502,o),
(254,496,q),
(185,0,l),
(184,-6,o),
(182,-8,q),
(176,-16,o),
(149,-16,q),
(122,-16,o),
(100,-14,q),
(47,-9,o),
(49,0,q),
(118,496,l)
);
}
);
width = 228;
}
);
unicode = 305;
},
{
category = Letter;
glyphname = Lslash;
layers = (
{
layerId = "b692dbeb-fef6-4ff9-be0e-3d959b00990b";
name = Fore;
shapes = (
{
closed = 1;
nodes = (
(541,121,o),
(541,93,q),
(541,65,o),
(531.5,39.5,q),
(522,14,o),
(511,7,q),
(500,0,o),
(484,0,q),
(162,0,l),
(148,16,l),
(186,286,l),
(86,260,l),
(71,380,l),
(204,414,l),
(248,731,l),
(251,753,o),
(262.5,760.5,q),
(274,768,o),
(304,768,q),
(376,768,o),
(372,732,q),
(347,451,l),
(441,476,l),
(460,464,l),
(470,376,l),
(456,356,l),
(330,323,l),
(303,121,l),
(497,121,l)
);
}
);
width = 542;
}
);
unicode = 321;
},
{
category = Letter;
glyphname = lslash;
layers = (
{
layerId = "b692dbeb-fef6-4ff9-be0e-3d959b00990b";
name = Fore;
shapes = (
{
closed = 1;
nodes = (
(268,-16,o),
(248.5,-16,q),
(229,-16,o),
(208,-14,q),
(155,-9,o),
(157,0,q),
(197,289,l),
(90,261,l),
(76,277,l),
(64,378,l),
(215,417,l),
(262,752,l),
(264,768,o),
(299,768,q),
(334,768,o),
(356.5,763.5,q),
(379,759,o),
(379,752,q),
(354,453,l),
(465,482,l),
(483,471,l),
(496,367,l),
(337,325,l),
(292,0,l),
(291,-6,o),
(289,-8.5,q),
(287,-11,o),
(277.5,-13.5,q)
);
}
);
width = 454;
}
);
unicode = 322;
},
{
category = Letter;
glyphname = OE;
layers = (
{
layerId = "b692dbeb-fef6-4ff9-be0e-3d959b00990b";
name = Fore;
shapes = (
{
closed = 1;
nodes = (
(916,750,o),
(916,725,q),
(916,713,o),
(909,688,q),
(894,632,o),
(857,632,q),
(617,632,l),
(626,596,o),
(626,549.5,q),
(626,503,o),
(621,455,q),
(813,455,l),
(849,455,o),
(849,428,q),
(849,424,o),
(845.5,397.5,q),
(842,371,o),
(833,352.5,q),
(824,334,o),
(799,334,q),
(605,334,l),
(584,198,o),
(547,121,q),
(805,121,l),
(828,120,o),
(836,111.5,q),
(844,103,o),
(842,86,q),
(835,37,o),
(823.5,18.5,q),
(812,0,o),
(785,0,q),
(433,0,l),
(358,-16,o),
(296,-16,q),
(147,-16,o),
(102,68,q),
(76,118,o),
(76,199.5,q),
(76,281,o),
(89,371,q),
(111,530,o),
(147.5,611,q),
(184,692,o),
(242,722,q),
(300,752,o),
(404,752,q),
(877,752,l)
);
},
{
closed = 1;
nodes = (
(408,662,o),
(383,658.5,q),
(358,655,o),
(337,641.5,q),
(316,628,o),
(304.5,611.5,q),
(293,595,o),
(282,558,q),
(267,508,o),
(250,383,q),
(228,232,o),
(228,180.5,q),
(228,129,o),
(234.5,112.5,q),
(241,96,o),
(258,96,q),
(299,96,o),
(321.5,97.5,q),
(344,99,o),
(366.5,110.5,q),
(389,122,o),
(399,136,q),
(409,150,o),
(420,186,q),
(445,263,o),
(469,474,q),
(477,541,o),
(477,601.5,q),
(477,662,o),
(448,662,q)
);
}
);
width = 813;
}
);
unicode = 338;
},
{
category = Letter;
glyphname = oe;
layers = (
{
layerId = "b692dbeb-fef6-4ff9-be0e-3d959b00990b";
name = Fore;
shapes = (
{
closed = 1;
nodes = (
(406,-16,o),
(367,13,q),
(321,-16,o),
(237,-16,q),
(123,-16,o),
(88,42,q),
(67,77,o),
(67,135,q),
(67,193,o),
(75,250,q),
(97,409,o),
(145.5,460.5,q),
(194,512,o),
(311,512,q),
(396,512,o),
(433,488,q),
(476,512,o),
(556,512,q),
(640,512,o),
(680,481,q),
(701,464,o),
(709,434,q),
(717,404,o),
(717,381,q),
(717,358,o),
(716.5,333,q),
(716,308,o),
(706,239,q),
(705,233,o),
(681,228,q),
(657,223,o),
(624,223,q),
(471,223,l),
(469,220,l),
(461,155,o),
(461,133,q),
(461,111,o),
(463,104,q),
(468,82,o),
(496,82,q),
(625,82,o),
(677,95,q),
(678,95,o),
(681.5,96,q),
(685,97,o),
(688,94,q),
(696,85,o),
(690,56,q),
(685,4,o),
(667,0,q),
(623,-16,o),
(482,-16,q)
);
},
{
closed = 1;
nodes = (
(226,361,o),
(213.5,269.5,q),
(201,178,o),
(201,130,q),
(201,82,o),
(219,82,q),
(275,82,o),
(293.5,103.5,q),
(312,125,o),
(325,211,q),
(326,221,o),
(330,250,q),
(335,286,l),
(340,331,o),
(340,361,q),
(340,416,o),
(322,416,q),
(262,416,o),
(244,388.5,q)
);
},
{
closed = 1;
nodes = (
(587,349,o),
(587,384,q),
(587,419,o),
(575,419,q),
(541,419,o),
(517.5,409,q),
(494,399,o),
(492,381,q),
(481,303,l),
(582,303,l)
);
}
);
width = 716;
}
);
unicode = 339;
},
{
category = Letter;
glyphname = Scaron;
layers = (
{
layerId = "b692dbeb-fef6-4ff9-be0e-3d959b00990b";
name = Fore;
shapes = (
{
closed = 1;
nodes = (
(276,1033,l),
(389,951,l),
(526,1033,l),
(560,1001,l),
(540,947,l),
(425,857,l),
(373,837,l),
(327,857,l),
(238,947,l),
(232,1001,l)
);
},
{
closed = 1;
nodes = (
(42,96,o),
(42,110,q),
(42,124,o),
(69.5,148.5,q),
(97,173,o),
(104.5,175,q),
(112,177,o),
(119,177,q),
(126,177,o),
(141,168,q),
(208,110,o),
(263.5,110,q),
(319,110,o),
(340,136.5,q),
(361,163,o),
(367,210,q),
(368,216,o),
(368,221,q),
(368,250,o),
(343.5,274,q),
(319,298,o),
(256,335,q),
(193,372,o),
(153.5,426,q),
(114,480,o),
(114,531,q),
(114,542,o),
(116,553,q),
(132,665,o),
(197.5,716.5,q),
(263,768,o),
(376,768,q),
(445,768,o),
(507,735,q),
(520,729,o),
(525,725,q),
(537,717,o),
(537,707,q),
(537,697,o),
(531,688,q),
(504,634,o),
(497,629,q),
(490,624,o),
(480,624,q),
(470,624,o),
(426.5,640.5,q),
(383,657,o),
(352,657,q),
(321,657,o),
(297,635,q),
(273,613,o),
(267,572,q),
(266,566,o),
(266,560,q),
(266,528,o),
(295.5,498,q),
(325,468,o),
(394,433,q),
(468,392,o),
(497,353,q),
(526,314,o),
(526,263,q),
(526,247,o),
(524,230,q),
(489,-16,o),
(281,-16,q),
(126,-16,o),
(57,73,q)
);
}
);
width = 516;
}
);
unicode = 352;
},
{
category = Letter;
glyphname = scaron;
layers = (
{
layerId = "b692dbeb-fef6-4ff9-be0e-3d959b00990b";
name = Fore;
shapes = (
{
closed = 1;
nodes = (
(188,761,l),
(302,679,l),
(438,761,l),
(473,729,l),
(452,675,l),
(338,585,l),
(286,565,l),
(240,585,l),
(150,675,l),
(145,729,l)
);
},
{
closed = 1;
nodes = (
(410,175,o),
(409,168,q),
(398,85,o),
(346.5,34.5,q),
(295,-16,o),
(219.5,-16,q),
(144,-16,o),
(104,4,q),
(64,24,o),
(40,61,q),
(37,63,o),
(37,66,q),
(37,77,o),
(65.5,106.5,q),
(94,136,o),
(107,136,q),
(110,136,o),
(114,132,q),
(161,90,o),
(211,90,q),
(239,90,o),
(257,107.5,q),
(275,125,o),
(275,143,q),
(275,161,o),
(262,173,q),
(242,189,o),
(192,214,q),
(89,269,o),
(89,345,q),
(89,352,o),
(90,360,q),
(101,440,o),
(147.5,476,q),
(194,512,o),
(279,512,q),
(364,512,o),
(405,478,q),
(406,478,l),
(413,473,o),
(413,462,q),
(413,451,o),
(408,436,q),
(389,378,o),
(375,378,q),
(373,378,o),
(370,380,q),
(335,399,l),
(293,416,o),
(263,416,q),
(218,414,o),
(212,373,q),
(210,357,o),
(226,347,q),
(242,337,o),
(252.5,331.5,q),
(263,326,o),
(283,316,q),
(353,283,o),
(381.5,247.5,q),
(410,212,o),
(410,181,q)
);
}
);
width = 421;
}
);
unicode = 353;
},
{
category = Letter;
glyphname = Ydieresis;
layers = (
{
layerId = "b692dbeb-fef6-4ff9-be0e-3d959b00990b";
name = Fore;
shapes = (
{
closed = 1;
nodes = (
(381,1024,o),
(381,968,q),
(381,961,o),
(380,952,q),
(370,880,o),
(298,880,q),
(235,880,o),
(235,936,q),
(235,943,o),
(236,952,q),
(246,1024,o),
(318,1024,q)
);
},
{
closed = 1;
nodes = (
(615,1024,o),
(615,968,q),
(615,961,o),
(614,952,q),
(604,880,o),
(532,880,q),
(469,880,o),
(469,936,q),
(469,943,o),
(470,952,q),
(480,1024,o),
(552,1024,q)
);
},
{
closed = 1;
nodes = (
(238,-16,o),
(238,17,q),
(238,19,o),
(238,22,q),
(284,349,l),
(119,732,l),
(117,738,o),
(117,743,q),
(117,768,o),
(184.5,768,q),
(252,768,o),
(262,731,q),
(366,492,l),
(519,734,l),
(529,754,o),
(544,761,q),
(559,768,o),
(589,768,q),
(654,768,o),
(654,745,q),
(654,739,o),
(649,731,q),
(401,349,l),
(354,21,l),
(351,-3,o),
(344,-9.5,q),
(337,-16,o),
(309,-16,q)
);
}
);
width = 567;
}
);
unicode = 376;
},
{
category = Letter;
glyphname = Zcaron;
layers = (
{
layerId = "b692dbeb-fef6-4ff9-be0e-3d959b00990b";
name = Fore;
shapes = (
{
closed = 1;
nodes = (
(273,1024,l),
(387,943,l),
(523,1024,l),
(558,992,l),
(537,938,l),
(423,848,l),
(371,828,l),
(325,848,l),
(235,938,l),
(230,992,l)
);
},
{
closed = 1;
nodes = (
(117,752,o),
(164,752,q),
(566,752,l),
(580,736,l),
(568,648,l),
(217,121,l),
(454,121,l),
(486,120,o),
(496.5,112.5,q),
(507,105,o),
(504,84.5,q),
(501,64,o),
(495.5,47,q),
(490,30,o),
(476,15,q),
(462,0,o),
(442,0,q),
(52,0,l),
(38,16,l),
(53,122,l),
(408,632,l),
(152,632,l),
(126,633,o),
(121.5,642.5,q),
(117,652,o),
(117,668,q)
);
}
);
width = 503;
}
);
unicode = 381;
},
{
category = Letter;
glyphname = zcaron;
layers = (
{
layerId = "b692dbeb-fef6-4ff9-be0e-3d959b00990b";
name = Fore;
shapes = (
{
closed = 1;
nodes = (
(93,390,o),
(93,406.5,q),
(93,423,o),
(97,443,q),
(105,496,o),
(119,496,q),
(415,496,l),
(429,480,l),
(416,390,l),
(203,112,l),
(393,112,l),
(405,112,o),
(405,89,q),
(405,82,o),
(404,72,q),
(393,2,o),
(378,0,q),
(58,0,l),
(44,16,l),
(55,96,l),
(290,390,l),
(104,390,l)
);
},
{
closed = 1;
nodes = (
(188,761,l),
(302,679,l),
(438,761,l),
(473,729,l),
(452,675,l),
(338,585,l),
(286,565,l),
(240,585,l),
(150,675,l),
(145,729,l)
);
}
);
width = 414;
}
);
unicode = 382;
},
{
category = Letter;
glyphname = florin;
layers = (
{
layerId = "b692dbeb-fef6-4ff9-be0e-3d959b00990b";
name = Fore;
shapes = (
{
closed = 1;
nodes = (
(557,667,o),
(515.5,667,q),
(474,667,o),
(457,629.5,q),
(440,592,o),
(426,496,q),
(522,496,l),
(511,416,l),
(423,416,l),
(355,-70,l),
(339,-180,o),
(312,-235.5,q),
(285,-291,o),
(238.5,-312.5,q),
(192,-334,o),
(108,-334,q),
(65,-334,o),
(30,-324,q),
(-5,-314,o),
(-13,-305,q),
(-21,-296,o),
(-21,-271.5,q),
(-21,-247,o),
(-19,-224,q),
(67,-224,l),
(94,-233,o),
(129,-233,q),
(164,-233,o),
(180.5,-199,q),
(197,-165,o),
(210,-75,q),
(279,416,l),
(199,416,l),
(208,480,l),
(290,496,l),
(313,657,o),
(364.5,712.5,q),
(416,768,o),
(538,768,q),
(574,768,o),
(604,759.5,q),
(634,751,o),
(647,742,q),
(659,734,l),
(623,654,l),
(583,654,l)
);
}
);
width = 567;
}
);
unicode = 402;
},
{
category = Letter;
glyphname = circumflex;
layers = (
{
layerId = "b692dbeb-fef6-4ff9-be0e-3d959b00990b";
name = Fore;
shapes = (
{
closed = 1;
nodes = (
(110,604,l),
(131,658,l),
(246,748,l),
(297,768,l),
(344,748,l),
(433,658,l),
(438,604,l),
(395,572,l),
(281,653,l),
(145,572,l)
);
}
);
width = 379;
}
);
unicode = 710;
},
{
category = Letter;
glyphname = caron;
layers = (
{
layerId = "b692dbeb-fef6-4ff9-be0e-3d959b00990b";
name = Fore;
shapes = (
{
closed = 1;
nodes = (
(170,761,l),
(284,679,l),
(420,761,l),
(455,729,l),
(434,675,l),
(320,585,l),
(268,565,l),
(222,585,l),
(132,675,l),
(127,729,l)
);
}
);
width = 377;
}
);
unicode = 711;
},
{
category = Letter;
glyphname = breve;
layers = (
{
layerId = "b692dbeb-fef6-4ff9-be0e-3d959b00990b";
name = Fore;
shapes = (
{
closed = 1;
nodes = (
(237,599,o),
(236,599,q),
(131,599,o),
(131,689,q),
(131,703,o),
(133,718,q),
(208,720,l),
(207,714,o),
(207,705.5,q),
(207,697,o),
(214.5,686,q),
(222,675,o),
(245,674,q),
(292,674,o),
(296,721,q),
(373,719,l),
(349,599,o),
(238,599,q)
);
}
);
width = 305;
}
);
unicode = 728;
},
{
category = Letter;
glyphname = dotaccent;
layers = (
{
layerId = "b692dbeb-fef6-4ff9-be0e-3d959b00990b";
name = Fore;
shapes = (
{
closed = 1;
nodes = (
(276,768,o),
(276,712,q),
(276,705,o),
(275,696,q),
(265,624,o),
(193,624,q),
(130,624,o),
(130,680,q),
(130,687,o),
(131,696,q),
(141,768,o),
(213,768,q)
);
}
);
width = 214;
}
);
unicode = 729;
},
{
category = Letter;
glyphname = ring;
layers = (
{
layerId = "b692dbeb-fef6-4ff9-be0e-3d959b00990b";
name = Fore;
shapes = (
{
closed = 1;
nodes = (
(321,752,o),
(321,678,q),
(321,667,o),
(319,656,q),
(305,560,o),
(209,560,q),
(125,560,o),
(125,633,q),
(125,644,o),
(127,656,q),
(140,752,o),
(236,752,q)
);
},
{
closed = 1;
nodes = (
(187,691,o),
(187,648,q),
(187,621,o),
(218,621,q),
(258,621,o),
(258,663,q),
(258,691,o),
(228,691,q)
);
}
);
width = 262;
}
);
unicode = 730;
},
{
category = Letter;
glyphname = ogonek;
layers = (
{
layerId = "b692dbeb-fef6-4ff9-be0e-3d959b00990b";
name = Fore;
shapes = (
{
closed = 1;
nodes = (
(71,-122,o),
(71,-177,q),
(71,-211,o),
(110,-211,q),
(99,-286,l),
(-5,-286,o),
(-5,-194,q),
(-5,-181,o),
(-3,-166,q),
(12,-48,o),
(133,-46,q),
(140,0,l),
(198,0,l),
(180,-122,l),
(122,-122,l)
);
}
);
width = 224;
}
);
unicode = 731;
},
{
category = Letter;
glyphname = tilde;
layers = (
{
layerId = "b692dbeb-fef6-4ff9-be0e-3d959b00990b";
name = Fore;
shapes = (
{
closed = 1;
nodes = (
(473,628,o),
(434.5,628,q),
(396,628,o),
(321.5,618,q),
(247,608,o),
(197,608,q),
(147,608,o),
(136.5,616.5,q),
(126,625,o),
(126,638.5,q),
(126,652,o),
(127,660,q),
(159,711,l),
(234,711,o),
(301,720,q),
(368,729,o),
(421,729,q),
(474,729,o),
(488.5,719.5,q),
(503,710,o),
(503,688,q),
(503,681,o),
(502,673,q),
(480,628,l)
);
}
);
width = 441;
}
);
unicode = 732;
},
{
category = Letter;
glyphname = hungarumlaut;
layers = (
{
layerId = "b692dbeb-fef6-4ff9-be0e-3d959b00990b";
name = Fore;
shapes = (
{
closed = 1;
nodes = (
(112,582,l),
(133,636,l),
(235,741,l),
(286,761,l),
(331,675,l),
(179,550,l)
);
},
{
closed = 1;
nodes = (
(360,582,l),
(381,636,l),
(483,741,l),
(534,761,l),
(579,675,l),
(427,550,l)
);
}
);
width = 514;
}
);
unicode = 733;
},
{
category = Letter;
glyphname = endash;
layers = (
{
layerId = "b692dbeb-fef6-4ff9-be0e-3d959b00990b";
name = Fore;
shapes = (
{
closed = 1;
nodes = (
(104,308,l),
(90,324,l),
(105,432,l),
(555,432,l),
(569,416,l),
(554,308,l)
);
}
);
width = 556;
}
);
unicode = 8211;
},
{
category = Letter;
glyphname = emdash;
layers = (
{
layerId = "b692dbeb-fef6-4ff9-be0e-3d959b00990b";
name = Fore;
shapes = (
{
closed = 1;
nodes = (
(104,308,l),
(90,324,l),
(105,432,l),
(744,432,l),
(758,416,l),
(743,308,l)
);
}
);
width = 745;
}
);
unicode = 8212;
},
{
category = Letter;
glyphname = quoteleft;
layers = (
{
layerId = "b692dbeb-fef6-4ff9-be0e-3d959b00990b";
name = Fore;
shapes = (
{
closed = 1;
nodes = (
(276,759,l),
(284,706,l),
(242,572,l),
(204,530,l),
(88,560,l),
(227,768,l)
);
}
);
width = 217;
}
);
unicode = 8216;
},
{
category = Letter;
glyphname = quoteright;
layers = (
{
layerId = "b692dbeb-fef6-4ff9-be0e-3d959b00990b";
name = Fore;
shapes = (
{
closed = 1;
nodes = (
(122,539,l),
(115,592,l),
(157,726,l),
(194,768,l),
(310,738,l),
(171,530,l)
);
}
);
width = 216;
}
);
unicode = 8217;
},
{
category = Letter;
glyphname = quotesinglbase;
layers = (
{
layerId = "b692dbeb-fef6-4ff9-be0e-3d959b00990b";
name = Fore;
shapes = (
{
closed = 1;
nodes = (
(46,15,o),
(46,31.5,q),
(46,48,o),
(47,56,q),
(57,128,o),
(129,128,q),
(192,128,o),
(192,72,q),
(192,65,o),
(191,56,q),
(187,18,o),
(165,0,q),
(47,-128,l),
(23,-111,l),
(33,-42,l),
(57,3,l)
);
}
);
width = 197;
}
);
unicode = 8218;
},
{
category = Letter;
glyphname = quotedblleft;
layers = (
{
layerId = "b692dbeb-fef6-4ff9-be0e-3d959b00990b";
name = Fore;
shapes = (
{
closed = 1;
nodes = (
(292,759,l),
(300,706,l),
(258,572,l),
(220,530,l),
(104,560,l),
(243,768,l)
);
},
{
closed = 1;
nodes = (
(502,759,l),
(510,706,l),
(468,572,l),
(430,530,l),
(314,560,l),
(453,768,l)
);
}
);
width = 450;
}
);
unicode = 8220;
},
{
category = Letter;
glyphname = quotedblright;
layers = (
{
layerId = "b692dbeb-fef6-4ff9-be0e-3d959b00990b";
name = Fore;
shapes = (
{
closed = 1;
nodes = (
(129,539,l),
(122,592,l),
(164,726,l),
(201,768,l),
(317,738,l),
(178,530,l)
);
},
{
closed = 1;
nodes = (
(339,539,l),
(332,592,l),
(374,726,l),
(411,768,l),
(527,738,l),
(388,530,l)
);
}
);
width = 450;
}
);
unicode = 8221;
},
{
category = Letter;
glyphname = quotedblbase;
layers = (
{
layerId = "b692dbeb-fef6-4ff9-be0e-3d959b00990b";
name = Fore;
shapes = (
{
closed = 1;
nodes = (
(50,15,o),
(50,31.5,q),
(50,48,o),
(51,56,q),
(61,128,o),
(133,128,q),
(196,128,o),
(196,72,q),
(196,65,o),
(195,56,q),
(191,18,o),
(169,0,q),
(51,-128,l),
(27,-111,l),
(37,-42,l),
(61,3,l)
);
},
{
closed = 1;
nodes = (
(290,15,o),
(290,31.5,q),
(290,48,o),
(291,56,q),
(301,128,o),
(373,128,q),
(436,128,o),
(436,72,q),
(436,65,o),
(435,56,q),
(431,18,o),
(409,0,q),
(291,-128,l),
(267,-111,l),
(277,-42,l),
(301,3,l)
);
}
);
width = 458;
}
);
unicode = 8222;
},
{
category = Letter;
glyphname = dagger;
layers = (
{
layerId = "b692dbeb-fef6-4ff9-be0e-3d959b00990b";
name = Fore;
shapes = (
{
closed = 1;
nodes = (
(327,512,l),
(235,-146,l),
(111,-146,l),
(97,-130,l),
(192,512,l),
(99,512,l),
(86,528,l),
(101,636,l),
(211,636,l),
(251,905,l),
(351,905,l),
(364,889,l),
(345,636,l),
(437,636,l),
(451,620,l),
(435,512,l)
);
}
);
width = 375;
}
);
unicode = 8224;
},
{
category = Letter;
glyphname = daggerdbl;
layers = (
{
layerId = "b692dbeb-fef6-4ff9-be0e-3d959b00990b";
name = Fore;
shapes = (
{
closed = 1;
nodes = (
(276,127,l),
(238,-146,l),
(114,-146,l),
(100,-130,l),
(138,127,l),
(48,127,l),
(35,143,l),
(50,251,l),
(157,251,l),
(195,512,l),
(102,512,l),
(89,528,l),
(104,636,l),
(214,636,l),
(254,905,l),
(354,905,l),
(367,889,l),
(348,636,l),
(440,636,l),
(454,620,l),
(438,512,l),
(330,512,l),
(294,251,l),
(384,251,l),
(398,235,l),
(382,127,l)
);
}
);
width = 381;
}
);
unicode = 8225;
},
{
category = Letter;
glyphname = bullet;
layers = (
{
layerId = "b692dbeb-fef6-4ff9-be0e-3d959b00990b";
name = Fore;
shapes = (
{
closed = 1;
nodes = (
(270,391,o),
(270,317,q),
(270,306,o),
(268,295,q),
(255,199,o),
(158,199,q),
(74,199,o),
(74,273,q),
(74,283,o),
(76,295,q),
(89,391,o),
(185,391,q)
);
}
);
width = 262;
}
);
unicode = 8226;
},
{
category = Letter;
glyphname = ellipsis;
layers = (
{
layerId = "b692dbeb-fef6-4ff9-be0e-3d959b00990b";
name = Fore;
shapes = (
{
closed = 1;
nodes = (
(194,128,o),
(194,72,q),
(194,65,o),
(193,56,q),
(184,-16,o),
(111,-16,q),
(48,-16,o),
(48,41,q),
(48,48,o),
(49,56,q),
(59,128,o),
(131,128,q)
);
},
{
closed = 1;
nodes = (
(434,128,o),
(434,72,q),
(434,65,o),
(433,56,q),
(424,-16,o),
(351,-16,q),
(288,-16,o),
(288,41,q),
(288,48,o),
(289,56,q),
(299,128,o),
(371,128,q)
);
},
{
closed = 1;
nodes = (
(674,128,o),
(674,72,q),
(674,65,o),
(673,56,q),
(664,-16,o),
(591,-16,q),
(528,-16,o),
(528,41,q),
(528,48,o),
(529,56,q),
(539,128,o),
(611,128,q)
);
}
);
width = 710;
}
);
unicode = 8230;
},
{
category = Letter;
glyphname = perthousand;
layers = (
{
layerId = "b692dbeb-fef6-4ff9-be0e-3d959b00990b";
name = Fore;
shapes = (
{
closed = 1;
nodes = (
(514,720,l),
(603,720,l),
(588,613,l),
(310,0,l),
(200,0,l),
(186,16,l)
);
},
{
closed = 1;
nodes = (
(184,690,o),
(246.5,690,q),
(309,690,o),
(333,656,q),
(349,634,o),
(349,600,q),
(349,566,o),
(345,538,q),
(333,453,o),
(300,419.5,q),
(267,386,o),
(204,386,q),
(141,386,o),
(117,420,q),
(101,442,o),
(101,476,q),
(101,510,o),
(105,538,q),
(117,623,o),
(150.5,656.5,q)
);
},
{
closed = 1;
nodes = (
(186,469,o),
(215,469,q),
(251,469,o),
(263,543,q),
(266,565,o),
(266,577.5,q),
(266,590,o),
(264,596,q),
(259,607,o),
(239,607,q),
(219,607,o),
(206,587,q),
(193,567,o),
(189.5,545.5,q),
(186,524,o),
(186,513,q)
);
},
{
closed = 1;
nodes = (
(540,320,o),
(602.5,320,q),
(665,320,o),
(689,286,q),
(705,264,o),
(705,230,q),
(705,196,o),
(701,168,q),
(689,83,o),
(656,49.5,q),
(623,16,o),
(560,16,q),
(497,16,o),
(473,50,q),
(457,72,o),
(457,106,q),
(457,140,o),
(461,168,q),
(473,253,o),
(506.5,286.5,q)
);
},
{
closed = 1;
nodes = (
(542,99,o),
(571,99,q),
(607,99,o),
(619,173,q),
(622,195,o),
(622,207.5,q),
(622,220,o),
(620,226,q),
(615,237,o),
(595,237,q),
(575,237,o),
(562,217,q),
(549,197,o),
(545.5,175.5,q),
(542,154,o),
(542,143,q)
);
},
{
closed = 1;
nodes = (
(821,320,o),
(883.5,320,q),
(946,320,o),
(970,286,q),
(986,264,o),
(986,230,q),
(986,196,o),
(982,168,q),
(970,83,o),
(937,49.5,q),
(904,16,o),
(841,16,q),
(778,16,o),
(754,50,q),
(738,72,o),
(738,106,q),
(738,140,o),
(742,168,q),
(754,253,o),
(787.5,286.5,q)
);
},
{
closed = 1;
nodes = (
(823,99,o),
(852,99,q),
(888,99,o),
(900,173,q),
(903,195,o),
(903,207.5,q),
(903,220,o),
(901,226,q),
(896,237,o),
(876,237,q),
(856,237,o),
(843,217,q),
(830,197,o),
(826.5,175.5,q),
(823,154,o),
(823,143,q)
);
}
);
width = 975;
}
);
unicode = 8240;
},
{
category = Letter;
glyphname = guilsinglleft;
layers = (
{
layerId = "b692dbeb-fef6-4ff9-be0e-3d959b00990b";
name = Fore;
shapes = (
{
closed = 1;
nodes = (
(290,156,l),
(238,169,l),
(76,335,l),
(62,384,l),
(89,433,l),
(283,599,l),
(339,612,l),
(365,573,l),
(177,384,l),
(328,195,l)
);
}
);
width = 335;
}
);
unicode = 8249;
},
{
category = Letter;
glyphname = guilsinglright;
layers = (
{
layerId = "b692dbeb-fef6-4ff9-be0e-3d959b00990b";
name = Fore;
shapes = (
{
closed = 1;
nodes = (
(61,195,l),
(264,384,l),
(130,573,l),
(168,612,l),
(220,599,l),
(366,433,l),
(379,384,l),
(353,335,l),
(143,169,l),
(87,156,l)
);
}
);
width = 335;
}
);
unicode = 8250;
},
{
category = Letter;
glyphname = fraction;
layers = (
{
layerId = "b692dbeb-fef6-4ff9-be0e-3d959b00990b";
name = Fore;
shapes = (
{
closed = 1;
nodes = (
(479,876,l),
(599,876,l),
(612,860,l),
(128,-146,l),
(2,-146,l),
(-11,-130,l)
);
}
);
width = 499;
}
);
unicode = 8260;
},
{
category = Letter;
glyphname = Euro;
layers = (
{
layerId = "b692dbeb-fef6-4ff9-be0e-3d959b00990b";
name = Fore;
shapes = (
{
closed = 1;
nodes = (
(333,768,o),
(451,768,q),
(569,768,o),
(615,734,q),
(622,728,o),
(622,719,q),
(622,710,o),
(608,681,q),
(594,652,o),
(584.5,640.5,q),
(575,629,o),
(565.5,629,q),
(556,629,o),
(551,630,q),
(478,645,o),
(420,645,q),
(386,645,o),
(364,618.5,q),
(342,592,o),
(328,534,q),
(510,534,l),
(523,518,l),
(508,410,l),
(96,410,l),
(82,426,l),
(98,534,l),
(170,534,l),
(204,667,o),
(268.5,717.5,q)
);
},
{
closed = 1;
nodes = (
(281,144,o),
(297.5,126,q),
(314,108,o),
(355,108,q),
(396,108,o),
(499,118,q),
(526,120,o),
(526,96,q),
(526,93,o),
(522,66,q),
(518,39,o),
(510,20,q),
(502,1,o),
(479,-3,q),
(388,-16,o),
(345,-16,q),
(229,-16,o),
(178,32,q),
(127,80,o),
(125,196,q),
(66,196,l),
(52,212,l),
(67,320,l),
(479,320,l),
(493,304,l),
(478,196,l),
(281,196,l)
);
}
);
width = 554;
}
);
unicode = 8364;
},
{
category = Letter;
glyphname = trademark;
layers = (
{
layerId = "b692dbeb-fef6-4ff9-be0e-3d959b00990b";
name = Fore;
shapes = (
{
closed = 1;
nodes = (
(139,752,l),
(392,752,l),
(406,736,l),
(396,667,l),
(312,667,l),
(271,368,l),
(186,368,l),
(172,384,l),
(212,667,l),
(143,667,l),
(129,683,l)
);
},
{
closed = 1;
nodes = (
(530,586,l),
(499,368,l),
(414,368,l),
(400,384,l),
(452,752,l),
(544,752,l),
(558,736,l),
(588,621,l),
(659,752,l),
(732,752,l),
(746,736,l),
(734,572,l),
(705,368,l),
(621,368,l),
(607,384,l),
(637,592,l),
(595,527,l),
(551,527,l)
);
}
);
width = 699;
}
);
unicode = 8482;
},
{
category = Letter;
glyphname = minus;
layers = (
{
layerId = "b692dbeb-fef6-4ff9-be0e-3d959b00990b";
name = Fore;
shapes = (
{
closed = 1;
nodes = (
(104,308,l),
(90,324,l),
(105,432,l),
(555,432,l),
(569,416,l),
(554,308,l)
);
}
);
width = 556;
}
);
unicode = 8722;
},
{
category = Letter;
glyphname = fi;
layers = (
{
layerId = "b692dbeb-fef6-4ff9-be0e-3d959b00990b";
name = Fore;
shapes = (
{
closed = 1;
nodes = (
(64,416,o),
(64,424,q),
(64,434,l),
(70,476,o),
(86,480,q),
(168,496,l),
(191,658,o),
(241,713,q),
(291,768,o),
(413,768,q),
(481,768,o),
(558,744,q),
(583,736,o),
(586,734,q),
(587,734,l),
(593,730,o),
(593,719.5,q),
(593,709,o),
(583.5,684.5,q),
(574,660,o),
(564.5,647,q),
(555,634,o),
(546,639,q),
(494,667,o),
(387,667,q),
(349,667,o),
(332,629.5,q),
(315,592,o),
(301,496,q),
(444,496,l),
(560,496,o),
(555,457,q),
(491,0,l),
(490,-6,o),
(488,-8,q),
(482,-16,o),
(455,-16,q),
(428,-16,o),
(406,-14,q),
(353,-9,o),
(355,0,q),
(413,416,l),
(298,416,l),
(208,-224,l),
(207,-230,o),
(206,-232,q),
(201,-240,o),
(167,-240,q),
(133,-240,o),
(99.5,-235,q),
(66,-230,o),
(67,-224,q),
(157,416,l),
(77,416,l)
);
}
);
width = 520;
}
);
unicode = 64257;
},
{
category = Letter;
glyphname = fl;
layers = (
{
layerId = "b692dbeb-fef6-4ff9-be0e-3d959b00990b";
name = Fore;
shapes = (
{
closed = 1;
nodes = (
(64,416,o),
(64,424,q),
(64,434,l),
(70,476,o),
(86,480,q),
(168,496,l),
(191,658,o),
(241,713,q),
(291,768,o),
(413,768,q),
(442,768,o),
(518,757.5,q),
(594,747,o),
(594,737,q),
(569,431,l),
(509,0,l),
(508,-6,o),
(506,-8,q),
(500,-16,o),
(473,-16,q),
(446,-16,o),
(424,-14,q),
(372,-9,o),
(374,0,q),
(467,662,l),
(431,667,o),
(390,667,q),
(349,667,o),
(332,629.5,q),
(315,592,o),
(301,496,q),
(397,496,l),
(409,496,o),
(409,473,q),
(409,466,o),
(408,456,q),
(402,416,o),
(386,416,q),
(298,416,l),
(208,-224,l),
(207,-230,o),
(206,-232,q),
(201,-240,o),
(167,-240,q),
(133,-240,o),
(99.5,-235,q),
(66,-230,o),
(67,-224,q),
(157,416,l),
(77,416,l)
);
}
);
width = 537;
}
);
unicode = 64258;
},
{
category = Letter;
glyphname = T_i;
layers = (
{
layerId = "b692dbeb-fef6-4ff9-be0e-3d959b00990b";
name = Fore;
shapes = (
{
closed = 1;
nodes = (
(692,752,o),
(692,725,q),
(692,632,o),
(631,632,q),
(394,633,l),
(375,430,l),
(319,23,l),
(315,-3,o),
(308,-9.5,q),
(301,-16,o),
(273,-16,q),
(172,-16,o),
(177,21,q),
(263,632,l),
(138,632,l),
(114,633,o),
(109.5,642.5,q),
(105,652,o),
(105,668,q),
(105,752,o),
(149,752,q),
(638,752,l)
);
},
{
closed = 1;
nodes = (
(503,512,o),
(539,512,q),
(575,512,o),
(606.5,507,q),
(638,502,o),
(637,496,q),
(568,0,l),
(567,-6,o),
(565,-8,q),
(559,-16,o),
(532,-16,q),
(505,-16,o),
(483,-14,q),
(430,-9,o),
(432,0,q),
(501,496,l)
);
}
);
width = 628;
}
);
},
{
category = Letter;
glyphname = F_i;
layers = (
{
layerId = "b692dbeb-fef6-4ff9-be0e-3d959b00990b";
name = Fore;
shapes = (
{
closed = 1;
nodes = (
(163,-16,o),
(143.5,-16,q),
(124,-16,o),
(101,-14,q),
(45,-9,o),
(47,0,q),
(152,752,l),
(527,752,l),
(558,751,o),
(567.5,744.5,q),
(577,738,o),
(577,731,q),
(577,724,o),
(576,721,q),
(567,669,o),
(554,650.5,q),
(541,632,o),
(505,632,q),
(263,632,l),
(248,455,l),
(487,455,l),
(528,455,o),
(524,423,q),
(465,0,l),
(464,-6,o),
(462,-8,q),
(456,-16,o),
(429,-16,q),
(402,-16,o),
(380,-14,q),
(327,-9,o),
(329,0,q),
(375,334,l),
(233,334,l),
(187,0,l),
(186,-6,o),
(184,-8.5,q),
(182,-11,o),
(172.5,-13.5,q)
);
}
);
width = 513;
}
);
},
{
category = Letter;
glyphname = V_i;
layers = (
{
layerId = "b692dbeb-fef6-4ff9-be0e-3d959b00990b";
name = Fore;
shapes = (
{
closed = 1;
nodes = (
(790,749,o),
(790,724,q),
(790,721,o),
(789,718,q),
(778,629,o),
(729,629,q),
(620,630,l),
(389,21,l),
(380,-2,o),
(371.5,-9,q),
(363,-16,o),
(323,-16,q),
(229,-16,o),
(226,22,q),
(131,731,l),
(127,768,o),
(203,768,q),
(236,768,o),
(253.5,759.5,q),
(271,751,o),
(274,727,q),
(335,194,l),
(524,713,l),
(531,734,o),
(545,741.5,q),
(559,749,o),
(590,749,q),
(736,749,l)
);
},
{
closed = 1;
nodes = (
(626,512,o),
(662,512,q),
(698,512,o),
(729.5,507,q),
(761,502,o),
(760,496,q),
(691,0,l),
(690,-6,o),
(688,-8,q),
(682,-16,o),
(655,-16,q),
(628,-16,o),
(606,-14,q),
(553,-9,o),
(555,0,q),
(624,496,l)
);
}
);
width = 732;
}
);
},
{
category = Letter;
glyphname = W_i;
layers = (
{
layerId = "b692dbeb-fef6-4ff9-be0e-3d959b00990b";
name = Fore;
shapes = (
{
closed = 1;
nodes = (
(1154,749,o),
(1154,724,q),
(1154,721,o),
(1153,718,q),
(1142,629,o),
(1093,629,q),
(985,629,l),
(754,20,l),
(746,-1,o),
(735.5,-8.5,q),
(725,-16,o),
(694.5,-16,q),
(664,-16,o),
(629.5,-7.5,q),
(595,1,o),
(592,20,q),
(536,375,l),
(397,22,l),
(388,0,o),
(377,-8,q),
(366,-16,o),
(336,-16,q),
(306,-16,o),
(271.5,-7.5,q),
(237,1,o),
(235,20,q),
(140,734,l),
(136,768,o),
(207,768,q),
(278,768,o),
(282,731,q),
(342,194,l),
(499,632,l),
(506,652,o),
(520,659,q),
(534,666,o),
(565,666,q),
(645,666,o),
(650,623,q),
(698,194,l),
(888,713,l),
(895,734,o),
(909,741.5,q),
(923,749,o),
(954,749,q),
(1100,749,l)
);
},
{
closed = 1;
nodes = (
(986,512,o),
(1022,512,q),
(1058,512,o),
(1089.5,507,q),
(1121,502,o),
(1120,496,q),
(1051,0,l),
(1050,-6,o),
(1048,-8,q),
(1042,-16,o),
(1015,-16,q),
(988,-16,o),
(966,-14,q),
(913,-9,o),
(915,0,q),
(984,496,l)
);
}
);
width = 1093;
}
);
},
{
category = Letter;
glyphname = Y_i;
layers = (
{
layerId = "b692dbeb-fef6-4ff9-be0e-3d959b00990b";
name = Fore;
shapes = (
{
closed = 1;
nodes = (
(794,752,o),
(794,725,q),
(794,632,o),
(733,632,q),
(594,632,l),
(408,349,l),
(361,21,l),
(358,-3,o),
(351,-9.5,q),
(344,-16,o),
(316,-16,q),
(245,-16,o),
(245,17,q),
(245,19,o),
(245,22,q),
(291,349,l),
(126,732,l),
(124,738,o),
(124,743,q),
(124,768,o),
(191.5,768,q),
(259,768,o),
(269,731,q),
(373,492,l),
(518,718,l),
(529,738,o),
(544,745,q),
(559,752,o),
(589,752,q),
(740,752,l)
);
},
{
closed = 1;
nodes = (
(629,512,o),
(665,512,q),
(701,512,o),
(732.5,507,q),
(764,502,o),
(763,496,q),
(694,0,l),
(693,-6,o),
(691,-8,q),
(685,-16,o),
(658,-16,q),
(631,-16,o),
(609,-14,q),
(556,-9,o),
(558,0,q),
(627,496,l)
);
}
);
width = 738;
}
);
},
{
category = Letter;
glyphname = t_i;
layers = (
{
layerId = "b692dbeb-fef6-4ff9-be0e-3d959b00990b";
name = Fore;
shapes = (
{
closed = 1;
nodes = (
(58,416,o),
(58,424,q),
(58,434,l),
(64,476,o),
(80,480,q),
(162,496,l),
(234,609,l),
(247,624,o),
(282,624,q),
(294,624,o),
(295.5,581,q),
(297,538,o),
(298,496,q),
(452,496,l),
(547,496,o),
(544,468,q),
(479,0,l),
(478,-6,o),
(476,-8,q),
(470,-16,o),
(443,-16,q),
(416,-16,o),
(394,-14,q),
(341,-9,o),
(343,0,q),
(401,416,l),
(286,416,l),
(241,98,l),
(241,-16,l),
(241,-21,o),
(239,-24,q),
(234,-32,o),
(188.5,-32,q),
(143,-32,o),
(138,-16,q),
(104,81,l),
(151,416,l),
(71,416,l)
);
},
{
closed = 1;
nodes = (
(568,768,o),
(568,712,q),
(568,705,o),
(567,696,q),
(557,624,o),
(485,624,q),
(422,624,o),
(422,680,q),
(422,687,o),
(423,696,q),
(433,768,o),
(505,768,q)
);
}
);
width = 520;
}
);
},
{
category = Letter;
glyphname = T_iacute;
layers = (
{
layerId = "b692dbeb-fef6-4ff9-be0e-3d959b00990b";
name = Fore;
shapes = (
{
closed = 1;
nodes = (
(105,752,o),
(149,752,q),
(638,752,l),
(658,752,o),
(680.5,742,q),
(703,732,o),
(767,692,q),
(601,533,l),
(558,554,l),
(565,609,l),
(578,632,l),
(394,633,l),
(375,430,l),
(319,23,l),
(315,-3,o),
(308,-9.5,q),
(301,-16,o),
(273,-16,q),
(172,-16,o),
(177,21,q),
(263,632,l),
(138,632,l),
(114,633,o),
(109.5,642.5,q),
(105,652,o),
(105,668,q)
);
},
{
closed = 1;
nodes = (
(503,512,o),
(539,512,q),
(575,512,o),
(606.5,507,q),
(638,502,o),
(637,496,q),
(568,0,l),
(567,-6,o),
(565,-8,q),
(559,-16,o),
(532,-16,q),
(505,-16,o),
(483,-14,q),
(430,-9,o),
(432,0,q),
(501,496,l)
);
}
);
width = 701;
}
);
},
{
category = Letter;
glyphname = T_igrave;
layers = (
{
layerId = "b692dbeb-fef6-4ff9-be0e-3d959b00990b";
name = Fore;
shapes = (
{
closed = 1;
nodes = (
(105,752,o),
(149,752,q),
(503,752,l),
(535,752,o),
(551,728.5,q),
(567,705,o),
(595,609,q),
(586,554,l),
(537,533,l),
(459,632,l),
(394,633,l),
(375,430,l),
(319,23,l),
(315,-3,o),
(308,-9.5,q),
(301,-16,o),
(273,-16,q),
(172,-16,o),
(177,21,q),
(263,632,l),
(138,632,l),
(114,633,o),
(109.5,642.5,q),
(105,652,o),
(105,668,q)
);
},
{
closed = 1;
nodes = (
(501,512,o),
(537,512,q),
(573,512,o),
(604.5,507,q),
(636,502,o),
(635,496,q),
(566,0,l),
(565,-6,o),
(563,-8,q),
(557,-16,o),
(530,-16,q),
(503,-16,o),
(481,-14,q),
(428,-9,o),
(430,0,q),
(499,496,l)
);
}
);
width = 605;
}
);
},
{
category = Letter;
glyphname = F_iacute;
layers = (
{
layerId = "b692dbeb-fef6-4ff9-be0e-3d959b00990b";
name = Fore;
shapes = (
{
closed = 1;
nodes = (
(465,455,o),
(494,447,q),
(523,439,o),
(521,424,q),
(462,0,l),
(461,-6,o),
(459,-8,q),
(453,-16,o),
(426,-16,q),
(399,-16,o),
(377,-14,q),
(324,-9,o),
(326,0,q),
(372,334,l),
(233,334,l),
(187,0,l),
(186,-6,o),
(184,-8,q),
(178,-16,o),
(151,-16,q),
(124,-16,o),
(101,-14,q),
(45,-9,o),
(47,0,q),
(152,752,l),
(535,752,l),
(554,751,o),
(576.5,741,q),
(599,731,o),
(662,692,q),
(496,533,l),
(453,554,l),
(460,609,l),
(473,632,l),
(263,632,l),
(248,455,l),
(429,455,l)
);
}
);
width = 589;
}
);
},
{
category = Letter;
glyphname = F_igrave;
layers = (
{
layerId = "b692dbeb-fef6-4ff9-be0e-3d959b00990b";
name = Fore;
shapes = (
{
closed = 1;
nodes = (
(438,-16,o),
(418.5,-16,q),
(399,-16,o),
(377,-14,q),
(324,-9,o),
(326,0,q),
(372,334,l),
(233,334,l),
(187,0,l),
(186,-6,o),
(184,-8,q),
(178,-16,o),
(151,-16,q),
(124,-16,o),
(101,-14,q),
(45,-9,o),
(47,0,q),
(152,752,l),
(399,752,l),
(427,751,o),
(443,728,q),
(459,705,o),
(492,609,q),
(483,554,l),
(434,533,l),
(355,632,l),
(263,632,l),
(248,455,l),
(441,455,l),
(525,453,o),
(521,423,q),
(462,0,l),
(461,-6,o),
(459,-8.5,q),
(457,-11,o),
(447.5,-13.5,q)
);
}
);
width = 495;
}
);
},
{
category = Letter;
glyphname = V_iacute;
layers = (
{
layerId = "b692dbeb-fef6-4ff9-be0e-3d959b00990b";
name = Fore;
shapes = (
{
closed = 1;
nodes = (
(236,768,o),
(253.5,759.5,q),
(271,751,o),
(274,727,q),
(335,194,l),
(524,713,l),
(531,734,o),
(545,741.5,q),
(559,749,o),
(590,749,q),
(736,749,l),
(753,749,o),
(778.5,740,q),
(804,731,o),
(895,692,q),
(724,533,l),
(681,554,l),
(688,609,l),
(699,628,l),
(699,629,l),
(620,630,l),
(389,21,l),
(380,-2,o),
(371.5,-9,q),
(363,-16,o),
(323,-16,q),
(229,-16,o),
(226,22,q),
(131,731,l),
(127,768,o),
(203,768,q)
);
},
{
closed = 1;
nodes = (
(628,512,o),
(664,512,q),
(700,512,o),
(731.5,507,q),
(763,502,o),
(762,496,q),
(693,0,l),
(692,-6,o),
(690,-8,q),
(684,-16,o),
(657,-16,q),
(630,-16,o),
(608,-14,q),
(555,-9,o),
(557,0,q),
(626,496,l)
);
}
);
width = 825;
}
);
},
{
category = Letter;
glyphname = V_igrave;
layers = (
{
layerId = "b692dbeb-fef6-4ff9-be0e-3d959b00990b";
name = Fore;
shapes = (
{
closed = 1;
nodes = (
(236,768,o),
(253.5,759.5,q),
(271,751,o),
(274,727,q),
(335,194,l),
(524,713,l),
(531,734,o),
(545,741.5,q),
(559,749,o),
(590,749,q),
(628,749,l),
(660,749,o),
(675,726,q),
(690,703,o),
(719,609,q),
(710,554,l),
(661,533,l),
(610,597,l),
(609,600,l),
(389,21,l),
(380,-2,o),
(371.5,-9,q),
(363,-16,o),
(323,-16,q),
(229,-16,o),
(226,22,q),
(131,731,l),
(127,768,o),
(203,768,q)
);
},
{
closed = 1;
nodes = (
(625,512,o),
(661,512,q),
(697,512,o),
(728.5,507,q),
(760,502,o),
(759,496,q),
(690,0,l),
(689,-6,o),
(687,-8,q),
(681,-16,o),
(654,-16,q),
(627,-16,o),
(605,-14,q),
(552,-9,o),
(554,0,q),
(623,496,l)
);
}
);
width = 725;
}
);
},
{
category = Letter;
glyphname = Y_iacute;
layers = (
{
layerId = "b692dbeb-fef6-4ff9-be0e-3d959b00990b";
name = Fore;
shapes = (
{
closed = 1;
nodes = (
(124,768,o),
(191.5,768,q),
(259,768,o),
(269,731,q),
(373,492,l),
(518,718,l),
(529,738,o),
(544,745,q),
(559,752,o),
(589,752,q),
(740,752,l),
(757,752,o),
(782.5,742,q),
(808,732,o),
(892,692,q),
(726,533,l),
(683,554,l),
(690,609,l),
(704,628,l),
(706,632,l),
(594,632,l),
(408,349,l),
(361,21,l),
(358,-3,o),
(351,-9.5,q),
(344,-16,o),
(316,-16,q),
(245,-16,o),
(245,17,q),
(245,19,o),
(245,22,q),
(291,349,l),
(126,732,l),
(124,738,o),
(124,743,q)
);
},
{
closed = 1;
nodes = (
(629,512,o),
(665,512,q),
(701,512,o),
(732.5,507,q),
(764,502,o),
(763,496,q),
(694,0,l),
(693,-6,o),
(691,-8,q),
(685,-16,o),
(658,-16,q),
(631,-16,o),
(609,-14,q),
(556,-9,o),
(558,0,q),
(627,496,l)
);
}
);
width = 828;
}
);
},
{
category = Letter;
glyphname = Y_igrave;
layers = (
{
layerId = "b692dbeb-fef6-4ff9-be0e-3d959b00990b";
name = Fore;
shapes = (
{
closed = 1;
nodes = (
(124,768,o),
(191.5,768,q),
(259,768,o),
(269,731,q),
(373,492,l),
(518,718,l),
(529,738,o),
(544,745,q),
(559,752,o),
(589,752,q),
(629,752,l),
(661,752,o),
(676.5,728.5,q),
(692,705,o),
(720,609,q),
(711,554,l),
(662,533,l),
(589,624,l),
(408,349,l),
(361,21,l),
(358,-3,o),
(351,-9.5,q),
(344,-16,o),
(316,-16,q),
(245,-16,o),
(245,17,q),
(245,19,o),
(245,22,q),
(291,349,l),
(126,732,l),
(124,738,o),
(124,743,q)
);
},
{
closed = 1;
nodes = (
(627,512,o),
(663,512,q),
(699,512,o),
(730.5,507,q),
(762,502,o),
(761,496,q),
(692,0,l),
(691,-6,o),
(689,-8,q),
(683,-16,o),
(656,-16,q),
(629,-16,o),
(607,-14,q),
(554,-9,o),
(556,0,q),
(625,496,l)
);
}
);
width = 732;
}
);
},
{
category = Letter;
glyphname = W_iacute;
layers = (
{
layerId = "b692dbeb-fef6-4ff9-be0e-3d959b00990b";
name = Fore;
shapes = (
{
closed = 1;
nodes = (
(1100,749,l),
(1119,749,o),
(1144,740,q),
(1169,731,o),
(1253,692,q),
(1086,533,l),
(1043,554,l),
(1050,609,l),
(1061,628,l),
(1061,629,l),
(985,629,l),
(754,20,l),
(746,-1,o),
(735.5,-8.5,q),
(725,-16,o),
(694.5,-16,q),
(664,-16,o),
(629.5,-7.5,q),
(595,1,o),
(592,20,q),
(536,375,l),
(397,22,l),
(388,0,o),
(377,-8,q),
(366,-16,o),
(336,-16,q),
(306,-16,o),
(271.5,-7.5,q),
(237,1,o),
(235,20,q),
(140,734,l),
(136,768,o),
(207,768,q),
(278,768,o),
(282,731,q),
(342,194,l),
(499,632,l),
(506,652,o),
(520,659,q),
(534,666,o),
(565,666,q),
(645,666,o),
(650,623,q),
(698,194,l),
(888,713,l),
(895,734,o),
(909,741.5,q),
(923,749,o),
(954,749,q)
);
},
{
closed = 1;
nodes = (
(989,512,o),
(1025,512,q),
(1061,512,o),
(1092.5,507,q),
(1124,502,o),
(1123,496,q),
(1054,0,l),
(1053,-6,o),
(1051,-8,q),
(1045,-16,o),
(1018,-16,q),
(991,-16,o),
(969,-14,q),
(916,-9,o),
(918,0,q),
(987,496,l)
);
}
);
width = 1187;
}
);
},
{
category = Letter;
glyphname = W_igrave;
layers = (
{
layerId = "b692dbeb-fef6-4ff9-be0e-3d959b00990b";
name = Fore;
shapes = (
{
closed = 1;
nodes = (
(991,749,l),
(1022,749,o),
(1037.5,726,q),
(1053,703,o),
(1081,609,q),
(1072,554,l),
(1023,533,l),
(972,596,l),
(754,20,l),
(746,-1,o),
(735.5,-8.5,q),
(725,-16,o),
(694.5,-16,q),
(664,-16,o),
(629.5,-7.5,q),
(595,1,o),
(592,20,q),
(536,375,l),
(397,22,l),
(388,0,o),
(377,-8,q),
(366,-16,o),
(336,-16,q),
(306,-16,o),
(271.5,-7.5,q),
(237,1,o),
(235,20,q),
(140,734,l),
(136,768,o),
(207,768,q),
(278,768,o),
(282,731,q),
(342,194,l),
(499,632,l),
(506,652,o),
(520,659,q),
(534,666,o),
(565,666,q),
(645,666,o),
(650,623,q),
(698,194,l),
(888,713,l),
(895,734,o),
(909,741.5,q),
(923,749,o),
(954,749,q)
);
},
{
closed = 1;
nodes = (
(986,512,o),
(1022,512,q),
(1058,512,o),
(1089.5,507,q),
(1121,502,o),
(1120,496,q),
(1051,0,l),
(1050,-6,o),
(1048,-8,q),
(1042,-16,o),
(1015,-16,q),
(988,-16,o),
(966,-14,q),
(913,-9,o),
(915,0,q),
(984,496,l)
);
}
);
width = 1088;
}
);
},
{
category = Letter;
glyphname = t_iacute;
layers = (
{
layerId = "b692dbeb-fef6-4ff9-be0e-3d959b00990b";
name = Fore;
shapes = (
{
closed = 1;
nodes = (
(58,416,o),
(58,424,q),
(58,434,l),
(64,476,o),
(80,480,q),
(162,496,l),
(234,609,l),
(247,624,o),
(282,624,q),
(294,624,o),
(295.5,581,q),
(297,538,o),
(298,496,q),
(452,496,l),
(547,496,o),
(544,468,q),
(479,0,l),
(478,-6,o),
(476,-8,q),
(470,-16,o),
(443,-16,q),
(416,-16,o),
(394,-14,q),
(341,-9,o),
(343,0,q),
(401,416,l),
(286,416,l),
(241,98,l),
(241,-16,l),
(241,-21,o),
(239,-24,q),
(234,-32,o),
(188.5,-32,q),
(143,-32,o),
(138,-16,q),
(104,81,l),
(151,416,l),
(71,416,l)
);
},
{
closed = 1;
nodes = (
(471,554,l),
(478,609,l),
(553,733,l),
(599,765,l),
(699,705,l),
(514,533,l)
);
}
);
width = 624;
}
);
},
{
category = Letter;
glyphname = t_igrave;
layers = (
{
layerId = "b692dbeb-fef6-4ff9-be0e-3d959b00990b";
name = Fore;
shapes = (
{
closed = 1;
nodes = (
(58,416,o),
(58,424,q),
(58,434,l),
(64,476,o),
(80,480,q),
(162,496,l),
(234,609,l),
(247,624,o),
(282,624,q),
(294,624,o),
(295.5,581,q),
(297,538,o),
(298,496,q),
(452,496,l),
(547,496,o),
(544,468,q),
(479,0,l),
(478,-6,o),
(476,-8,q),
(470,-16,o),
(443,-16,q),
(416,-16,o),
(394,-14,q),
(341,-9,o),
(343,0,q),
(401,416,l),
(286,416,l),
(241,98,l),
(241,-16,l),
(241,-21,o),
(239,-24,q),
(234,-32,o),
(188.5,-32,q),
(143,-32,o),
(138,-16,q),
(104,81,l),
(151,416,l),
(71,416,l)
);
},
{
closed = 1;
nodes = (
(475,533,l),
(340,705,l),
(456,765,l),
(494,733,l),
(533,609,l),
(524,554,l)
);
}
);
width = 518;
}
);
},
{
category = Letter;
glyphname = A_smcp;
layers = (
{
layerId = "b692dbeb-fef6-4ff9-be0e-3d959b00990b";
name = Fore;
shapes = (
{
closed = 1;
nodes = (
(324,528,o),
(328,502,q),
(352,24,l),
(351,2,o),
(345.5,-4.5,q),
(340,-11,o),
(316,-11,q),
(250,-11,o),
(247,21,q),
(245,151,l),
(164,151,l),
(126,18,l),
(122,0,o),
(115.5,-5.5,q),
(109,-11,o),
(86,-11,q),
(63,-11,o),
(52,-10,q),
(21,-9,o),
(16,4,q),
(14,7,o),
(14,12,q),
(14,17,o),
(16,23,q),
(166,507,l),
(173,528,o),
(275,528,q)
);
},
{
closed = 1;
nodes = (
(193,247,l),
(240,247,l),
(235,385,l)
);
}
);
width = 403;
}
);
},
{
category = Letter;
glyphname = B_smcp;
layers = (
{
layerId = "b692dbeb-fef6-4ff9-be0e-3d959b00990b";
name = Fore;
shapes = (
{
closed = 1;
nodes = (
(409,334,o),
(367,277,q),
(392,251,o),
(392,197,q),
(392,179,o),
(389,158,q),
(366,-6,o),
(177,-6,q),
(157,-6,o),
(32,5,q),
(105,522,l),
(175,531,o),
(239,531,q),
(346,531,o),
(382,496,q),
(409,470,o),
(409,419,q)
);
},
{
closed = 1;
nodes = (
(266,119,o),
(270,147,q),
(274,175,o),
(274,188.5,q),
(274,202,o),
(268,209,q),
(262,216,o),
(217,216,q),
(172,216,o),
(172,215,q),
(155,95,l),
(155,93,o),
(197.5,93,q),
(240,93,o),
(253,106,q)
);
},
{
closed = 1;
nodes = (
(243,315,o),
(264,327.5,q),
(285,340,o),
(291,382,q),
(292,389,o),
(292,399.5,q),
(292,410,o),
(286,423,q),
(280,436,o),
(270,436,q),
(208,435,o),
(202,429,q),
(186,318,l),
(186,315,o),
(190,315,q)
);
}
);
width = 420;
}
);
},
{
category = Letter;
glyphname = C_smcp;
layers = (
{
layerId = "b692dbeb-fef6-4ff9-be0e-3d959b00990b";
name = Fore;
shapes = (
{
closed = 1;
nodes = (
(101,-6,o),
(70,51,q),
(52,85,o),
(52,141,q),
(52,197,o),
(61,259,q),
(83,420,o),
(129,475.5,q),
(175,531,o),
(280,531,q),
(360,531,o),
(395,504,q),
(400,500,o),
(400,493,q),
(400,486,o),
(388.5,462.5,q),
(377,439,o),
(368.5,430,q),
(360,421,o),
(328.5,427,q),
(297,433,o),
(254,433,q),
(224,433,o),
(209.5,395.5,q),
(195,358,o),
(182.5,269,q),
(170,180,o),
(170,155.5,q),
(170,131,o),
(171,123,q),
(176,92,o),
(212,92,q),
(237,92,o),
(309,99,q),
(325,100,o),
(330.5,93,q),
(336,86,o),
(333,61,q),
(330,36,o),
(323,21.5,q),
(316,7,o),
(296,3,q),
(235,-6,o),
(205,-6,q)
);
}
);
width = 380;
}
);
},
{
category = Letter;
glyphname = D_smcp;
layers = (
{
layerId = "b692dbeb-fef6-4ff9-be0e-3d959b00990b";
name = Fore;
shapes = (
{
closed = 1;
nodes = (
(208,531,o),
(256.5,531,q),
(305,531,o),
(334,524,q),
(399,509,o),
(412,453,q),
(420,424,o),
(420,402,q),
(420,380,o),
(419.5,356.5,q),
(419,333,o),
(410,267,q),
(389,114,o),
(340.5,54,q),
(292,-6,o),
(184,-6,q),
(158,-6,o),
(32,5,q),
(105,521,l)
);
},
{
closed = 1;
nodes = (
(203,436,o),
(202,430,q),
(155,95,l),
(155,93,o),
(188,93,q),
(221,93,o),
(233,96.5,q),
(245,100,o),
(255.5,119,q),
(266,138,o),
(271.5,167,q),
(277,196,o),
(287.5,268.5,q),
(298,341,o),
(298,388.5,q),
(298,436,o),
(282,436,q)
);
}
);
width = 427;
}
);
},
{
category = Letter;
glyphname = E_smcp;
layers = (
{
layerId = "b692dbeb-fef6-4ff9-be0e-3d959b00990b";
name = Fore;
shapes = (
{
closed = 1;
nodes = (
(382,520,o),
(382,498,q),
(382,460,o),
(362,438,q),
(351,427,o),
(334,427,q),
(194,427,l),
(185,324,l),
(306,324,l),
(337,324,o),
(337,298,q),
(337,228,o),
(295,228,q),
(172,228,l),
(154,101,l),
(301,101,l),
(321,100,o),
(327.5,92.5,q),
(334,85,o),
(330.5,59,q),
(327,33,o),
(317.5,19,q),
(308,5,o),
(285,5,q),
(45,5,l),
(35,21,l),
(106,522,l),
(349,522,l)
);
}
);
width = 375;
}
);
},
{
category = Letter;
glyphname = F_smcp;
layers = (
{
layerId = "b692dbeb-fef6-4ff9-be0e-3d959b00990b";
name = Fore;
shapes = (
{
closed = 1;
nodes = (
(383,520,o),
(383,503,q),
(383,461,o),
(367,440,q),
(357,427,o),
(327,427,q),
(195,427,l),
(184,324,l),
(317,324,l),
(352,324,o),
(348,294,q),
(343,255,o),
(333.5,241.5,q),
(324,228,o),
(299,228,q),
(173,228,l),
(142,13,l),
(142,-6,o),
(112,-6,q),
(82,-6,o),
(58,0,q),
(34,6,o),
(35,13,q),
(107,522,l),
(343,522,l)
);
}
);
width = 339;
}
);
},
{
category = Letter;
glyphname = G_smcp;
layers = (
{
layerId = "b692dbeb-fef6-4ff9-be0e-3d959b00990b";
name = Fore;
shapes = (
{
closed = 1;
nodes = (
(175,531,o),
(287,531,q),
(399,531,o),
(399,492,q),
(399,485,o),
(395,476,q),
(377,440,o),
(368.5,432,q),
(360,424,o),
(351.5,424,q),
(343,424,o),
(315.5,428.5,q),
(288,433,o),
(255,433,q),
(222,433,o),
(209,397,q),
(196,361,o),
(183.5,270.5,q),
(171,180,o),
(171,155.5,q),
(171,131,o),
(172,123,q),
(177,92,o),
(213,92,q),
(259,96,l),
(278,234,l),
(284,262,o),
(330,263,q),
(355,263,o),
(366.5,256,q),
(378,249,o),
(377,228,q),
(369,96,l),
(356,5,l),
(268,-6,o),
(206,-6,q),
(102,-6,o),
(71,51,q),
(53,85,o),
(53,141.5,q),
(53,198,o),
(61,259,q),
(83,420,o),
(129,475.5,q)
);
}
);
width = 409;
}
);
},
{
category = Letter;
glyphname = H_smcp;
layers = (
{
layerId = "b692dbeb-fef6-4ff9-be0e-3d959b00990b";
name = Fore;
shapes = (
{
closed = 1;
nodes = (
(406,531,o),
(404,500,q),
(387,300,l),
(348,27,l),
(346,6,o),
(340,0,q),
(334,-6,o),
(307.5,-6,q),
(281,-6,o),
(259,1.5,q),
(237,9,o),
(239,26,q),
(265,212,l),
(172,212,l),
(147,27,l),
(145,6,o),
(139,0,q),
(133,-6,o),
(105.5,-6,q),
(78,-6,o),
(57,2,q),
(36,10,o),
(38,28,q),
(105,501,l),
(108,520,o),
(116,525.5,q),
(124,531,o),
(149.5,531,q),
(175,531,o),
(189.5,525,q),
(204,519,o),
(202,501,q),
(186,307,l),
(279,307,l),
(306,502,l),
(309,521,o),
(317,526,q),
(325,531,o),
(350,531,q)
);
}
);
width = 406;
}
);
},
{
category = Letter;
glyphname = I_smcp;
layers = (
{
layerId = "b692dbeb-fef6-4ff9-be0e-3d959b00990b";
name = Fore;
shapes = (
{
closed = 1;
nodes = (
(274,522,o),
(274,499,q),
(274,496,o),
(274,493,q),
(263,427,o),
(235,427,q),
(226,427,l),
(187,101,l),
(200,101,l),
(226,98,o),
(226,78,q),
(226,75,o),
(225,71,q),
(214,5,o),
(176,5,q),
(50,5,l),
(26,5,o),
(26,37,q),
(26,43,o),
(27,51,q),
(32,101,o),
(61,101,q),
(78,101,l),
(124,427,l),
(111,427,l),
(93,427,o),
(89,434.5,q),
(85,442,o),
(85,454,q),
(85,522,o),
(124,522,q),
(242,522,l)
);
}
);
width = 268;
}
);
},
{
category = Letter;
glyphname = J_smcp;
layers = (
{
layerId = "b692dbeb-fef6-4ff9-be0e-3d959b00990b";
name = Fore;
shapes = (
{
closed = 1;
nodes = (
(76,22,o),
(90,122,q),
(143,501,l),
(145,519,o),
(154.5,525,q),
(164,531,o),
(189,531,q),
(242,531,o),
(242,502,q),
(233,393,l),
(227,324,o),
(225,301,q),
(200,123,l),
(189,46,o),
(177,0.5,q),
(165,-45,o),
(144,-80.5,q),
(123,-116,o),
(90.5,-130,q),
(58,-144,o),
(9,-144,q),
(-7,-143,o),
(-10.5,-135.5,q),
(-14,-128,o),
(-14,-119.5,q),
(-14,-111,o),
(-11,-92,q),
(-6,-54,o),
(21,-54,q),
(48,-54,o),
(62,-16,q)
);
}
);
width = 243;
}
);
},
{
category = Letter;
glyphname = K_smcp;
layers = (
{
layerId = "b692dbeb-fef6-4ff9-be0e-3d959b00990b";
name = Fore;
shapes = (
{
closed = 1;
nodes = (
(330,531,o),
(380.5,531,q),
(431,531,o),
(431,511,q),
(431,505,o),
(426,497,q),
(298,290,l),
(388,31,l),
(395,12,o),
(388,3,q),
(381,-6,o),
(354,-6,q),
(327,-6,o),
(298.5,1,q),
(270,8,o),
(264,23,q),
(183,265,l),
(187,294,l),
(316,505,l)
);
},
{
closed = 1;
nodes = (
(207,531,o),
(203,499,q),
(185,301,l),
(147,28,l),
(145,6,o),
(139,0,q),
(133,-6,o),
(106,-6,q),
(79,-6,o),
(57,1.5,q),
(35,9,o),
(37,26,q),
(104,500,l),
(106,519,o),
(115.5,525,q),
(125,531,o),
(150,531,q)
);
}
);
width = 475;
}
);
},
{
category = Letter;
glyphname = L_smcp;
layers = (
{
layerId = "b692dbeb-fef6-4ff9-be0e-3d959b00990b";
name = Fore;
shapes = (
{
closed = 1;
nodes = (
(312,101,o),
(312,75,q),
(312,37,o),
(297,21,q),
(282,5,o),
(264,5,q),
(45,5,l),
(35,21,l),
(103,500,l),
(105,519,o),
(113.5,525,q),
(122,531,o),
(148,531,q),
(174,531,o),
(188,524.5,q),
(202,518,o),
(201,501,q),
(181,301,l),
(154,101,l),
(276,101,l)
);
}
);
width = 335;
}
);
},
{
category = Letter;
glyphname = M_smcp;
layers = (
{
layerId = "b692dbeb-fef6-4ff9-be0e-3d959b00990b";
name = Fore;
shapes = (
{
closed = 1;
nodes = (
(132,-6,o),
(105,-6,q),
(78,-6,o),
(56.5,1.5,q),
(35,9,o),
(37,27,q),
(104,499,l),
(108,531,o),
(161,531,q),
(214,531,o),
(222,502,q),
(259,349,l),
(342,505,l),
(353,522,o),
(361.5,526.5,q),
(370,531,o),
(395,531,q),
(420,531,o),
(433.5,524.5,q),
(447,518,o),
(447,501,q),
(438,392,l),
(432,323,o),
(430,300,q),
(392,32,l),
(389,7,o),
(383,0.5,q),
(377,-6,o),
(352.5,-6,q),
(328,-6,o),
(314.5,-4.5,q),
(301,-3,o),
(290,4.5,q),
(279,12,o),
(281,27,q),
(319,297,l),
(283,240,l),
(202,240,l),
(184,294,l),
(146,28,l),
(144,6,o),
(138,0,q)
);
}
);
width = 446;
}
);
},
{
category = Letter;
glyphname = N_smcp;
layers = (
{
layerId = "b692dbeb-fef6-4ff9-be0e-3d959b00990b";
name = Fore;
shapes = (
{
closed = 1;
nodes = (
(176,531,o),
(182.5,530,q),
(189,529,o),
(199,520,q),
(209,511,o),
(217,494,q),
(282,262,l),
(312,501,l),
(316,531,o),
(373,531,q),
(398,531,o),
(405,525.5,q),
(412,520,o),
(411,501,q),
(394,300,l),
(355,27,l),
(353,6,o),
(347,0,q),
(341,-6,o),
(318,-6,q),
(269,-6,o),
(261,24,q),
(180,262,l),
(147,28,l),
(145,6,o),
(139,0,q),
(133,-6,o),
(106,-6,q),
(79,-6,o),
(57.5,2,q),
(36,10,o),
(39,29,q),
(105,500,l),
(109,531,o),
(164,531,q)
);
}
);
width = 412;
}
);
},
{
category = Letter;
glyphname = O_smcp;
layers = (
{
layerId = "b692dbeb-fef6-4ff9-be0e-3d959b00990b";
name = Fore;
shapes = (
{
closed = 1;
nodes = (
(386,531,o),
(417,475,q),
(434,442,o),
(434,384,q),
(434,326,o),
(425,259,q),
(404,109,o),
(356.5,51.5,q),
(309,-6,o),
(205.5,-6,q),
(102,-6,o),
(71,52,q),
(53,86,o),
(53,142,q),
(53,198,o),
(61,259,q),
(83,419,o),
(129.5,475,q),
(176,531,o),
(281,531,q)
);
},
{
closed = 1;
nodes = (
(239,445,o),
(220,415,q),
(201,385,o),
(185.5,274.5,q),
(170,164,o),
(170,127.5,q),
(170,91,o),
(174.5,87.5,q),
(179,84,o),
(199,84,q),
(219,84,o),
(236.5,87.5,q),
(254,91,o),
(268.5,111.5,q),
(283,132,o),
(289.5,162.5,q),
(296,193,o),
(305,263,q),
(319,366,o),
(319,405.5,q),
(319,445,o),
(307,445,q)
);
}
);
width = 441;
}
);
},
{
category = Letter;
glyphname = P_smcp;
layers = (
{
layerId = "b692dbeb-fef6-4ff9-be0e-3d959b00990b";
name = Fore;
shapes = (
{
closed = 1;
nodes = (
(330,531,o),
(362,492,q),
(385,463,o),
(385,410,q),
(385,329,o),
(352,273,q),
(318,213,o),
(234,199,q),
(204,194,o),
(161,194,q),
(137,28,l),
(135,6,o),
(128.5,0,q),
(122,-6,o),
(96,-6,q),
(70,-6,o),
(53,1.5,q),
(36,9,o),
(38,28,q),
(108,522,l),
(175,531,o),
(234,531,q)
);
},
{
closed = 1;
nodes = (
(176,301,o),
(195,301,q),
(214,301,o),
(228,304,q),
(272,313,o),
(272,391,q),
(272,414,o),
(266,425,q),
(260,436,o),
(254,436,q),
(213,436,o),
(204,435,q),
(195,434,o),
(194,430,q),
(176,303,l)
);
}
);
width = 362;
}
);
},
{
category = Letter;
glyphname = Q_smcp;
layers = (
{
layerId = "b692dbeb-fef6-4ff9-be0e-3d959b00990b";
name = Fore;
shapes = (
{
closed = 1;
nodes = (
(383,531,o),
(413,475,q),
(431,442,o),
(431,384,q),
(431,326,o),
(422,259,q),
(401,109,o),
(353.5,51.5,q),
(306,-6,o),
(202.5,-6,q),
(99,-6,o),
(68,52,q),
(50,86,o),
(50,142,q),
(50,198,o),
(58,259,q),
(80,419,o),
(126.5,475,q),
(173,531,o),
(278,531,q)
);
},
{
closed = 1;
nodes = (
(236,445,o),
(217,414.5,q),
(198,384,o),
(182.5,274,q),
(167,164,o),
(167,127.5,q),
(167,91,o),
(171.5,87.5,q),
(176,84,o),
(196,84,q),
(216,84,o),
(233.5,87.5,q),
(251,91,o),
(265.5,111.5,q),
(280,132,o),
(286.5,162.5,q),
(293,193,o),
(303,263,q),
(317,366,o),
(317,405.5,q),
(317,445,o),
(304,445,q)
);
},
{
closed = 1;
nodes = (
(315,-136,o),
(282.5,-136,q),
(250,-136,o),
(179,-128.5,q),
(108,-121,o),
(69,-121,q),
(62,-82,l),
(70,-33,o),
(124,-33,q),
(158,-33,o),
(227,-40,q),
(296,-47,o),
(334,-47,q),
(345,-90,l),
(341,-117,o),
(328,-126.5,q)
);
}
);
width = 436;
}
);
},
{
category = Letter;
glyphname = R_smcp;
layers = (
{
layerId = "b692dbeb-fef6-4ff9-be0e-3d959b00990b";
name = Fore;
shapes = (
{
closed = 1;
nodes = (
(333,531,o),
(365,495,q),
(389,469,o),
(389,417,q),
(389,398,o),
(386,375,q),
(372,269,o),
(303,224,q),
(364,27,o),
(364,10.5,q),
(364,-6,o),
(330,-6,q),
(257,-6,o),
(249,24,q),
(199,195,l),
(186,194,o),
(164,194,q),
(141,30,l),
(138,7,o),
(132,0.5,q),
(126,-6,o),
(101,-6,q),
(36,-6,o),
(41,29,q),
(110,522,l),
(179,531,o),
(236,531,q)
);
},
{
closed = 1;
nodes = (
(230,301,o),
(249,314.5,q),
(268,328,o),
(274,375,q),
(276,386,o),
(276,394.5,q),
(276,403,o),
(274,413,q),
(270,436,o),
(257,436,q),
(216,436,o),
(207,435,q),
(198,434,o),
(197,430,q),
(179,303,l),
(179,301,o),
(182,301,q)
);
}
);
width = 413;
}
);
},
{
category = Letter;
glyphname = S_smcp;
layers = (
{
layerId = "b692dbeb-fef6-4ff9-be0e-3d959b00990b";
name = Fore;
shapes = (
{
closed = 1;
nodes = (
(152,94,o),
(185,94,q),
(218,94,o),
(230,110,q),
(246,131,o),
(246,153,q),
(246,175,o),
(229.5,190.5,q),
(213,206,o),
(172,229,q),
(131,252,o),
(104.5,291,q),
(78,330,o),
(78,366,q),
(78,373,o),
(79,381,q),
(90,460,o),
(135,495.5,q),
(180,531,o),
(260,531,q),
(297,531,o),
(326,522,q),
(373,508,o),
(373,482,q),
(373,476,o),
(370,469,q),
(352,433,o),
(339,426,q),
(333,422,o),
(323.5,422,q),
(314,422,o),
(286,432,q),
(258,442,o),
(241,442,q),
(224,442,o),
(211,430,q),
(193,415,o),
(193,391.5,q),
(193,368,o),
(212,350,q),
(231,332,o),
(276,309,q),
(327,279,o),
(347,252.5,q),
(367,226,o),
(367,191,q),
(367,179,o),
(365,165,q),
(340,-6,o),
(195,-6,q),
(115,-6,o),
(57,34,q),
(29,54,o),
(29,80,q),
(29,84,o),
(30,92.5,q),
(31,101,o),
(49.5,120,q),
(68,139,o),
(80.5,140.5,q),
(93,142,o),
(107,131,q)
);
}
);
width = 389;
}
);
},
{
category = Letter;
glyphname = T_smcp;
layers = (
{
layerId = "b692dbeb-fef6-4ff9-be0e-3d959b00990b";
name = Fore;
shapes = (
{
closed = 1;
nodes = (
(69,522,o),
(106,522,q),
(350,522,l),
(377,522,o),
(384,515,q),
(391,508,o),
(391,502,q),
(391,496,o),
(391,493,q),
(380,427,o),
(344,427,q),
(277,427,l),
(266,299,l),
(227,28,l),
(225,6,o),
(219,0,q),
(213,-6,o),
(186,-6,q),
(159,-6,o),
(137,1.5,q),
(115,9,o),
(117,27,q),
(174,427,l),
(97,427,l),
(78,427,o),
(73.5,434.5,q),
(69,442,o),
(69,455,q)
);
}
);
width = 362;
}
);
},
{
category = Letter;
glyphname = U_smcp;
layers = (
{
layerId = "b692dbeb-fef6-4ff9-be0e-3d959b00990b";
name = Fore;
shapes = (
{
closed = 1;
nodes = (
(165,169,o),
(165,131,q),
(165,93,o),
(174,93,q),
(206,93,o),
(220.5,96,q),
(235,99,o),
(247.5,118.5,q),
(260,138,o),
(265.5,166,q),
(271,194,o),
(280,258,q),
(313,494,l),
(316,517,o),
(326.5,524,q),
(337,531,o),
(368,531,q),
(399,531,o),
(406.5,524,q),
(414,517,o),
(414,502.5,q),
(414,488,o),
(413,477,q),
(396,299,l),
(372,120,o),
(329.5,57,q),
(287,-6,o),
(192.5,-6,q),
(98,-6,o),
(71,51,q),
(55,83,o),
(55,138,q),
(55,193,o),
(64,258,q),
(95,479,l),
(100,513,o),
(110.5,522,q),
(121,531,o),
(152,531,q),
(183,531,o),
(191,523,q),
(199,515,o),
(199,499.5,q),
(199,484,o),
(198,472,q),
(184,300,l)
);
}
);
width = 412;
}
);
},
{
category = Letter;
glyphname = V_smcp;
layers = (
{
layerId = "b692dbeb-fef6-4ff9-be0e-3d959b00990b";
name = Fore;
shapes = (
{
closed = 1;
nodes = (
(371,531,o),
(416,531,q),
(461,531,o),
(461,508,q),
(461,503,o),
(459,497,q),
(280,25,l),
(273,7,o),
(265.5,0.5,q),
(258,-6,o),
(240,-6,q),
(161,-6,o),
(156,26,q),
(93,498,l),
(89,531,o),
(144,531,q),
(199,531,o),
(205,499,q),
(242,177,l),
(359,503,l)
);
}
);
width = 426;
}
);
},
{
category = Letter;
glyphname = W_smcp;
layers = (
{
layerId = "b692dbeb-fef6-4ff9-be0e-3d959b00990b";
name = Fore;
shapes = (
{
closed = 1;
nodes = (
(202,531,o),
(207,502,q),
(244,179,l),
(337,435,l),
(348,464,o),
(389,464,q),
(447,464,o),
(454,430,q),
(482,180,l),
(598,502,l),
(606,520,o),
(617,525.5,q),
(628,531,o),
(658,531,q),
(688,531,o),
(695,527,q),
(702,523,o),
(702,515.5,q),
(702,508,o),
(699,497,q),
(521,24,l),
(508,-6,o),
(480.5,-6,q),
(453,-6,o),
(427.5,1.5,q),
(402,9,o),
(399,24,q),
(365,233,l),
(284,26,l),
(277,8,o),
(267.5,1,q),
(258,-6,o),
(236.5,-6,q),
(215,-6,o),
(189.5,1.5,q),
(164,9,o),
(160,24,q),
(96,500,l),
(95,518,o),
(110,524.5,q),
(125,531,o),
(154,531,q)
);
}
);
width = 670;
}
);
},
{
category = Letter;
glyphname = X_smcp;
layers = (
{
layerId = "b692dbeb-fef6-4ff9-be0e-3d959b00990b";
name = Fore;
shapes = (
{
closed = 1;
nodes = (
(341,531,o),
(391,531,q),
(441,531,o),
(441,512,q),
(441,504,o),
(435,493,q),
(308,288,l),
(397,31,l),
(404,12,o),
(397,3,q),
(390,-6,o),
(363.5,-6,q),
(337,-6,o),
(308,1.5,q),
(279,9,o),
(274,25,q),
(236,178,l),
(153,26,l),
(143,7,o),
(134,0.5,q),
(125,-6,o),
(100,-6,q),
(75,-6,o),
(52,1.5,q),
(29,9,o),
(29,20,q),
(29,25,o),
(32,31,q),
(192,289,l),
(124,496,l),
(124,497,l),
(123,502,o),
(123,506,q),
(123,531,o),
(175,531,q),
(227,531,o),
(235,502,q),
(263,383,l),
(327,506,l)
);
}
);
width = 461;
}
);
},
{
category = Letter;
glyphname = Y_smcp;
layers = (
{
layerId = "b692dbeb-fef6-4ff9-be0e-3d959b00990b";
name = Fore;
shapes = (
{
closed = 1;
nodes = (
(464,531,o),
(464,512,q),
(464,505,o),
(459,496,q),
(292,240,l),
(262,27,l),
(260,6,o),
(254,0,q),
(248,-6,o),
(225,-6,q),
(164,-6,o),
(168,28,q),
(199,244,l),
(91,497,l),
(89,502,o),
(89,507,q),
(89,531,o),
(141,531,q),
(193,531,o),
(201,503,q),
(200,504,l),
(264,357,l),
(357,505,l),
(357,504,l),
(366,520,o),
(377.5,525.5,q),
(389,531,o),
(413,531,q)
);
}
);
width = 430;
}
);
},
{
category = Letter;
glyphname = Z_smcp;
layers = (
{
layerId = "b692dbeb-fef6-4ff9-be0e-3d959b00990b";
name = Fore;
shapes = (
{
closed = 1;
nodes = (
(87,522,o),
(127,522,q),
(400,522,l),
(411,507,l),
(401,439,l),
(175,101,l),
(321,101,l),
(346,100,o),
(354,92.5,q),
(362,85,o),
(360,71,q),
(349,5,o),
(310,5,q),
(45,5,l),
(34,20,l),
(45,96,l),
(275,427,l),
(117,427,l),
(95,427,o),
(91,434,q),
(87,441,o),
(87,453,q)
);
}
);
width = 388;
}
);
},
{
category = Letter;
glyphname = Ntilde_smcp;
layers = (
{
layerId = "b692dbeb-fef6-4ff9-be0e-3d959b00990b";
name = Fore;
shapes = (
{
closed = 1;
nodes = (
(381,595,o),
(358,595,q),
(335,595,o),
(279,587.5,q),
(223,580,o),
(191.5,580,q),
(160,580,o),
(151.5,587.5,q),
(143,595,o),
(143,606.5,q),
(143,618,o),
(144,626,q),
(169,664,l),
(200,664,o),
(264,670.5,q),
(328,677,o),
(358,677,q),
(388,677,o),
(400,668.5,q),
(412,660,o),
(412,648,q),
(412,636,o),
(411,629,q),
(393,594,l)
);
},
{
closed = 1;
nodes = (
(173,531,o),
(179.5,530,q),
(186,529,o),
(196,520.5,q),
(206,512,o),
(214,495,q),
(280,262,l),
(311,501,l),
(315,531,o),
(371,531,q),
(396,531,o),
(402.5,526,q),
(409,521,o),
(409,513,q),
(409,505,o),
(409,501,q),
(391,300,l),
(352,27,l),
(350,6,o),
(344,0,q),
(338,-6,o),
(315,-6,q),
(266,-6,o),
(258,24,q),
(177,262,l),
(145,28,l),
(143,6,o),
(137,0,q),
(131,-6,o),
(104,-6,q),
(77,-6,o),
(55.5,2,q),
(34,10,o),
(37,29,q),
(103,500,l),
(107,531,o),
(162,531,q)
);
}
);
width = 423;
}
);
},
